<?xml version="1.0" standalone="no"?>
<!DOCTYPE svg PUBLIC "-//W3C//DTD SVG 1.1//EN" "http://www.w3.org/Graphics/SVG/1.1/DTD/svg11.dtd" >
<svg>
<metadata>
Created by FontForge 20090622 at Mon Jun 25 17:36:20 2018
 By deploy user
Copyright (c) 2013 by Michael Chereda. All rights reserved.
</metadata>
<defs>
<font id="BravoSC" horiz-adv-x="335" >
  <font-face 
    font-family="BravoSC"
    font-weight="400"
    font-stretch="normal"
    units-per-em="1000"
    panose-1="2 0 5 6 0 0 0 2 0 4"
    ascent="800"
    descent="-200"
    x-height="540"
    cap-height="700"
    bbox="-10 -200 879 880"
    underline-thickness="50"
    underline-position="-50"
    unicode-range="U+0020-U+F6C3"
  />
<missing-glyph horiz-adv-x="200" 
 />
    <glyph glyph-name=".notdef" horiz-adv-x="200" 
 />
    <glyph glyph-name=".null" horiz-adv-x="0" 
 />
    <glyph glyph-name="nonmarkingreturn" horiz-adv-x="333" 
 />
    <glyph glyph-name="space" unicode=" " horiz-adv-x="180" 
 />
    <glyph glyph-name="exclam" unicode="!" horiz-adv-x="121" 
d="M30 71h61v-71h-61v71zM30 700h61v-566h-61v566z" />
    <glyph glyph-name="quotedbl" unicode="&#x22;" horiz-adv-x="210" 
d="M30 710h50v-161h-50v161zM130 710h50v-161h-50v161z" />
    <glyph glyph-name="numbersign" unicode="#" horiz-adv-x="399" 
d="M314 700h52l-42 -203h45v-50h-56l-33 -162h55v-51h-65l-48 -234h-52l48 234h-79l-48 -234h-52l48 234h-57v51h68l33 162h-56v50h66l42 203h52l-42 -203h79zM262 447h-80l-33 -162h79z" />
    <glyph glyph-name="dollar" unicode="$" horiz-adv-x="262" 
d="M105 -60v80q-32 5 -53.5 28.5t-21.5 55.5v118h61v-118q0 -11 9 -17.5t21 -6.5h20q12 0 21 6.5t9 17.5v68q0 29 -24 79l-93 201q-24 50 -24 83v51q0 31 21.5 55t53.5 29v80h51v-80q32 -5 54 -28.5t22 -55.5v-87h-61v87q0 11 -9.5 18t-20.5 7h-20q-11 0 -20.5 -7t-9.5 -18
v-55q0 -7 2.5 -16t5 -15t8 -17.5l7.5 -15.5l94 -205q24 -50 24 -82v-76q0 -31 -22 -55t-54 -29v-80h-51z" />
    <glyph glyph-name="uni0025" unicode="%" horiz-adv-x="433" 
d="M375 500l28 -38l-345 -264l-28 39zM190 480v134q0 16 -12.5 26t-28.5 10q-15 0 -28 -9t-13 -27v-134q0 -15 13.5 -25t27.5 -10q16 0 28.5 9.5t12.5 25.5zM242 614v-134q0 -37 -26 -61.5t-65 -24.5h-4q-38 0 -64.5 24.5t-26.5 61.5v134q0 37 26.5 61.5t64.5 24.5h4
q39 0 65 -24.5t26 -61.5zM324 86v134q0 16 -12.5 26t-28.5 10q-15 0 -28 -9t-13 -27v-134q0 -15 13.5 -25t27.5 -10q16 0 28.5 9.5t12.5 25.5zM376 220v-134q0 -37 -26 -61.5t-65 -24.5h-4q-38 0 -64.5 24.5t-26.5 61.5v134q0 37 26.5 61.5t64.5 24.5h4q39 0 65 -24.5
t26 -61.5z" />
    <glyph glyph-name="ampersand" unicode="&#x26;" horiz-adv-x="340" 
d="M233 700v-61h-111q-12 0 -21 -10t-9 -21v-137q0 -28 13.5 -45.5t39.5 -17.5h165v-61h-52v-347h-137q-38 0 -64.5 27.5t-26.5 64.5v208q0 26 14 48t36 33q-49 28 -49 91v137q0 38 27 64.5t64 26.5h111zM197 347h-58q-48 0 -48 -58v-196q0 -13 9.5 -22t20.5 -9h76v285z" />
    <glyph glyph-name="quotesingle" unicode="'" horiz-adv-x="110" 
d="M30 710h50v-161h-50v161z" />
    <glyph glyph-name="parenleft" unicode="(" horiz-adv-x="203" 
d="M117 750h56q-79 -254 -79 -447q0 -213 79 -457h-57q-86 231 -86 457q0 213 87 447z" />
    <glyph glyph-name="parenright" unicode=")" horiz-adv-x="203" 
d="M30 750h56q87 -234 87 -447q0 -226 -86 -457h-57q79 244 79 457q0 193 -79 447z" />
    <glyph glyph-name="asterisk" unicode="*" horiz-adv-x="266" 
d="M209 671l27 -45l-73 -30l73 -29l-27 -45l-61 48l11 -77h-53l11 77l-61 -48l-26 45l72 29l-72 30l26 45l61 -48l-11 77h53l-11 -77z" />
    <glyph glyph-name="plus" unicode="+" horiz-adv-x="389" 
d="M169 540h51v-139h139v-51h-139v-139h-51v139h-139v51h139v139z" />
    <glyph glyph-name="comma" unicode="," horiz-adv-x="131" 
d="M30 71h71v-71l-48 -108h-23l26 108h-26v71z" />
    <glyph glyph-name="hyphen" unicode="-" horiz-adv-x="257" 
d="M30 268v54h197v-54h-197z" />
    <glyph glyph-name="period" unicode="." horiz-adv-x="131" 
d="M30 0v71h71v-71h-71z" />
    <glyph glyph-name="slash" unicode="/" horiz-adv-x="350" 
d="M282 750h58l-272 -904h-58z" />
    <glyph glyph-name="zero" unicode="0" horiz-adv-x="297" 
d="M106 351l85 156v97q0 12 -9 21t-21 9h-25q-12 0 -21 -9t-9 -21v-253zM257 609v-518q0 -39 -27 -65t-64 -26h-35q-38 0 -64.5 26.5t-26.5 64.5v518q0 37 27.5 64t63.5 27h35q37 0 64 -27.5t27 -63.5zM191 398l-85 -157v-145q0 -12 9 -21t21 -9h25q12 0 21 9t9 21v302z" />
    <glyph glyph-name="one" unicode="1" horiz-adv-x="285" 
d="M177 700v-634h68v-66h-201v66h68v568h-72v66h137z" />
    <glyph glyph-name="two" unicode="2" horiz-adv-x="302" 
d="M246 434l-110 -232q-25 -53 -25 -105v-31h146v-66h-212v97q0 69 31 132l110 230q11 24 11 69v76q0 12 -9.5 21t-21.5 9h-30q-12 0 -21 -9t-9 -21v-76h-66v81q0 37 27.5 64t63.5 27h40q38 0 64.5 -27t26.5 -64v-81q0 -61 -16 -94z" />
    <glyph glyph-name="three" unicode="3" horiz-adv-x="305" 
d="M255 700v-86l-96 -177q11 9 27 9q37 0 58 -23.5t21 -61.5v-270q0 -37 -26.5 -64t-64.5 -27h-43q-37 0 -64 27t-27 64v110h66v-105q0 -13 9 -21.5t21 -8.5h33q13 0 21.5 8.5t8.5 21.5v257q0 13 -9.5 22.5t-22.5 9.5q-36 0 -55 -36l-56 24l136 261h-152v66h215z" />
    <glyph glyph-name="four" unicode="4" horiz-adv-x="338" 
d="M250 700v-499h58v-61h-58v-140h-66v140h-149v61l121 499h94zM98 201h86v198l13 221z" />
    <glyph glyph-name="five" unicode="5" horiz-adv-x="308" 
d="M268 360v-269q0 -37 -27 -64t-64 -27h-45q-38 0 -65 26.5t-27 64.5v110h66v-105q0 -12 9 -21t22 -9h35q12 0 21 8.5t9 21.5v254q0 15 -11.5 25t-26.5 10q-57 0 -57 -86h-67v401h213v-66h-147v-205q25 22 66 22q37 0 66.5 -27t29.5 -64z" />
    <glyph glyph-name="six" unicode="6" horiz-adv-x="307" 
d="M202 96v254q0 12 -9.5 21t-21.5 9q-65 0 -65 -86v-198q0 -12 9 -21t21 -9h35q13 0 22 8.5t9 21.5zM267 355v-264q0 -37 -26.5 -64t-64.5 -27h-45q-37 0 -64 27t-27 64v518q0 37 27 64t64 27h45q38 0 64.5 -27t26.5 -64v-81h-65v76q0 12 -9 21t-22 9h-35q-12 0 -21 -9
t-9 -21v-183q28 25 65 25q41 0 68.5 -26.5t27.5 -64.5z" />
    <glyph glyph-name="seven" unicode="7" horiz-adv-x="300" 
d="M30 634v66h240v-77q-28 -60 -47.5 -122t-29.5 -109t-15.5 -124t-6.5 -121t-3 -147h-66q3 232 20 360.5t82 269.5v4h-174z" />
    <glyph glyph-name="eight" unicode="8" horiz-adv-x="300" 
d="M106 349v-253q0 -13 9 -21.5t22 -8.5h27q13 0 21.5 9t8.5 21v253q0 13 -8.5 22t-21.5 9h-27q-13 0 -22 -9t-9 -22zM40 91v250q0 54 52 74q-19 7 -33 24t-14 39v131q0 38 27 64.5t65 26.5h27q38 0 64.5 -27t26.5 -64v-131q0 -24 -14.5 -41t-31.5 -22q51 -23 51 -74v-250
q0 -37 -27 -64t-64 -27h-37q-38 0 -65 26.5t-27 64.5zM111 604v-129q0 -13 9 -21.5t21 -8.5h18q13 0 21.5 8.5t8.5 21.5v129q0 12 -8.5 21t-21.5 9h-17q-13 0 -22 -9t-9 -21z" />
    <glyph glyph-name="nine" unicode="9" horiz-adv-x="307" 
d="M201 441v163q0 12 -9 21t-22 9h-34q-13 0 -22 -9t-9 -21v-219q0 -12 9 -21t22 -9q65 0 65 86zM267 609v-518q0 -37 -27 -64t-65 -27h-44q-38 0 -64.5 26.5t-26.5 64.5v110h65v-105q0 -12 9 -21t22 -9h34q13 0 22 9t9 21v220q-29 -27 -65 -27q-38 0 -67 27.5t-29 63.5v229
q0 37 27 64t64 27h44q38 0 65 -27t27 -64z" />
    <glyph glyph-name="colon" unicode=":" horiz-adv-x="131" 
d="M30 449v71h71v-71h-71zM30 0v71h71v-71h-71z" />
    <glyph glyph-name="semicolon" unicode=";" horiz-adv-x="131" 
d="M30 520h71v-71h-71v71zM30 71h71v-71l-48 -108h-23l26 108h-26v71z" />
    <glyph glyph-name="less" unicode="&#x3c;" horiz-adv-x="517" 
d="M487 540v-66l-365 -178l365 -179v-65l-457 224v39z" />
    <glyph glyph-name="equal" unicode="=" horiz-adv-x="455" 
d="M30 236v60h395v-60h-395zM30 430v61h395v-61h-395z" />
    <glyph glyph-name="greater" unicode="&#x3e;" horiz-adv-x="517" 
d="M30 474v66l457 -225v-39l-457 -224v65l365 179z" />
    <glyph glyph-name="question" unicode="?" horiz-adv-x="262" 
d="M101 71h61v-71h-61v71zM91 529h-61v80q0 37 27 64t64 27h20q38 0 64.5 -26.5t26.5 -64.5v-80q0 -51 -35 -157t-35 -158v-80h-61v80q0 56 35 162.5t35 152.5v80q0 13 -8.5 21.5t-21.5 8.5h-20q-13 0 -21.5 -8.5t-8.5 -21.5v-80z" />
    <glyph glyph-name="at" unicode="@" horiz-adv-x="523" 
d="M488 443v-290q0 -38 -22.5 -66.5t-63.5 -28.5q-36 0 -61 22.5t-31 58.5l-10 58h-82l-18 -105h-51l66 375h89l55 -319q6 -35 40 -35q31 0 31 37v284q0 55 -40 94.5t-96 39.5h-66q-56 0 -95.5 -39.5t-39.5 -94.5v-312q0 -56 39.5 -95.5t95.5 -39.5h90v-60h-98
q-76 0 -130.5 54.5t-54.5 130.5v331q0 76 54.5 130t130.5 54h83q76 0 130.5 -54t54.5 -130zM255 417l-29 -176h66l-30 176h-7z" />
    <glyph glyph-name="A" unicode="A" horiz-adv-x="349" 
d="M87 0h-67l95 700h119l95 -700h-66l-30 206h-117zM177 635h-5l-49 -368h103z" />
    <glyph glyph-name="B" unicode="B" horiz-adv-x="332" 
d="M40 700h158q39 0 66.5 -27.5t27.5 -66.5v-133q0 -28 -15 -56.5t-42 -39.5q28 -10 42.5 -34.5t14.5 -52.5v-196q0 -39 -27.5 -66.5t-66.5 -27.5h-158v700zM175 408q51 0 51 68v130q0 11 -8 19.5t-20 8.5h-92v-226h69zM106 347v-281h92q12 0 20 8t8 20v203q0 31 -13.5 40.5
t-44.5 9.5h-62z" />
    <glyph glyph-name="C" unicode="C" horiz-adv-x="311" 
d="M205 528v78q0 11 -8 19.5t-20 8.5h-43q-11 0 -19.5 -8.5t-8.5 -19.5v-512q0 -12 8.5 -20t19.5 -8h43q11 0 19.5 8t8.5 20v107h66v-107q0 -39 -27.5 -66.5t-66.5 -27.5h-43q-38 0 -66 27.5t-28 66.5v512q0 39 28 66.5t66 27.5h43q39 0 66.5 -27.5t27.5 -66.5v-78h-66z" />
    <glyph glyph-name="D" unicode="D" horiz-adv-x="329" 
d="M40 700h156q38 0 65.5 -27.5t27.5 -66.5v-512q0 -39 -27.5 -66.5t-65.5 -27.5h-156v700zM106 634v-568h90q11 0 19 8t8 20v512q0 11 -8 19.5t-19 8.5h-90z" />
    <glyph glyph-name="E" unicode="E" horiz-adv-x="261" 
d="M231 634h-125v-226h109v-61h-109v-281h124v-66h-190v700h191v-66z" />
    <glyph glyph-name="F" unicode="F" horiz-adv-x="241" 
d="M231 634h-125v-226h110v-61h-110v-347h-66v700h191v-66z" />
    <glyph glyph-name="G" unicode="G" horiz-adv-x="311" 
d="M205 528v78q0 11 -8 19.5t-20 8.5h-43q-11 0 -19.5 -8.5t-8.5 -19.5v-512q0 -12 8.5 -20t19.5 -8h43q11 0 19.5 8t8.5 20v192h-43v61h109v-253q0 -39 -27.5 -66.5t-66.5 -27.5h-43q-39 0 -66.5 27.5t-27.5 66.5v512q0 38 28 66t66 28h43q39 0 66.5 -27.5t27.5 -66.5v-78
h-66z" />
    <glyph glyph-name="H" unicode="H" 
d="M295 700v-700h-66v347h-123v-347h-66v700h66v-292h123v292h66z" />
    <glyph glyph-name="I" unicode="I" horiz-adv-x="260" 
d="M220 634h-57v-568h57v-66h-180v66h57v568h-57v66h180v-66z" />
    <glyph glyph-name="J" unicode="J" horiz-adv-x="296" 
d="M91 201v-107q0 -12 8.5 -20t19.5 -8h43q12 0 20 8t8 20v540h-94v66h160v-606q0 -39 -27.5 -66.5t-66.5 -27.5h-43q-38 0 -66 27.5t-28 66.5v107h66z" />
    <glyph glyph-name="K" unicode="K" horiz-adv-x="304" 
d="M106 700v-292h25l90 292h68l-103 -312l102 -388h-68l-91 347h-23v-347h-66v700h66z" />
    <glyph glyph-name="L" unicode="L" horiz-adv-x="260" 
d="M106 700v-634h124v-66h-190v700h66z" />
    <glyph glyph-name="M" unicode="M" horiz-adv-x="476" 
d="M370 0v298l21 283l-7 1l-110 -582h-70l-109 582l-7 -1l18 -283v-298h-66v700h94l105 -549l102 549h95v-700h-66z" />
    <glyph glyph-name="N" unicode="N" horiz-adv-x="362" 
d="M268 131l7 2l-19 249v318h66v-700h-89l-139 579l-7 -2l19 -259v-318h-66v700h90z" />
    <glyph glyph-name="O" unicode="O" horiz-adv-x="334" 
d="M228 606q0 11 -8.5 19.5t-19.5 8.5h-66q-11 0 -19.5 -8.5t-8.5 -19.5v-512q0 -12 8.5 -20t19.5 -8h66q11 0 19.5 8t8.5 20v512zM294 606v-512q0 -39 -27.5 -66.5t-66.5 -27.5h-66q-38 0 -66 27.5t-28 66.5v512q0 39 28 66.5t66 27.5h66q39 0 66.5 -27.5t27.5 -66.5z" />
    <glyph glyph-name="P" unicode="P" horiz-adv-x="315" 
d="M106 634v-287h76q14 0 23 11t9 25v223q0 11 -8.5 19.5t-19.5 8.5h-80zM40 0v700h146q38 0 66 -27.5t28 -66.5v-228q0 -39 -24.5 -66t-63.5 -27h-86v-285h-66z" />
    <glyph glyph-name="Q" unicode="Q" horiz-adv-x="333" 
d="M78 -27q38 0 64.5 -9.5t60.5 -32.5q47 -30 88 -30v-56q-38 0 -64.5 9.5t-60.5 32.5q-45 30 -88 30v56zM227 606q0 11 -8 19.5t-20 8.5h-65q-11 0 -19.5 -8.5t-8.5 -19.5v-512q0 -12 8.5 -20t19.5 -8h65q12 0 20 8t8 20v512zM293 606v-512q0 -39 -27.5 -66.5t-66.5 -27.5
h-65q-39 0 -66.5 27.5t-27.5 66.5v512q0 39 27.5 66.5t66.5 27.5h65q39 0 66.5 -27.5t27.5 -66.5z" />
    <glyph glyph-name="R" unicode="R" horiz-adv-x="323" 
d="M106 408h51q60 0 60 64v134q0 11 -8.5 19.5t-19.5 8.5h-83v-226zM40 700h149q38 0 66 -28t28 -66v-138q0 -63 -59 -91q59 -13 59 -75v-302h-66v297q0 50 -50 50h-61v-347h-66v700z" />
    <glyph glyph-name="S" unicode="S" horiz-adv-x="314" 
d="M106 201v-107q0 -12 8.5 -20t19.5 -8h46q11 0 19.5 8t8.5 20v119q0 42 -21 67l-114 139q-33 41 -33 106v81q0 38 28 66t66 28h46q38 0 66 -27.5t28 -66.5v-78h-66v78q0 11 -8.5 19.5t-19.5 8.5h-46q-11 0 -19.5 -8.5t-8.5 -19.5v-81q0 -41 21 -67l113 -139
q34 -41 34 -106v-119q0 -39 -28 -66.5t-66 -27.5h-46q-39 0 -66.5 27.5t-27.5 66.5v107h66z" />
    <glyph glyph-name="T" unicode="T" horiz-adv-x="278" 
d="M253 634h-81v-634h-66v634h-81v66h228v-66z" />
    <glyph glyph-name="U" unicode="U" 
d="M106 700v-606q0 -12 8 -20t20 -8h67q11 0 19.5 8t8.5 20v606h66v-606q0 -39 -28 -66.5t-66 -27.5h-67q-39 0 -66.5 27.5t-27.5 66.5v606h66z" />
    <glyph glyph-name="V" unicode="V" 
d="M257 700h68l-109 -700h-99l-107 700h68l89 -612z" />
    <glyph glyph-name="W" unicode="W" horiz-adv-x="536" 
d="M516 700l-102 -700h-96l-48 411h-4l-49 -411h-96l-101 700h66l82 -611h4l35 308l28 165l-19 138h105l-20 -138l28 -165l35 -308h4l81 611h67z" />
    <glyph glyph-name="X" unicode="X" horiz-adv-x="358" 
d="M94 700l85 -284l85 284h69l-98 -325l108 -375h-68l-96 334l-95 -334h-69l107 375l-96 325h68z" />
    <glyph glyph-name="Y" unicode="Y" horiz-adv-x="313" 
d="M65 66h57v253l-112 381h68l77 -279l80 279h68l-115 -380v-254h57v-66h-180v66z" />
    <glyph glyph-name="Z" unicode="Z" horiz-adv-x="288" 
d="M42 700h226l-160 -634h139v-66h-227l160 634h-138v66z" />
    <glyph glyph-name="bracketleft" unicode="[" horiz-adv-x="185" 
d="M155 700v-61h-63v-731h63v-62h-125v854h125z" />
    <glyph glyph-name="backslash" unicode="\" horiz-adv-x="355" 
d="M10 750h63l272 -904h-63z" />
    <glyph glyph-name="bracketright" unicode="]" horiz-adv-x="185" 
d="M30 639v61h125v-854h-125v62h63v731h-63z" />
    <glyph glyph-name="underscore" unicode="_" horiz-adv-x="610" 
d="M580 -152v-48h-550v48h550z" />
    <glyph glyph-name="grave" unicode="`" horiz-adv-x="209" 
d="M45 662l30 38l89 -66l-30 -38z" />
    <glyph glyph-name="a" unicode="a" horiz-adv-x="348" 
d="M172 478l-44 -237h92l-44 237h-4zM264 0l-32 179h-115l-34 -179h-63l101 540h106l101 -540h-64z" />
    <glyph glyph-name="b" unicode="b" horiz-adv-x="337" 
d="M102 320h86q20 0 33.5 14t13.5 33v79q0 13 -9 22t-22 9h-102v-157zM188 258h-86v-196h102q13 0 22 9t9 22v118q0 19 -13.5 33t-33.5 14zM244 289q24 -7 38.5 -28t14.5 -45v-123q0 -38 -27 -65.5t-66 -27.5h-164v540h164q38 0 65.5 -27.5t27.5 -66.5v-84q0 -25 -15 -45
t-38 -28z" />
    <glyph glyph-name="c" unicode="c" horiz-adv-x="316" 
d="M276 394h-63v52q0 13 -9 22t-22 9h-49q-13 0 -22 -9t-9 -22v-353q0 -13 9 -22t22 -9h49q13 0 22 9t9 22v85h63v-85q0 -38 -27.5 -65.5t-66.5 -27.5h-49q-38 0 -65.5 27.5t-27.5 65.5v353q0 39 27.5 66.5t65.5 27.5h49q39 0 66.5 -27.5t27.5 -66.5v-52z" />
    <glyph glyph-name="d" unicode="d" 
d="M201 477h-99v-415h99q13 0 22.5 9t9.5 22v353q0 13 -9.5 22t-22.5 9zM40 0v540h161q39 0 66.5 -27.5t27.5 -66.5v-353q0 -38 -27.5 -65.5t-66.5 -27.5h-161z" />
    <glyph glyph-name="e" unicode="e" horiz-adv-x="264" 
d="M102 477v-157h117v-62h-117v-196h132v-62h-194v540h194v-63h-132z" />
    <glyph glyph-name="f" unicode="f" horiz-adv-x="245" 
d="M103 477v-157h116v-62h-116v-258h-63v540h195v-63h-132z" />
    <glyph glyph-name="g" unicode="g" horiz-adv-x="316" 
d="M276 394h-62v52q0 13 -9 22t-22 9h-49q-13 0 -22 -9t-9 -22v-353q0 -13 9 -22t22 -9h49q13 0 22 9t9 22v103h-49v62h111v-165q0 -38 -27.5 -65.5t-65.5 -27.5h-49q-39 0 -66.5 27.5t-27.5 65.5v353q0 39 27.5 66.5t66.5 27.5h49q38 0 65.5 -27.5t27.5 -66.5v-52z" />
    <glyph glyph-name="h" unicode="h" horiz-adv-x="341" 
d="M239 540h62v-540h-62v258h-137v-258h-62v540h62v-220h137v220z" />
    <glyph glyph-name="i" unicode="i" horiz-adv-x="264" 
d="M224 477h-61v-415h61v-62h-184v62h61v415h-61v63h184v-63z" />
    <glyph glyph-name="j" unicode="j" horiz-adv-x="301" 
d="M25 178h63v-85q0 -13 9 -22t22 -9h49q13 0 22 9t9 22v384h-96v63h158v-447q0 -38 -27.5 -65.5t-65.5 -27.5h-49q-39 0 -66.5 27.5t-27.5 65.5v85z" />
    <glyph glyph-name="k" unicode="k" horiz-adv-x="312" 
d="M40 540h62v-220h28l100 220h67l-113 -252l112 -288h-66l-102 258h-26v-258h-62v540z" />
    <glyph glyph-name="l" unicode="l" horiz-adv-x="265" 
d="M40 540h63v-478h132v-62h-195v540z" />
    <glyph glyph-name="m" unicode="m" horiz-adv-x="465" 
d="M425 0h-63v207l20 250l-111 -457h-77l-112 457l21 -254v-203h-63v540h84l108 -447l109 447h84v-540z" />
    <glyph glyph-name="n" unicode="n" horiz-adv-x="368" 
d="M266 540h62v-540h-86l-156 478l16 -246v-232h-62v540h86l156 -477l-16 275v202z" />
    <glyph glyph-name="o" unicode="o" horiz-adv-x="340" 
d="M237 93v353q0 13 -9 22t-22 9h-72q-13 0 -22 -9t-9 -22v-353q0 -13 9 -22t22 -9h72q13 0 22 9t9 22zM300 446v-353q0 -38 -27.5 -65.5t-66.5 -27.5h-72q-39 0 -66.5 27.5t-27.5 65.5v353q0 38 27.5 66t66.5 28h72q38 0 66 -27.5t28 -66.5z" />
    <glyph glyph-name="p" unicode="p" horiz-adv-x="320" 
d="M285 446v-157q0 -38 -27.5 -65.5t-66.5 -27.5h-89v-196h-62v540h151q39 0 66.5 -27.5t27.5 -66.5zM102 258h89q13 0 22 9t9 22v157q0 13 -9 22t-22 9h-89v-219z" />
    <glyph glyph-name="q" unicode="q" horiz-adv-x="344" 
d="M237 93v353q0 13 -9 22t-22 9h-73q-13 0 -22 -9t-9 -22v-353q0 -13 9 -22t22 -9h73q13 0 22 9t9 22zM299 446v-353q0 -38 -27.5 -65.5t-65.5 -27.5h-73q-38 0 -65.5 27.5t-27.5 65.5v353q0 39 27.5 66.5t65.5 27.5h73q38 0 65.5 -27.5t27.5 -66.5zM71 -84v62
q67 0 133 -41q51 -30 100 -30v-62q-66 0 -132 39q-51 32 -101 32z" />
    <glyph glyph-name="r" unicode="r" horiz-adv-x="328" 
d="M103 320h76q19 0 33 14.5t14 32.5v79q0 13 -9.5 22t-21.5 9h-92v-157zM182 258h-79v-258h-63v540h155q38 0 65.5 -27.5t27.5 -66.5v-81q0 -22 -13.5 -43t-35.5 -33q22 -8 35.5 -28t13.5 -43v-218h-62v212q0 20 -12.5 33t-31.5 13z" />
    <glyph glyph-name="s" unicode="s" horiz-adv-x="319" 
d="M40 178h63v-85q0 -13 9 -22t22 -9h51q13 0 22.5 9t9.5 22v42q0 26 -21 47l-114 113q-42 41 -42 97v54q0 39 28 66.5t66 27.5h51q39 0 66.5 -27.5t27.5 -66.5v-52h-62v52q0 13 -9.5 22t-22.5 9h-51q-13 0 -22 -9t-9 -22v-49q0 -31 24 -55l117 -115q35 -35 35 -87v-47
q0 -38 -27.5 -65.5t-66.5 -27.5h-51q-38 0 -66 27.5t-28 65.5v85z" />
    <glyph glyph-name="t" unicode="t" horiz-adv-x="283" 
d="M258 477h-86v-477h-62v477h-85v63h233v-63z" />
    <glyph glyph-name="u" unicode="u" horiz-adv-x="341" 
d="M40 540h62v-447q0 -13 9.5 -22t22.5 -9h73q13 0 22.5 9t9.5 22v447h62v-447q0 -38 -27.5 -65.5t-66.5 -27.5h-73q-39 0 -66.5 27.5t-27.5 65.5v447z" />
    <glyph glyph-name="v" unicode="v" horiz-adv-x="353" 
d="M15 540h63l95 -478h7l95 478h63l-110 -540h-103z" />
    <glyph glyph-name="w" unicode="w" horiz-adv-x="547" 
d="M463 540h64l-105 -540h-105l-44 258l-44 -258h-105l-104 540h63l91 -478h6l61 333l-28 145h119l-27 -145l61 -333h7z" />
    <glyph glyph-name="x" unicode="x" horiz-adv-x="348" 
d="M93 540l74 -220h13l74 220h67l-91 -251l103 -289h-66l-86 258h-15l-85 -258h-66l102 289l-91 251h67z" />
    <glyph glyph-name="y" unicode="y" horiz-adv-x="321" 
d="M70 0v62h60v196h-11l-109 282h67l81 -220h7l79 220h67l-107 -282h-11v-196h61v-62h-184z" />
    <glyph glyph-name="z" unicode="z" horiz-adv-x="275" 
d="M32 477v63h223l-148 -478h136v-62h-223l148 477h-136z" />
    <glyph glyph-name="braceleft" unicode="{" horiz-adv-x="213" 
d="M142 614v-248q0 -52 -38 -63q38 -9 38 -58v-313q0 -10 7.5 -17.5t17.5 -7.5h16v-61h-26q-31 0 -53.5 22.5t-22.5 53.5v326q0 10 -7.5 17.5t-17.5 7.5h-26v61h26q10 0 17.5 7t7.5 18v265q0 31 22.5 53.5t53.5 22.5h26v-61h-16q-10 0 -17.5 -7.5t-7.5 -17.5z" />
    <glyph glyph-name="bar" unicode="|" horiz-adv-x="116" 
d="M30 700h56v-854h-56v854z" />
    <glyph glyph-name="braceright" unicode="}" horiz-adv-x="213" 
d="M71 366v248q0 10 -7.5 17.5t-17.5 7.5h-16v61h26q31 0 53.5 -22.5t22.5 -53.5v-265q0 -11 7 -18t18 -7h26v-61h-26q-11 0 -18 -7.5t-7 -17.5v-326q0 -31 -22.5 -53.5t-53.5 -22.5h-26v61h16q10 0 17.5 7.5t7.5 17.5v313q0 49 38 58q-38 11 -38 63z" />
    <glyph glyph-name="asciitilde" unicode="~" horiz-adv-x="461" 
d="M70 249l-39 41q49 66 122 66q39 0 81.5 -25.5t66.5 -25.5q52 0 91 48l39 -42q-24 -30 -59.5 -48.5t-71.5 -18.5t-81 26t-67 26q-47 0 -82 -47z" />
    <glyph glyph-name="exclamdown" unicode="&#xa1;" horiz-adv-x="121" 
d="M91 469h-61v71h61v-71zM91 -160h-61v566h61v-566z" />
    <glyph glyph-name="cent" unicode="&#xa2;" horiz-adv-x="286" 
d="M168 0h-51v109q-36 1 -61.5 28t-25.5 63v299q0 36 26 62.5t61 28.5v110h51v-110q36 -1 62 -28t26 -63v-58h-61v58q0 13 -9.5 22t-20.5 9h-44q-12 0 -21 -9.5t-9 -21.5v-299q0 -13 9 -21.5t21 -8.5h44q13 0 21.5 9t8.5 21v61h61v-61q0 -37 -26.5 -63.5t-61.5 -27.5v-109z
" />
    <glyph glyph-name="sterling" unicode="&#xa3;" horiz-adv-x="312" 
d="M30 61h58v261h-58v56h58v231q0 38 26.5 64.5t64.5 26.5h12q37 0 64 -27t27 -64v-69h-60v69q0 13 -9 22t-22 9h-12q-13 0 -21.5 -9t-8.5 -22v-231h89v-56h-89v-261h133v-61h-252v61z" />
    <glyph glyph-name="currency" unicode="&#xa4;" horiz-adv-x="385" 
d="M319 540l36 -36l-44 -44q26 -35 26 -82q0 -44 -26 -83l44 -44l-36 -36l-45 45q-36 -25 -81 -25q-46 0 -82 25l-45 -45l-36 36l45 45q-25 36 -25 82q0 45 25 81l-45 45l36 36l44 -44q39 26 83 26q47 0 82 -26zM101 378q0 -38 27.5 -65t64.5 -27q38 0 65.5 27t27.5 65
t-27.5 65.5t-65.5 27.5t-65 -27.5t-27 -65.5z" />
    <glyph glyph-name="yen" unicode="&#xa5;" horiz-adv-x="353" 
d="M40 364v55h73l-83 281h68l77 -279l80 279h68l-85 -281h75v-55h-92l-13 -44v-21h105v-55h-105v-183h57v-61h-180v61h57v183h-102v55h102v20l-13 45h-89z" />
    <glyph glyph-name="brokenbar" unicode="&#xa6;" horiz-adv-x="111" 
d="M30 700h51v-337h-51v337zM30 222h51v-376h-51v376z" />
    <glyph glyph-name="section" unicode="&#xa7;" horiz-adv-x="269" 
d="M30 140h56v-57q0 -11 10.5 -19t23.5 -8h25q33 0 33 33q0 20 -1 30t-6 23.5t-15 25.5l-94 110q-32 38 -32 89q0 62 63 106l-22 26q-24 28 -30 50t-6 63q0 39 25.5 63.5t64.5 24.5h20q37 0 63 -24t26 -59v-56h-56v51q0 14 -9.5 23t-23.5 9h-20q-34 0 -34 -34q0 -19 1 -28
t5.5 -21.5t15.5 -24.5l95 -111q31 -37 31 -88q0 -63 -62 -106l22 -27q23 -27 29 -50t6 -65q0 -39 -25.5 -64t-63.5 -25h-25q-36 0 -63 24t-27 59v57zM105 315l35 -42q43 27 43 64q0 31 -18 52l-35 42q-44 -29 -44 -64q0 -30 19 -52z" />
    <glyph glyph-name="dieresis" unicode="&#xa8;" horiz-adv-x="237" 
d="M147 700h60v-71h-60v71zM30 700h61v-71h-61v71z" />
    <glyph glyph-name="copyright" unicode="&#xa9;" horiz-adv-x="495" 
d="M465 523v-346q0 -77 -55 -132.5t-132 -55.5h-60q-78 0 -133 55t-55 133v346q0 78 55 133t133 55h60q77 0 132 -55.5t55 -132.5zM415 177v346q0 56 -40.5 96.5t-96.5 40.5h-60q-57 0 -97 -40t-40 -97v-346q0 -57 40 -97t97 -40h60q56 0 96.5 41t40.5 96zM363 465h-61v50
q0 13 -9 22t-21 9h-48q-13 0 -22 -9t-9 -22v-325q0 -13 9 -22t22 -9h48q12 0 21 9t9 22v84h61v-84q0 -38 -26.5 -65t-64.5 -27h-48q-38 0 -64.5 27t-26.5 65v325q0 37 26.5 64t64.5 27h48q37 0 64 -27t27 -64v-50z" />
    <glyph glyph-name="guillemotleft" unicode="&#xab;" horiz-adv-x="295" 
d="M122 472h45l-67 -202l67 -203h-45l-92 203zM220 472h45l-46 -202l46 -203h-45l-67 203z" />
    <glyph glyph-name="logicalnot" unicode="&#xac;" horiz-adv-x="468" 
d="M375 270v147h-345v63h408v-210h-63z" />
    <glyph glyph-name="uni00AD" unicode="&#xad;" horiz-adv-x="247" 
d="M30 249v51h187v-51h-187z" />
    <glyph glyph-name="registered" unicode="&#xae;" horiz-adv-x="496" 
d="M466 523v-346q0 -78 -54.5 -133t-132.5 -55h-62q-77 0 -132 55.5t-55 132.5v346q0 77 55 132.5t132 55.5h62q77 0 132 -55.5t55 -132.5zM416 177v346q0 56 -40.5 96.5t-96.5 40.5h-62q-56 0 -96 -40.5t-40 -96.5v-346q0 -56 40 -96.5t96 -40.5h62q56 0 96.5 41t40.5 96z
M209 98h-61v508h120q38 0 64.5 -27t26.5 -64v-67q0 -22 -13 -43.5t-34 -33.5q18 -8 32.5 -31t14.5 -45v-197h-60v197q0 19 -13.5 32.5t-32.5 13.5h-44v-243zM209 402h44q19 0 32.5 13.5t13.5 32.5v67q0 12 -9 21.5t-22 9.5h-59v-144z" />
    <glyph glyph-name="macron" unicode="&#xaf;" horiz-adv-x="281" 
d="M45 700h191v-51h-191v51z" />
    <glyph glyph-name="degree" unicode="&#xb0;" horiz-adv-x="284" 
d="M143 711q46 0 78.5 -33.5t32.5 -78.5q0 -47 -32.5 -79.5t-78.5 -32.5q-47 0 -80 32.5t-33 79.5q0 46 33 79t80 33zM143 666q-28 0 -48 -19.5t-20 -47.5q0 -29 19.5 -48t48.5 -19q28 0 47.5 19.5t19.5 47.5q0 27 -20 47t-47 20z" />
    <glyph glyph-name="plusminus" unicode="&#xb1;" horiz-adv-x="389" 
d="M169 540h51v-139h139v-51h-139v-139h-51v139h-139v51h139v139zM30 131h329v-51h-329v51z" />
    <glyph glyph-name="twosuperior" unicode="&#xb2;" horiz-adv-x="171" 
d="M69 615h-39v43q0 18 13 30t31 12h23q19 0 31.5 -12t12.5 -30v-37q0 -25 -7 -39q-7 -15 -25 -40t-29 -46.5t-11 -44.5v-8h72v-39h-111v47q0 26 11 50t30.5 53t26.5 43q4 9 4 25v35q0 6 -5 6h-23q-5 0 -5 -6v-42z" />
    <glyph glyph-name="threesuperior" unicode="&#xb3;" horiz-adv-x="168" 
d="M30 661v39h108v-36l-46 -75q4 3 13 3q15 0 24 -9.5t9 -23.5v-111q0 -19 -13 -31.5t-31 -12.5h-19q-19 0 -32 12.5t-13 31.5v46h39v-46q0 -5 6 -5h19q5 0 5 5v99q0 11 -12 11q-11 0 -20 -17l-34 16l61 104h-64z" />
    <glyph glyph-name="acute" unicode="&#xb4;" horiz-adv-x="209" 
d="M134 700l30 -38l-89 -66l-30 38z" />
    <glyph glyph-name="paragraph" unicode="&#xb6;" horiz-adv-x="269" 
d="M239 0h-54v646h-28v-277h-37q-39 0 -64.5 28t-25.5 68v139q0 40 28.5 68t68.5 28h112v-700z" />
    <glyph glyph-name="periodcentered" unicode="&#xb7;" horiz-adv-x="131" 
d="M30 410h71v-71h-71v71z" />
    <glyph glyph-name="cedilla" unicode="&#xb8;" horiz-adv-x="166" 
d="M74 20v-53h4q23 0 40.5 -16.5t17.5 -40.5v-6q0 -23 -17 -41t-41 -18h-48v45h48q4 0 8 4t4 9v8q0 12 -12 12h-41v97h37z" />
    <glyph glyph-name="guillemotright" unicode="&#xbb;" horiz-adv-x="295" 
d="M128 472h45l92 -202l-92 -203h-45l67 203zM30 472h45l67 -202l-67 -203h-45l46 203z" />
    <glyph glyph-name="onequarter" unicode="&#xbc;" horiz-adv-x="460" 
d="M32 342h38v312h-40v46h88v-358h37v-46h-123v46zM397 0h-44v81h-89v41l73 283h60v-281h33v-43h-33v-81zM359 332l-51 -208h45v98zM328 700h53l-231 -700h-53z" />
    <glyph glyph-name="onehalf" unicode="&#xbd;" horiz-adv-x="483" 
d="M353 296h-45v53q0 23 16.5 39t38.5 16h36q23 0 38.5 -16t15.5 -39v-55q0 -26 -8 -46l-78 -137q-11 -22 -11 -45v-20h97v-46h-145v59q0 44 18 76l76 130q7 15 7 39v40q0 6 -5 10.5t-10 4.5h-26q-6 0 -10.5 -5t-4.5 -10v-48zM32 342h38v312h-40v46h88v-358h37v-46h-123v46z
M328 700h53l-231 -700h-53z" />
    <glyph glyph-name="threequarters" unicode="&#xbe;" horiz-adv-x="461" 
d="M31 653v47h134v-43l-64 -107q7 5 19 5q20 0 32.5 -12.5t12.5 -35.5v-156q0 -23 -16.5 -39t-39.5 -16h-24q-22 0 -38 16t-16 39v64h47v-59q0 -6 4 -10.5t9 -4.5h12q6 0 10.5 4.5t4.5 10.5v137q0 6 -4.5 10.5t-11.5 4.5q-18 0 -27 -20l-45 24l82 141h-81zM398 0h-44v81h-89
v41l73 283h60v-281h33v-43h-33v-81zM360 332l-51 -208h45v98zM329 700h53l-231 -700h-53z" />
    <glyph glyph-name="questiondown" unicode="&#xbf;" horiz-adv-x="282" 
d="M171 469h-61v71h61v-71zM181 11h61v-80q0 -37 -27 -64t-64 -27h-20q-38 0 -64.5 26.5t-26.5 64.5v80q0 51 35 157t35 158v80h61v-80q0 -56 -35 -162.5t-35 -152.5v-80q0 -13 8.5 -21.5t21.5 -8.5h20q13 0 21.5 8.5t8.5 21.5v80z" />
    <glyph glyph-name="Agrave" unicode="&#xc0;" horiz-adv-x="349" 
d="M115 816l30 38l89 -66l-30 -38zM87 0h-67l95 700h119l95 -700h-66l-30 206h-117zM177 635h-5l-49 -368h103z" />
    <glyph glyph-name="Aacute" unicode="&#xc1;" horiz-adv-x="349" 
d="M204 854l30 -38l-89 -66l-30 38zM87 0h-67l95 700h119l95 -700h-66l-30 206h-117zM177 635h-5l-49 -368h103z" />
    <glyph glyph-name="Acircumflex" unicode="&#xc2;" horiz-adv-x="349" 
d="M108 750l-30 38l90 56h13l89 -56l-30 -38l-66 42zM87 0h-67l95 700h119l95 -700h-66l-30 206h-117zM177 635h-5l-49 -368h103z" />
    <glyph glyph-name="Atilde" unicode="&#xc3;" horiz-adv-x="349" 
d="M111 750h-42q0 31 18 51.5t48 20.5q21 0 43 -13.5t35 -13.5q25 0 25 27h42q0 -31 -18 -51.5t-47 -20.5q-21 0 -43 14t-33 14q-28 0 -28 -28zM87 0h-67l95 700h119l95 -700h-66l-30 206h-117zM177 635h-5l-49 -368h103z" />
    <glyph glyph-name="Adieresis" unicode="&#xc4;" horiz-adv-x="349" 
d="M203 821h60v-71h-60v71zM86 821h61v-71h-61v71zM87 0h-67l95 700h119l95 -700h-66l-30 206h-117zM177 635h-5l-49 -368h103z" />
    <glyph glyph-name="Aring" unicode="&#xc5;" horiz-adv-x="349" 
d="M103 809q0 30 20.5 50.5t50.5 20.5t50.5 -20.5t20.5 -50.5t-20.5 -50.5t-50.5 -20.5t-50.5 20.5t-20.5 50.5zM139 809q0 -14 10.5 -24.5t24.5 -10.5t24.5 10.5t10.5 24.5t-10.5 24.5t-24.5 10.5t-24.5 -10.5t-10.5 -24.5zM87 0h-67l95 700h119l95 -700h-66l-30 206h-117z
M177 635h-5l-49 -368h103z" />
    <glyph glyph-name="AE" unicode="&#xc6;" horiz-adv-x="479" 
d="M449 634h-124v-226h109v-61h-109v-281h124v-66h-191v201h-127l-44 -201h-67l150 700h279v-66zM222 635l-79 -373h115v373h-36z" />
    <glyph glyph-name="Ccedilla" unicode="&#xc7;" horiz-adv-x="311" 
d="M205 528v78q0 11 -8 19.5t-20 8.5h-43q-11 0 -19.5 -8.5t-8.5 -19.5v-512q0 -12 8.5 -20t19.5 -8h43q11 0 19.5 8t8.5 20v107h66v-107q0 -39 -27.5 -66.5t-66.5 -27.5h-9v-33h4q23 0 40.5 -16.5t17.5 -40.5v-6q0 -23 -17 -41t-41 -18h-48v45h48q4 0 8 4t4 9v8
q0 12 -12 12h-41v77q-38 1 -64.5 28.5t-26.5 65.5v512q0 39 28 66.5t66 27.5h43q39 0 66.5 -27.5t27.5 -66.5v-78h-66z" />
    <glyph glyph-name="Egrave" unicode="&#xc8;" horiz-adv-x="261" 
d="M231 634h-125v-226h109v-61h-109v-281h124v-66h-190v700h191v-66zM76 816l30 38l89 -66l-30 -38z" />
    <glyph glyph-name="Eacute" unicode="&#xc9;" horiz-adv-x="261" 
d="M231 634h-125v-226h109v-61h-109v-281h124v-66h-190v700h191v-66zM165 854l30 -38l-89 -66l-30 38z" />
    <glyph glyph-name="Ecircumflex" unicode="&#xca;" horiz-adv-x="262" 
d="M232 634h-125v-226h109v-61h-109v-281h124v-66h-190v700h191v-66zM70 750l-30 38l90 56h13l89 -56l-30 -38l-66 42z" />
    <glyph glyph-name="Edieresis" unicode="&#xcb;" horiz-adv-x="261" 
d="M231 634h-125v-226h109v-61h-109v-281h124v-66h-190v700h191v-66zM164 821h60v-71h-60v71zM47 821h61v-71h-61v71z" />
    <glyph glyph-name="Igrave" unicode="&#xcc;" horiz-adv-x="260" 
d="M220 634h-57v-568h57v-66h-180v66h57v568h-57v66h180v-66zM71 816l30 38l89 -66l-30 -38z" />
    <glyph glyph-name="Iacute" unicode="&#xcd;" horiz-adv-x="260" 
d="M220 634h-57v-568h57v-66h-180v66h57v568h-57v66h180v-66zM160 854l30 -38l-89 -66l-30 38z" />
    <glyph glyph-name="Icircumflex" unicode="&#xce;" horiz-adv-x="272" 
d="M226 634h-57v-568h57v-66h-180v66h57v568h-57v66h180v-66zM70 750l-30 38l90 56h13l89 -56l-30 -38l-66 42z" />
    <glyph glyph-name="Idieresis" unicode="&#xcf;" horiz-adv-x="260" 
d="M220 634h-57v-568h57v-66h-180v66h57v568h-57v66h180v-66zM159 821h60v-71h-60v71zM42 821h61v-71h-61v71z" />
    <glyph glyph-name="Eth" unicode="&#xd0;" horiz-adv-x="329" 
d="M-10 352v51h50v297h156q38 0 65.5 -27.5t27.5 -66.5v-512q0 -39 -27.5 -66.5t-65.5 -27.5h-156v352h-50zM106 634v-231h81v-51h-81v-286h90q11 0 19 8t8 20v512q0 11 -8 19.5t-19 8.5h-90z" />
    <glyph glyph-name="Ntilde" unicode="&#xd1;" horiz-adv-x="362" 
d="M123 750h-42q0 31 18 51.5t48 20.5q21 0 43 -13.5t35 -13.5q25 0 25 27h42q0 -31 -18 -51.5t-47 -20.5q-21 0 -43 14t-33 14q-28 0 -28 -28zM268 131l7 2l-19 249v318h66v-700h-89l-139 579l-7 -2l19 -259v-318h-66v700h90z" />
    <glyph glyph-name="Ograve" unicode="&#xd2;" horiz-adv-x="334" 
d="M228 606q0 11 -8.5 19.5t-19.5 8.5h-66q-11 0 -19.5 -8.5t-8.5 -19.5v-512q0 -12 8.5 -20t19.5 -8h66q11 0 19.5 8t8.5 20v512zM294 606v-512q0 -39 -27.5 -66.5t-66.5 -27.5h-66q-38 0 -66 27.5t-28 66.5v512q0 39 28 66.5t66 27.5h66q39 0 66.5 -27.5t27.5 -66.5z
M108 816l30 38l89 -66l-30 -38z" />
    <glyph glyph-name="Oacute" unicode="&#xd3;" horiz-adv-x="334" 
d="M228 606q0 11 -8.5 19.5t-19.5 8.5h-66q-11 0 -19.5 -8.5t-8.5 -19.5v-512q0 -12 8.5 -20t19.5 -8h66q11 0 19.5 8t8.5 20v512zM294 606v-512q0 -39 -27.5 -66.5t-66.5 -27.5h-66q-38 0 -66 27.5t-28 66.5v512q0 39 28 66.5t66 27.5h66q39 0 66.5 -27.5t27.5 -66.5z
M197 854l30 -38l-89 -66l-30 38z" />
    <glyph glyph-name="Ocircumflex" unicode="&#xd4;" horiz-adv-x="334" 
d="M228 606q0 11 -8.5 19.5t-19.5 8.5h-66q-11 0 -19.5 -8.5t-8.5 -19.5v-512q0 -12 8.5 -20t19.5 -8h66q11 0 19.5 8t8.5 20v512zM294 606v-512q0 -39 -27.5 -66.5t-66.5 -27.5h-66q-38 0 -66 27.5t-28 66.5v512q0 39 28 66.5t66 27.5h66q39 0 66.5 -27.5t27.5 -66.5z
M101 750l-30 38l90 56h13l89 -56l-30 -38l-66 42z" />
    <glyph glyph-name="Otilde" unicode="&#xd5;" horiz-adv-x="334" 
d="M228 606q0 11 -8.5 19.5t-19.5 8.5h-66q-11 0 -19.5 -8.5t-8.5 -19.5v-512q0 -12 8.5 -20t19.5 -8h66q11 0 19.5 8t8.5 20v512zM294 606v-512q0 -39 -27.5 -66.5t-66.5 -27.5h-66q-38 0 -66 27.5t-28 66.5v512q0 39 28 66.5t66 27.5h66q39 0 66.5 -27.5t27.5 -66.5z
M104 750h-42q0 31 18 51.5t48 20.5q21 0 43 -13.5t35 -13.5q25 0 25 27h42q0 -31 -18 -51.5t-47 -20.5q-21 0 -43 14t-33 14q-28 0 -28 -28z" />
    <glyph glyph-name="Odieresis" unicode="&#xd6;" horiz-adv-x="334" 
d="M228 606q0 11 -8.5 19.5t-19.5 8.5h-66q-11 0 -19.5 -8.5t-8.5 -19.5v-512q0 -12 8.5 -20t19.5 -8h66q11 0 19.5 8t8.5 20v512zM294 606v-512q0 -39 -27.5 -66.5t-66.5 -27.5h-66q-38 0 -66 27.5t-28 66.5v512q0 39 28 66.5t66 27.5h66q39 0 66.5 -27.5t27.5 -66.5z
M196 821h60v-71h-60v71zM79 821h61v-71h-61v71z" />
    <glyph glyph-name="multiply" unicode="&#xd7;" horiz-adv-x="329" 
d="M263 510l36 -36l-98 -98l98 -99l-36 -36l-98 99l-99 -99l-36 36l98 99l-98 98l36 36l99 -98z" />
    <glyph glyph-name="Oslash" unicode="&#xd8;" horiz-adv-x="423" 
d="M343 719l40 -19l-46 -110v-496q0 -39 -27.5 -66.5t-66.5 -27.5h-66q-44 0 -73 34l-23 -53l-41 19l43 102v504q0 39 28 66.5t66 27.5h66q45 0 74 -37zM271 606q0 11 -8.5 19.5t-19.5 8.5h-66q-11 0 -19.5 -8.5t-8.5 -19.5v-202l-14 -178l136 325v55zM243 66q11 0 19.5 8
t8.5 20v209l18 171l-140 -333v-47q0 -12 8.5 -20t19.5 -8h66z" />
    <glyph glyph-name="Ugrave" unicode="&#xd9;" 
d="M106 700v-606q0 -12 8 -20t20 -8h67q11 0 19.5 8t8.5 20v606h66v-606q0 -39 -28 -66.5t-66 -27.5h-67q-39 0 -66.5 27.5t-27.5 66.5v606h66zM108 816l30 38l89 -66l-30 -38z" />
    <glyph glyph-name="Uacute" unicode="&#xda;" 
d="M106 700v-606q0 -12 8 -20t20 -8h67q11 0 19.5 8t8.5 20v606h66v-606q0 -39 -28 -66.5t-66 -27.5h-67q-39 0 -66.5 27.5t-27.5 66.5v606h66zM197 854l30 -38l-89 -66l-30 38z" />
    <glyph glyph-name="Ucircumflex" unicode="&#xdb;" 
d="M106 700v-606q0 -12 8 -20t20 -8h67q11 0 19.5 8t8.5 20v606h66v-606q0 -39 -28 -66.5t-66 -27.5h-67q-39 0 -66.5 27.5t-27.5 66.5v606h66zM101 750l-30 38l90 56h13l89 -56l-30 -38l-66 42z" />
    <glyph glyph-name="Udieresis" unicode="&#xdc;" 
d="M106 700v-606q0 -12 8 -20t20 -8h67q11 0 19.5 8t8.5 20v606h66v-606q0 -39 -28 -66.5t-66 -27.5h-67q-39 0 -66.5 27.5t-27.5 66.5v606h66zM196 821h60v-71h-60v71zM79 821h61v-71h-61v71z" />
    <glyph glyph-name="Yacute" unicode="&#xdd;" horiz-adv-x="313" 
d="M65 66h57v253l-112 381h68l77 -279l80 279h68l-115 -380v-254h57v-66h-180v66zM186 854l30 -38l-89 -66l-30 38z" />
    <glyph glyph-name="Thorn" unicode="&#xde;" horiz-adv-x="320" 
d="M40 0v700h66v-160h80q38 0 66 -27.5t28 -66.5v-214q0 -39 -24.5 -66t-63.5 -27h-86v-139h-66zM106 474v-273h76q14 0 23 11t9 25v209q0 11 -8.5 19.5t-19.5 8.5h-80z" />
    <glyph glyph-name="germandbls" unicode="&#xdf;" horiz-adv-x="425" 
d="M214 258l-49 38l118 181h-149q-13 0 -22 -9t-9 -22v-446h-63v446q0 38 27.5 66t66.5 28h221v-69l-73 -118h9q38 0 66 -27.5t28 -66.5v-168q0 -37 -26.5 -64t-64.5 -27h-45q-37 0 -64 27t-27 64v87h61v-87q0 -13 9 -21.5t21 -8.5h43q13 0 21.5 8.5t8.5 21.5v168
q0 13 -8.5 21.5t-21.5 8.5h-27q-30 0 -51 -31z" />
    <glyph glyph-name="agrave" unicode="&#xe0;" horiz-adv-x="348" 
d="M172 478l-44 -237h92l-44 237h-4zM264 0l-32 179h-115l-34 -179h-63l101 540h106l101 -540h-64zM115 662l30 38l89 -66l-30 -38z" />
    <glyph glyph-name="aacute" unicode="&#xe1;" horiz-adv-x="348" 
d="M172 478l-44 -237h92l-44 237h-4zM264 0l-32 179h-115l-34 -179h-63l101 540h106l101 -540h-64zM204 700l30 -38l-89 -66l-30 38z" />
    <glyph glyph-name="acircumflex" unicode="&#xe2;" horiz-adv-x="348" 
d="M172 478l-44 -237h92l-44 237h-4zM264 0l-32 179h-115l-34 -179h-63l101 540h106l101 -540h-64zM108 606l-30 38l90 56h13l89 -56l-30 -38l-66 42z" />
    <glyph glyph-name="atilde" unicode="&#xe3;" horiz-adv-x="348" 
d="M172 478l-44 -237h92l-44 237h-4zM264 0l-32 179h-115l-34 -179h-63l101 540h106l101 -540h-64zM111 628h-42q0 31 18 51.5t48 20.5q21 0 43 -13.5t35 -13.5q25 0 25 27h42q0 -31 -18 -51.5t-47 -20.5q-21 0 -43 14t-33 14q-28 0 -28 -28z" />
    <glyph glyph-name="adieresis" unicode="&#xe4;" horiz-adv-x="348" 
d="M172 478l-44 -237h92l-44 237h-4zM264 0l-32 179h-115l-34 -179h-63l101 540h106l101 -540h-64zM203 700h60v-71h-60v71zM86 700h61v-71h-61v71z" />
    <glyph glyph-name="aring" unicode="&#xe5;" horiz-adv-x="348" 
d="M172 478l-44 -237h92l-44 237h-4zM264 0l-32 179h-115l-34 -179h-63l101 540h106l101 -540h-64zM103 649q0 30 20.5 50.5t50.5 20.5t50.5 -20.5t20.5 -50.5t-20.5 -50.5t-50.5 -20.5t-50.5 20.5t-20.5 50.5zM139 649q0 -14 10.5 -24.5t24.5 -10.5t24.5 10.5t10.5 24.5
t-10.5 24.5t-24.5 10.5t-24.5 -10.5t-10.5 -24.5z" />
    <glyph glyph-name="ae" unicode="&#xe6;" horiz-adv-x="484" 
d="M322 477v-157h117v-62h-117v-196h132v-62h-194v178h-123l-52 -178h-65l157 540h277v-63h-132zM222 477l-69 -237h107v237h-38z" />
    <glyph glyph-name="ccedilla" unicode="&#xe7;" horiz-adv-x="316" 
d="M276 394h-63v52q0 13 -9 22t-22 9h-49q-13 0 -22 -9t-9 -22v-353q0 -13 9 -22t22 -9h49q13 0 22 9t9 22v85h63v-85q0 -38 -27.5 -65.5t-66.5 -27.5h-16v-33h4q23 0 40.5 -16.5t17.5 -40.5v-6q0 -23 -17 -41t-41 -18h-48v45h48q4 0 8 4t4 9v8q0 12 -12 12h-41v77
q-37 1 -63 28t-26 65v353q0 39 27.5 66.5t65.5 27.5h49q39 0 66.5 -27.5t27.5 -66.5v-52z" />
    <glyph glyph-name="egrave" unicode="&#xe8;" horiz-adv-x="264" 
d="M102 477v-157h117v-62h-117v-196h132v-62h-194v540h194v-63h-132zM78 662l30 38l89 -66l-30 -38z" />
    <glyph glyph-name="eacute" unicode="&#xe9;" horiz-adv-x="264" 
d="M102 477v-157h117v-62h-117v-196h132v-62h-194v540h194v-63h-132zM167 700l30 -38l-89 -66l-30 38z" />
    <glyph glyph-name="ecircumflex" unicode="&#xea;" horiz-adv-x="264" 
d="M102 477v-157h117v-62h-117v-196h132v-62h-194v540h194v-63h-132zM71 606l-30 38l90 56h13l89 -56l-30 -38l-66 42z" />
    <glyph glyph-name="edieresis" unicode="&#xeb;" horiz-adv-x="264" 
d="M102 477v-157h117v-62h-117v-196h132v-62h-194v540h194v-63h-132zM166 700h60v-71h-60v71zM49 700h61v-71h-61v71z" />
    <glyph glyph-name="igrave" unicode="&#xec;" horiz-adv-x="264" 
d="M224 477h-61v-415h61v-62h-184v62h61v415h-61v63h184v-63zM73 662l30 38l89 -66l-30 -38z" />
    <glyph glyph-name="iacute" unicode="&#xed;" horiz-adv-x="264" 
d="M224 477h-61v-415h61v-62h-184v62h61v415h-61v63h184v-63zM162 700l30 -38l-89 -66l-30 38z" />
    <glyph glyph-name="icircumflex" unicode="&#xee;" horiz-adv-x="272" 
d="M228 477h-61v-415h61v-62h-184v62h61v415h-61v63h184v-63zM70 606l-30 38l90 56h13l89 -56l-30 -38l-66 42z" />
    <glyph glyph-name="idieresis" unicode="&#xef;" horiz-adv-x="264" 
d="M224 477h-61v-415h61v-62h-184v62h61v415h-61v63h184v-63zM161 700h60v-71h-60v71zM44 700h61v-71h-61v71z" />
    <glyph glyph-name="eth" unicode="&#xf0;" 
d="M-10 264v51h50v225h161q39 0 66.5 -27.5t27.5 -66.5v-353q0 -38 -27.5 -65.5t-66.5 -27.5h-161v264h-50zM201 477h-99v-162h85v-51h-85v-202h99q13 0 22.5 9t9.5 22v353q0 13 -9.5 22t-22.5 9z" />
    <glyph glyph-name="ntilde" unicode="&#xf1;" horiz-adv-x="368" 
d="M266 540h62v-540h-86l-156 478l16 -246v-232h-62v540h86l156 -477l-16 275v202zM131 628h-42q0 31 18 51.5t48 20.5q21 0 43 -13.5t35 -13.5q25 0 25 27h42q0 -31 -18 -51.5t-47 -20.5q-21 0 -43 14t-33 14q-28 0 -28 -28z" />
    <glyph glyph-name="ograve" unicode="&#xf2;" horiz-adv-x="340" 
d="M237 93v353q0 13 -9 22t-22 9h-72q-13 0 -22 -9t-9 -22v-353q0 -13 9 -22t22 -9h72q13 0 22 9t9 22zM300 446v-353q0 -38 -27.5 -65.5t-66.5 -27.5h-72q-39 0 -66.5 27.5t-27.5 65.5v353q0 38 27.5 66t66.5 28h72q38 0 66 -27.5t28 -66.5zM111 662l30 38l89 -66l-30 -38z
" />
    <glyph glyph-name="oacute" unicode="&#xf3;" horiz-adv-x="340" 
d="M237 446v-353q0 -13 -9 -22t-22 -9h-72q-13 0 -22 9t-9 22v353q0 13 9 22t22 9h72q13 0 22 -9t9 -22zM300 446q0 39 -28 66.5t-66 27.5h-72q-39 0 -66.5 -28t-27.5 -66v-353q0 -38 27.5 -65.5t66.5 -27.5h72q39 0 66.5 27.5t27.5 65.5v353zM200 700l30 -38l-89 -66
l-30 38z" />
    <glyph glyph-name="ocircumflex" unicode="&#xf4;" horiz-adv-x="340" 
d="M237 93v353q0 13 -9 22t-22 9h-72q-13 0 -22 -9t-9 -22v-353q0 -13 9 -22t22 -9h72q13 0 22 9t9 22zM300 446v-353q0 -38 -27.5 -65.5t-66.5 -27.5h-72q-39 0 -66.5 27.5t-27.5 65.5v353q0 38 27.5 66t66.5 28h72q38 0 66 -27.5t28 -66.5zM104 606l-30 38l90 56h13
l89 -56l-30 -38l-66 42z" />
    <glyph glyph-name="otilde" unicode="&#xf5;" horiz-adv-x="340" 
d="M237 93v353q0 13 -9 22t-22 9h-72q-13 0 -22 -9t-9 -22v-353q0 -13 9 -22t22 -9h72q13 0 22 9t9 22zM300 446v-353q0 -38 -27.5 -65.5t-66.5 -27.5h-72q-39 0 -66.5 27.5t-27.5 65.5v353q0 38 27.5 66t66.5 28h72q38 0 66 -27.5t28 -66.5zM107 628h-42q0 31 18 51.5
t48 20.5q21 0 43 -13.5t35 -13.5q25 0 25 27h42q0 -31 -18 -51.5t-47 -20.5q-21 0 -43 14t-33 14q-28 0 -28 -28z" />
    <glyph glyph-name="odieresis" unicode="&#xf6;" horiz-adv-x="340" 
d="M237 93v353q0 13 -9 22t-22 9h-72q-13 0 -22 -9t-9 -22v-353q0 -13 9 -22t22 -9h72q13 0 22 9t9 22zM300 446v-353q0 -38 -27.5 -65.5t-66.5 -27.5h-72q-39 0 -66.5 27.5t-27.5 65.5v353q0 38 27.5 66t66.5 28h72q38 0 66 -27.5t28 -66.5zM199 700h60v-71h-60v71zM82 700
h61v-71h-61v71z" />
    <glyph glyph-name="divide" unicode="&#xf7;" horiz-adv-x="429" 
d="M399 401h-369v-54h369v54zM169 469v71h71v-71h-71zM169 211v71h71v-71h-71z" />
    <glyph glyph-name="oslash" unicode="&#xf8;" horiz-adv-x="412" 
d="M334 446v-353q0 -38 -27.5 -65.5t-66.5 -27.5h-72q-37 0 -62 23l-24 -46l-42 23l36 71q-2 7 -2 22v353q0 38 27.5 66t66.5 28h72q36 0 64 -26l26 49l42 -23l-40 -77q2 -12 2 -17zM240 477h-72q-13 0 -22 -9t-9 -22v-148l-17 -143l151 293q-1 12 -10 20.5t-21 8.5zM168 62
h72q13 0 22 9t9 22v98l17 186l-150 -292q2 -10 11 -16.5t19 -6.5z" />
    <glyph glyph-name="ugrave" unicode="&#xf9;" horiz-adv-x="341" 
d="M40 540h62v-447q0 -13 9.5 -22t22.5 -9h73q13 0 22.5 9t9.5 22v447h62v-447q0 -38 -27.5 -65.5t-66.5 -27.5h-73q-39 0 -66.5 27.5t-27.5 65.5v447zM111 662l30 38l89 -66l-30 -38z" />
    <glyph glyph-name="uacute" unicode="&#xfa;" horiz-adv-x="341" 
d="M40 540h62v-447q0 -13 9.5 -22t22.5 -9h73q13 0 22.5 9t9.5 22v447h62v-447q0 -38 -27.5 -65.5t-66.5 -27.5h-73q-39 0 -66.5 27.5t-27.5 65.5v447zM200 700l30 -38l-89 -66l-30 38z" />
    <glyph glyph-name="ucircumflex" unicode="&#xfb;" horiz-adv-x="341" 
d="M40 540h62v-447q0 -13 9.5 -22t22.5 -9h73q13 0 22.5 9t9.5 22v447h62v-447q0 -38 -27.5 -65.5t-66.5 -27.5h-73q-39 0 -66.5 27.5t-27.5 65.5v447zM104 606l-30 38l90 56h13l89 -56l-30 -38l-66 42z" />
    <glyph glyph-name="udieresis" unicode="&#xfc;" horiz-adv-x="341" 
d="M40 540h62v-447q0 -13 9.5 -22t22.5 -9h73q13 0 22.5 9t9.5 22v447h62v-447q0 -38 -27.5 -65.5t-66.5 -27.5h-73q-39 0 -66.5 27.5t-27.5 65.5v447zM199 700h60v-71h-60v71zM82 700h61v-71h-61v71z" />
    <glyph glyph-name="yacute" unicode="&#xfd;" horiz-adv-x="321" 
d="M70 0v62h60v196h-11l-109 282h67l81 -220h7l79 220h67l-107 -282h-11v-196h61v-62h-184zM190 700l30 -38l-89 -66l-30 38z" />
    <glyph glyph-name="thorn" unicode="&#xfe;" horiz-adv-x="325" 
d="M285 363v-154q0 -38 -27.5 -65.5t-66.5 -27.5h-89v-116h-62v540h62v-83h89q39 0 66.5 -27.5t27.5 -66.5zM102 178h89q13 0 22 9t9 22v154q0 13 -9 22t-22 9h-89v-216z" />
    <glyph glyph-name="ydieresis" unicode="&#xff;" horiz-adv-x="321" 
d="M70 0v62h60v196h-11l-109 282h67l81 -220h7l79 220h67l-107 -282h-11v-196h61v-62h-184zM189 700h60v-71h-60v71zM72 700h61v-71h-61v71z" />
    <glyph glyph-name="Amacron" unicode="&#x100;" horiz-adv-x="349" 
d="M87 0h-67l95 700h119l95 -700h-66l-30 206h-117zM177 635h-5l-49 -368h103zM79 814h191v-51h-191v51z" />
    <glyph glyph-name="amacron" unicode="&#x101;" horiz-adv-x="348" 
d="M172 478l-44 -237h92l-44 237h-4zM264 0l-32 179h-115l-34 -179h-63l101 540h106l101 -540h-64zM79 700h191v-51h-191v51z" />
    <glyph glyph-name="Abreve" unicode="&#x102;" horiz-adv-x="349" 
d="M87 0h-67l95 700h119l95 -700h-66l-30 206h-117zM177 635h-5l-49 -368h103zM74 828h49v-11q0 -8 6 -14.5t14 -6.5h62q8 0 14 6.5t6 14.5v11h49v-8q0 -30 -19 -50t-49 -20h-64q-30 0 -49 20t-19 50v8z" />
    <glyph glyph-name="abreve" unicode="&#x103;" horiz-adv-x="348" 
d="M172 478l-44 -237h92l-44 237h-4zM264 0l-32 179h-115l-34 -179h-63l101 540h106l101 -540h-64zM74 700h49v-11q0 -8 6 -14.5t14 -6.5h62q8 0 14 6.5t6 14.5v11h49v-8q0 -30 -19 -50t-49 -20h-64q-30 0 -49 20t-19 50v8z" />
    <glyph glyph-name="Aogonek" unicode="&#x104;" horiz-adv-x="350" 
d="M292 -80q0 -15 15 -15h23v-44h-39q-23 0 -35.5 15t-12.5 36q0 42 39 88h-19l-30 206h-117l-29 -206h-67l95 700h119l95 -700q-37 -45 -37 -80zM177 635h-5l-49 -368h103z" />
    <glyph glyph-name="aogonek" unicode="&#x105;" horiz-adv-x="349" 
d="M264 0l-32 179h-115l-34 -179h-63l101 540h106l101 -540q-37 -45 -37 -80q0 -15 15 -15h23v-44h-39q-23 0 -35.5 15t-12.5 36q0 42 39 88h-17zM172 478l-44 -237h92l-44 237h-4z" />
    <glyph glyph-name="Cacute" unicode="&#x106;" horiz-adv-x="311" 
d="M205 528v78q0 11 -8 19.5t-20 8.5h-43q-11 0 -19.5 -8.5t-8.5 -19.5v-512q0 -12 8.5 -20t19.5 -8h43q11 0 19.5 8t8.5 20v107h66v-107q0 -39 -27.5 -66.5t-66.5 -27.5h-43q-38 0 -66 27.5t-28 66.5v512q0 39 28 66.5t66 27.5h43q39 0 66.5 -27.5t27.5 -66.5v-78h-66z
M185 854l30 -38l-89 -66l-30 38z" />
    <glyph glyph-name="cacute" unicode="&#x107;" horiz-adv-x="316" 
d="M276 394h-63v52q0 13 -9 22t-22 9h-49q-13 0 -22 -9t-9 -22v-353q0 -13 9 -22t22 -9h49q13 0 22 9t9 22v85h63v-85q0 -38 -27.5 -65.5t-66.5 -27.5h-49q-38 0 -65.5 27.5t-27.5 65.5v353q0 39 27.5 66.5t65.5 27.5h49q39 0 66.5 -27.5t27.5 -66.5v-52zM188 700l30 -38
l-89 -66l-30 38z" />
    <glyph glyph-name="Ccircumflex" unicode="&#x108;" horiz-adv-x="311" 
d="M205 528v78q0 11 -8 19.5t-20 8.5h-43q-11 0 -19.5 -8.5t-8.5 -19.5v-512q0 -12 8.5 -20t19.5 -8h43q11 0 19.5 8t8.5 20v107h66v-107q0 -39 -27.5 -66.5t-66.5 -27.5h-43q-38 0 -66 27.5t-28 66.5v512q0 39 28 66.5t66 27.5h43q39 0 66.5 -27.5t27.5 -66.5v-78h-66z
M89 750l-30 38l90 56h13l89 -56l-30 -38l-66 42z" />
    <glyph glyph-name="ccircumflex" unicode="&#x109;" horiz-adv-x="316" 
d="M276 394h-63v52q0 13 -9 22t-22 9h-49q-13 0 -22 -9t-9 -22v-353q0 -13 9 -22t22 -9h49q13 0 22 9t9 22v85h63v-85q0 -38 -27.5 -65.5t-66.5 -27.5h-49q-38 0 -65.5 27.5t-27.5 65.5v353q0 39 27.5 66.5t65.5 27.5h49q39 0 66.5 -27.5t27.5 -66.5v-52zM93 606l-30 38
l90 56h13l89 -56l-30 -38l-66 42z" />
    <glyph glyph-name="Cdotaccent" unicode="&#x10a;" horiz-adv-x="311" 
d="M205 528v78q0 11 -8 19.5t-20 8.5h-43q-11 0 -19.5 -8.5t-8.5 -19.5v-512q0 -12 8.5 -20t19.5 -8h43q11 0 19.5 8t8.5 20v107h66v-107q0 -39 -27.5 -66.5t-66.5 -27.5h-43q-38 0 -66 27.5t-28 66.5v512q0 39 28 66.5t66 27.5h43q39 0 66.5 -27.5t27.5 -66.5v-78h-66z
M125 821h61v-71h-61v71z" />
    <glyph glyph-name="cdotaccent" unicode="&#x10b;" horiz-adv-x="316" 
d="M276 394h-63v52q0 13 -9 22t-22 9h-49q-13 0 -22 -9t-9 -22v-353q0 -13 9 -22t22 -9h49q13 0 22 9t9 22v85h63v-85q0 -38 -27.5 -65.5t-66.5 -27.5h-49q-38 0 -65.5 27.5t-27.5 65.5v353q0 39 27.5 66.5t65.5 27.5h49q39 0 66.5 -27.5t27.5 -66.5v-52zM128 700h61v-71
h-61v71z" />
    <glyph glyph-name="Ccaron" unicode="&#x10c;" horiz-adv-x="311" 
d="M205 528v78q0 11 -8 19.5t-20 8.5h-43q-11 0 -19.5 -8.5t-8.5 -19.5v-512q0 -12 8.5 -20t19.5 -8h43q11 0 19.5 8t8.5 20v107h66v-107q0 -39 -27.5 -66.5t-66.5 -27.5h-43q-38 0 -66 27.5t-28 66.5v512q0 39 28 66.5t66 27.5h43q39 0 66.5 -27.5t27.5 -66.5v-78h-66z
M59 806l30 38l66 -42l66 42l30 -38l-89 -56h-13z" />
    <glyph glyph-name="ccaron" unicode="&#x10d;" horiz-adv-x="316" 
d="M276 394h-63v52q0 13 -9 22t-22 9h-49q-13 0 -22 -9t-9 -22v-353q0 -13 9 -22t22 -9h49q13 0 22 9t9 22v85h63v-85q0 -38 -27.5 -65.5t-66.5 -27.5h-49q-38 0 -65.5 27.5t-27.5 65.5v353q0 39 27.5 66.5t65.5 27.5h49q39 0 66.5 -27.5t27.5 -66.5v-52zM62 662l30 38
l66 -42l66 42l30 -38l-89 -56h-13z" />
    <glyph glyph-name="Dcaron" unicode="&#x10e;" horiz-adv-x="329" 
d="M40 700h156q38 0 65.5 -27.5t27.5 -66.5v-512q0 -39 -27.5 -66.5t-65.5 -27.5h-156v700zM106 634v-568h90q11 0 19 8t8 20v512q0 11 -8 19.5t-19 8.5h-90zM48 806l30 38l66 -42l66 42l30 -38l-89 -56h-13z" />
    <glyph glyph-name="dcaron" unicode="&#x10f;" 
d="M102 477h99q13 0 22.5 -9t9.5 -22v-353q0 -13 -9.5 -22t-22.5 -9h-99v415zM40 540v-540h161q39 0 66.5 27.5t27.5 65.5v353q0 39 -27.5 66.5t-66.5 27.5h-161zM55 662l30 38l66 -42l66 42l30 -38l-89 -56h-13z" />
    <glyph glyph-name="Dcroat" unicode="&#x110;" horiz-adv-x="359" 
d="M20 352v51h50v297h156q38 0 65.5 -27.5t27.5 -66.5v-512q0 -39 -27.5 -66.5t-65.5 -27.5h-156v352h-50zM136 634v-231h81v-51h-81v-286h90q11 0 19 8t8 20v512q0 11 -8 19.5t-19 8.5h-90z" />
    <glyph glyph-name="dcroat" unicode="&#x111;" horiz-adv-x="365" 
d="M20 264v51h50v225h161q39 0 66.5 -27.5t27.5 -66.5v-353q0 -38 -27.5 -65.5t-66.5 -27.5h-161v264h-50zM231 477h-99v-162h85v-51h-85v-202h99q13 0 22.5 9t9.5 22v353q0 13 -9.5 22t-22.5 9z" />
    <glyph glyph-name="Emacron" unicode="&#x112;" horiz-adv-x="261" 
d="M231 634h-125v-226h109v-61h-109v-281h124v-66h-190v700h191v-66zM40 814h191v-51h-191v51z" />
    <glyph glyph-name="emacron" unicode="&#x113;" horiz-adv-x="264" 
d="M102 477v-157h117v-62h-117v-196h132v-62h-194v540h194v-63h-132zM42 700h191v-51h-191v51z" />
    <glyph glyph-name="Ebreve" unicode="&#x114;" horiz-adv-x="270" 
d="M236 634h-125v-226h109v-61h-109v-281h124v-66h-190v700h191v-66zM40 828h49v-11q0 -8 6 -14.5t14 -6.5h62q8 0 14 6.5t6 14.5v11h49v-8q0 -30 -19 -50t-49 -20h-64q-30 0 -49 20t-19 50v8z" />
    <glyph glyph-name="ebreve" unicode="&#x115;" horiz-adv-x="270" 
d="M106 477v-157h117v-62h-117v-196h132v-62h-194v540h194v-63h-132zM40 700h49v-11q0 -8 6 -14.5t14 -6.5h62q8 0 14 6.5t6 14.5v11h49v-8q0 -30 -19 -50t-49 -20h-64q-30 0 -49 20t-19 50v8z" />
    <glyph glyph-name="Edotaccent" unicode="&#x116;" horiz-adv-x="261" 
d="M231 634h-125v-226h109v-61h-109v-281h124v-66h-190v700h191v-66zM105 821h61v-71h-61v71z" />
    <glyph glyph-name="edotaccent" unicode="&#x117;" horiz-adv-x="264" 
d="M102 477v-157h117v-62h-117v-196h132v-62h-194v540h194v-63h-132zM107 700h61v-71h-61v71z" />
    <glyph glyph-name="Eogonek" unicode="&#x118;" horiz-adv-x="262" 
d="M194 -80q0 -15 15 -15h23v-44h-39q-23 0 -35.5 15t-12.5 36q0 42 39 88h-144v700h191v-66h-125v-226h109v-61h-109v-281h124v-66h1q-37 -45 -37 -80z" />
    <glyph glyph-name="eogonek" unicode="&#x119;" horiz-adv-x="265" 
d="M197 -80q0 -15 15 -15h23v-44h-39q-23 0 -35.5 15t-12.5 36q0 42 39 88h-147v540h194v-63h-132v-157h117v-62h-117v-196h132v-62q-37 -45 -37 -80z" />
    <glyph glyph-name="Ecaron" unicode="&#x11a;" horiz-adv-x="266" 
d="M231 634h-125v-226h109v-61h-109v-281h124v-66h-190v700h191v-66zM44 806l30 38l66 -42l66 42l30 -38l-89 -56h-13z" />
    <glyph glyph-name="ecaron" unicode="&#x11b;" horiz-adv-x="264" 
d="M102 477v-157h117v-62h-117v-196h132v-62h-194v540h194v-63h-132zM41 662l30 38l66 -42l66 42l30 -38l-89 -56h-13z" />
    <glyph glyph-name="Gcircumflex" unicode="&#x11c;" horiz-adv-x="311" 
d="M205 528v78q0 11 -8 19.5t-20 8.5h-43q-11 0 -19.5 -8.5t-8.5 -19.5v-512q0 -12 8.5 -20t19.5 -8h43q11 0 19.5 8t8.5 20v192h-43v61h109v-253q0 -39 -27.5 -66.5t-66.5 -27.5h-43q-39 0 -66.5 27.5t-27.5 66.5v512q0 38 28 66t66 28h43q39 0 66.5 -27.5t27.5 -66.5v-78
h-66zM89 750l-30 38l90 56h13l89 -56l-30 -38l-66 42z" />
    <glyph glyph-name="gcircumflex" unicode="&#x11d;" horiz-adv-x="316" 
d="M276 394h-62v52q0 13 -9 22t-22 9h-49q-13 0 -22 -9t-9 -22v-353q0 -13 9 -22t22 -9h49q13 0 22 9t9 22v103h-49v62h111v-165q0 -38 -27.5 -65.5t-65.5 -27.5h-49q-39 0 -66.5 27.5t-27.5 65.5v353q0 39 27.5 66.5t66.5 27.5h49q38 0 65.5 -27.5t27.5 -66.5v-52zM92 606
l-30 38l90 56h13l89 -56l-30 -38l-66 42z" />
    <glyph glyph-name="Gbreve" unicode="&#x11e;" horiz-adv-x="311" 
d="M205 528v78q0 11 -8 19.5t-20 8.5h-43q-11 0 -19.5 -8.5t-8.5 -19.5v-512q0 -12 8.5 -20t19.5 -8h43q11 0 19.5 8t8.5 20v192h-43v61h109v-253q0 -39 -27.5 -66.5t-66.5 -27.5h-43q-39 0 -66.5 27.5t-27.5 66.5v512q0 38 28 66t66 28h43q39 0 66.5 -27.5t27.5 -66.5v-78
h-66zM55 828h49v-11q0 -8 6 -14.5t14 -6.5h62q8 0 14 6.5t6 14.5v11h49v-8q0 -30 -19 -50t-49 -20h-64q-30 0 -49 20t-19 50v8z" />
    <glyph glyph-name="gbreve" unicode="&#x11f;" horiz-adv-x="316" 
d="M276 394h-62v52q0 13 -9 22t-22 9h-49q-13 0 -22 -9t-9 -22v-353q0 -13 9 -22t22 -9h49q13 0 22 9t9 22v103h-49v62h111v-165q0 -38 -27.5 -65.5t-65.5 -27.5h-49q-39 0 -66.5 27.5t-27.5 65.5v353q0 39 27.5 66.5t66.5 27.5h49q38 0 65.5 -27.5t27.5 -66.5v-52zM58 700
h49v-11q0 -8 6 -14.5t14 -6.5h62q8 0 14 6.5t6 14.5v11h49v-8q0 -30 -19 -50t-49 -20h-64q-30 0 -49 20t-19 50v8z" />
    <glyph glyph-name="Gdotaccent" unicode="&#x120;" horiz-adv-x="311" 
d="M205 528v78q0 11 -8 19.5t-20 8.5h-43q-11 0 -19.5 -8.5t-8.5 -19.5v-512q0 -12 8.5 -20t19.5 -8h43q11 0 19.5 8t8.5 20v192h-43v61h109v-253q0 -39 -27.5 -66.5t-66.5 -27.5h-43q-39 0 -66.5 27.5t-27.5 66.5v512q0 38 28 66t66 28h43q39 0 66.5 -27.5t27.5 -66.5v-78
h-66zM125 821h61v-71h-61v71z" />
    <glyph glyph-name="gdotaccent" unicode="&#x121;" horiz-adv-x="316" 
d="M276 394h-62v52q0 13 -9 22t-22 9h-49q-13 0 -22 -9t-9 -22v-353q0 -13 9 -22t22 -9h49q13 0 22 9t9 22v103h-49v62h111v-165q0 -38 -27.5 -65.5t-65.5 -27.5h-49q-39 0 -66.5 27.5t-27.5 65.5v353q0 39 27.5 66.5t66.5 27.5h49q38 0 65.5 -27.5t27.5 -66.5v-52zM128 700
h61v-71h-61v71z" />
    <glyph glyph-name="Gcommaaccent" unicode="&#x122;" horiz-adv-x="311" 
d="M205 528v78q0 11 -8 19.5t-20 8.5h-43q-11 0 -19.5 -8.5t-8.5 -19.5v-512q0 -12 8.5 -20t19.5 -8h43q11 0 19.5 8t8.5 20v192h-43v61h109v-253q0 -39 -27.5 -66.5t-66.5 -27.5h-43q-39 0 -66.5 27.5t-27.5 66.5v512q0 38 28 66t66 28h43q39 0 66.5 -27.5t27.5 -66.5v-78
h-66zM185 -32h-60v-61h22l-22 -62h23l37 62v61z" />
    <glyph glyph-name="gcommaaccent" unicode="&#x123;" horiz-adv-x="316" 
d="M276 394h-62v52q0 13 -9 22t-22 9h-49q-13 0 -22 -9t-9 -22v-353q0 -13 9 -22t22 -9h49q13 0 22 9t9 22v103h-49v62h111v-165q0 -38 -27.5 -65.5t-65.5 -27.5h-49q-39 0 -66.5 27.5t-27.5 65.5v353q0 39 27.5 66.5t66.5 27.5h49q38 0 65.5 -27.5t27.5 -66.5v-52zM128 -32
h60v-61l-37 -62h-23l22 62h-22v61z" />
    <glyph glyph-name="Hcircumflex" unicode="&#x124;" 
d="M295 700v-700h-66v347h-123v-347h-66v700h66v-292h123v292h66zM101 750l-30 38l90 56h13l89 -56l-30 -38l-66 42z" />
    <glyph glyph-name="hcircumflex" unicode="&#x125;" horiz-adv-x="341" 
d="M239 540h62v-540h-62v258h-137v-258h-62v540h62v-220h137v220zM104 606l-30 38l90 56h13l89 -56l-30 -38l-66 42z" />
    <glyph glyph-name="Hbar" unicode="&#x126;" 
d="M295 700v-700h-66v296h-123v-296h-66v700h66v-180h123v180h66zM106 357h123v102h-123v-102z" />
    <glyph glyph-name="hbar" unicode="&#x127;" horiz-adv-x="341" 
d="M239 540h62v-540h-62v206h-137v-206h-62v540h62v-128h137v128zM102 268h137v82h-137v-82z" />
    <glyph glyph-name="Itilde" unicode="&#x128;" horiz-adv-x="291" 
d="M235 634h-57v-568h57v-66h-180v66h57v568h-57v66h180v-66zM82 750h-42q0 31 18 51.5t48 20.5q21 0 43 -13.5t35 -13.5q25 0 25 27h42q0 -31 -18 -51.5t-47 -20.5q-21 0 -43 14t-33 14q-28 0 -28 -28z" />
    <glyph glyph-name="itilde" unicode="&#x129;" horiz-adv-x="291" 
d="M237 477h-61v-415h61v-62h-184v62h61v415h-61v63h184v-63zM82 628h-42q0 31 18 51.5t48 20.5q21 0 43 -13.5t35 -13.5q25 0 25 27h42q0 -31 -18 -51.5t-47 -20.5q-21 0 -43 14t-33 14q-28 0 -28 -28z" />
    <glyph glyph-name="Imacron" unicode="&#x12a;" horiz-adv-x="271" 
d="M225 634h-57v-568h57v-66h-180v66h57v568h-57v66h180v-66zM40 814h191v-51h-191v51z" />
    <glyph glyph-name="imacron" unicode="&#x12b;" horiz-adv-x="271" 
d="M227 477h-61v-415h61v-62h-184v62h61v415h-61v63h184v-63zM40 700h191v-51h-191v51z" />
    <glyph glyph-name="Ibreve" unicode="&#x12c;" horiz-adv-x="280" 
d="M230 634h-57v-568h57v-66h-180v66h57v568h-57v66h180v-66zM40 828h49v-11q0 -8 6 -14.5t14 -6.5h62q8 0 14 6.5t6 14.5v11h49v-8q0 -30 -19 -50t-49 -20h-64q-30 0 -49 20t-19 50v8z" />
    <glyph glyph-name="ibreve" unicode="&#x12d;" horiz-adv-x="280" 
d="M232 477h-61v-415h61v-62h-184v62h61v415h-61v63h184v-63zM40 700h49v-11q0 -8 6 -14.5t14 -6.5h62q8 0 14 6.5t6 14.5v11h49v-8q0 -30 -19 -50t-49 -20h-64q-30 0 -49 20t-19 50v8z" />
    <glyph glyph-name="Iogonek" unicode="&#x12e;" horiz-adv-x="260" 
d="M126 -80q0 -15 15 -15h23v-44h-39q-23 0 -35.5 15t-12.5 36q0 42 39 88h-76v66h57v568h-57v66h180v-66h-57v-568h57v-66h-57q-37 -45 -37 -80z" />
    <glyph glyph-name="iogonek" unicode="&#x12f;" horiz-adv-x="264" 
d="M131 -80q0 -15 15 -15h23v-44h-39q-23 0 -35.5 15t-12.5 36q0 42 39 88h-81v62h61v415h-61v63h184v-63h-61v-415h61v-62h-56q-37 -45 -37 -80z" />
    <glyph glyph-name="Idotaccent" unicode="&#x130;" horiz-adv-x="260" 
d="M220 634h-57v-568h57v-66h-180v66h57v568h-57v66h180v-66zM100 821h61v-71h-61v71z" />
    <glyph glyph-name="dotlessi" unicode="&#x131;" horiz-adv-x="264" 
d="M102 700h61v-71h-61v71zM224 477h-61v-415h61v-62h-184v62h61v415h-61v63h184v-63z" />
    <glyph glyph-name="Jcircumflex" unicode="&#x134;" horiz-adv-x="318" 
d="M91 201v-107q0 -12 8.5 -20t19.5 -8h43q12 0 20 8t8 20v540h-94v66h160v-606q0 -39 -27.5 -66.5t-66.5 -27.5h-43q-38 0 -66 27.5t-28 66.5v107h66zM116 750l-30 38l90 56h13l89 -56l-30 -38l-66 42z" />
    <glyph glyph-name="jcircumflex" unicode="&#x135;" horiz-adv-x="323" 
d="M25 178h63v-85q0 -13 9 -22t22 -9h49q13 0 22 9t9 22v384h-96v63h158v-447q0 -38 -27.5 -65.5t-65.5 -27.5h-49q-39 0 -66.5 27.5t-27.5 65.5v85zM121 606l-30 38l90 56h13l89 -56l-30 -38l-66 42z" />
    <glyph glyph-name="Kcommaaccent" unicode="&#x136;" horiz-adv-x="304" 
d="M106 700v-292h25l90 292h68l-103 -312l102 -388h-68l-91 347h-23v-347h-66v700h66zM187 -32h-60v-61h22l-22 -62h23l37 62v61z" />
    <glyph glyph-name="kcommaaccent" unicode="&#x137;" horiz-adv-x="312" 
d="M40 540h62v-220h28l100 220h67l-113 -252l112 -288h-66l-102 258h-26v-258h-62v540zM132 -32h60v-61l-37 -62h-23l22 62h-22v61z" />
    <glyph glyph-name="kgreenlandic" unicode="&#x138;" horiz-adv-x="312" 
d="M40 540h62v-220h28l100 220h67l-113 -252l112 -288h-66l-102 258h-26v-258h-62v540z" />
    <glyph glyph-name="Lacute" unicode="&#x139;" horiz-adv-x="260" 
d="M106 700v-634h124v-66h-190v700h66zM136 854l30 -38l-89 -66l-30 38z" />
    <glyph glyph-name="lacute" unicode="&#x13a;" horiz-adv-x="265" 
d="M103 540h-63v-540h195v62h-132v478zM133 700l30 -38l-89 -66l-30 38z" />
    <glyph glyph-name="Lcommaaccent" unicode="&#x13b;" horiz-adv-x="260" 
d="M106 700v-634h124v-66h-190v700h66zM172 -32h-60v-61h22l-22 -62h23l37 62v61z" />
    <glyph glyph-name="lcommaaccent" unicode="&#x13c;" horiz-adv-x="265" 
d="M40 540h63v-478h132v-62h-195v540zM113 -32h60v-61l-37 -62h-23l22 62h-22v61z" />
    <glyph glyph-name="Lcaron" unicode="&#x13d;" horiz-adv-x="260" 
d="M106 700v-634h124v-66h-190v700h66zM230 700h-60v-61h22l-22 -62h23l37 62v61z" />
    <glyph glyph-name="lcaron" unicode="&#x13e;" horiz-adv-x="265" 
d="M40 540h63v-478h132v-62h-195v540zM175 540h60v-61l-37 -62h-23l22 62h-22v61z" />
    <glyph glyph-name="Ldot" unicode="&#x13f;" horiz-adv-x="260" 
d="M106 700v-634h124v-66h-190v700h66zM230 540h-60v-71h60v71z" />
    <glyph glyph-name="ldot" unicode="&#x140;" horiz-adv-x="265" 
d="M40 540h63v-478h132v-62h-195v540zM175 410h60v-71h-60v71z" />
    <glyph glyph-name="Lslash" unicode="&#x141;" horiz-adv-x="303" 
d="M149 700v-266l48 23l22 -46l-70 -34v-311h124v-66h-190v345l-41 -19l-22 46l63 30v298h66z" />
    <glyph glyph-name="lslash" unicode="&#x142;" horiz-adv-x="310" 
d="M42 225l-22 46l65 31v238h63v-208l49 24l22 -46l-71 -34v-214h132v-62h-195v245z" />
    <glyph glyph-name="Nacute" unicode="&#x143;" horiz-adv-x="362" 
d="M216 854l30 -38l-89 -66l-30 38zM268 111l10 2l-22 349v238h66v-700h-85l-143 599l-10 -2l22 -359v-238h-66v700h85z" />
    <glyph glyph-name="nacute" unicode="&#x144;" horiz-adv-x="368" 
d="M266 540h62v-540h-86l-156 478l16 -246v-232h-62v540h86l156 -477l-16 275v202zM224 700l30 -38l-89 -66l-30 38z" />
    <glyph glyph-name="Ncommaaccent" unicode="&#x145;" horiz-adv-x="362" 
d="M216 -32h-60v-61h22l-22 -62h23l37 62v61zM268 111l10 2l-22 349v238h66v-700h-85l-143 599l-10 -2l22 -359v-238h-66v700h85z" />
    <glyph glyph-name="ncommaaccent" unicode="&#x146;" horiz-adv-x="368" 
d="M266 540h62v-540h-86l-156 478l16 -246v-232h-62v540h86l156 -477l-16 275v202zM224 -32h-60v-61h22l-22 -62h23l37 62v61z" />
    <glyph glyph-name="Ncaron" unicode="&#x147;" horiz-adv-x="362" 
d="M90 806l30 38l66 -42l66 42l30 -38l-89 -56h-13zM268 111l10 2l-22 349v238h66v-700h-85l-143 599l-10 -2l22 -359v-238h-66v700h85z" />
    <glyph glyph-name="ncaron" unicode="&#x148;" horiz-adv-x="368" 
d="M266 540h62v-540h-86l-156 478l16 -246v-232h-62v540h86l156 -477l-16 275v202zM98 662l30 38l66 -42l66 42l30 -38l-89 -56h-13z" />
    <glyph glyph-name="napostrophe" unicode="&#x149;" horiz-adv-x="408" 
d="M306 540h62v-540h-86l-156 478l16 -246v-232h-62v540h86l156 -477l-16 275v202zM40 700h60v-61l-37 -62h-23l22 62h-22v61z" />
    <glyph glyph-name="Eng" unicode="&#x14a;" horiz-adv-x="362" 
d="M256 511v189h66v-761q0 -39 -27.5 -66.5t-66.5 -27.5h-43v66h43q12 0 20 8t8 20v61l-170 609l20 -371v-238h-66v700h85l149 -542z" />
    <glyph glyph-name="eng" unicode="&#x14b;" horiz-adv-x="368" 
d="M266 0l-180 478l16 -246v-232h-62v540h86l156 -417l-16 258v159h62v-548q0 -38 -27.5 -65.5t-65.5 -27.5h-49v62h49q13 0 22 9t9 22v8z" />
    <glyph glyph-name="Omacron" unicode="&#x14c;" horiz-adv-x="334" 
d="M228 606q0 11 -8.5 19.5t-19.5 8.5h-66q-11 0 -19.5 -8.5t-8.5 -19.5v-512q0 -12 8.5 -20t19.5 -8h66q11 0 19.5 8t8.5 20v512zM294 606v-512q0 -39 -27.5 -66.5t-66.5 -27.5h-66q-38 0 -66 27.5t-28 66.5v512q0 39 28 66.5t66 27.5h66q39 0 66.5 -27.5t27.5 -66.5z
M72 814h191v-51h-191v51z" />
    <glyph glyph-name="omacron" unicode="&#x14d;" horiz-adv-x="340" 
d="M237 93v353q0 13 -9 22t-22 9h-72q-13 0 -22 -9t-9 -22v-353q0 -13 9 -22t22 -9h72q13 0 22 9t9 22zM300 446v-353q0 -38 -27.5 -65.5t-66.5 -27.5h-72q-39 0 -66.5 27.5t-27.5 65.5v353q0 38 27.5 66t66.5 28h72q38 0 66 -27.5t28 -66.5zM75 700h191v-51h-191v51z" />
    <glyph glyph-name="Obreve" unicode="&#x14e;" horiz-adv-x="334" 
d="M228 606q0 11 -8.5 19.5t-19.5 8.5h-66q-11 0 -19.5 -8.5t-8.5 -19.5v-512q0 -12 8.5 -20t19.5 -8h66q11 0 19.5 8t8.5 20v512zM294 606v-512q0 -39 -27.5 -66.5t-66.5 -27.5h-66q-38 0 -66 27.5t-28 66.5v512q0 39 28 66.5t66 27.5h66q39 0 66.5 -27.5t27.5 -66.5z
M67 828h49v-11q0 -8 6 -14.5t14 -6.5h62q8 0 14 6.5t6 14.5v11h49v-8q0 -30 -19 -50t-49 -20h-64q-30 0 -49 20t-19 50v8z" />
    <glyph glyph-name="obreve" unicode="&#x14f;" horiz-adv-x="340" 
d="M237 93v353q0 13 -9 22t-22 9h-72q-13 0 -22 -9t-9 -22v-353q0 -13 9 -22t22 -9h72q13 0 22 9t9 22zM300 446v-353q0 -38 -27.5 -65.5t-66.5 -27.5h-72q-39 0 -66.5 27.5t-27.5 65.5v353q0 38 27.5 66t66.5 28h72q38 0 66 -27.5t28 -66.5zM70 700h49v-11q0 -8 6 -14.5
t14 -6.5h62q8 0 14 6.5t6 14.5v11h49v-8q0 -30 -19 -50t-49 -20h-64q-30 0 -49 20t-19 50v8z" />
    <glyph glyph-name="Ohungarumlaut" unicode="&#x150;" horiz-adv-x="334" 
d="M228 606q0 11 -8.5 19.5t-19.5 8.5h-66q-11 0 -19.5 -8.5t-8.5 -19.5v-512q0 -12 8.5 -20t19.5 -8h66q11 0 19.5 8t8.5 20v512zM294 606v-512q0 -39 -27.5 -66.5t-66.5 -27.5h-66q-38 0 -66 27.5t-28 66.5v512q0 39 28 66.5t66 27.5h66q39 0 66.5 -27.5t27.5 -66.5z
M138 854l30 -38l-89 -66l-30 38zM256 854l30 -38l-89 -66l-30 38z" />
    <glyph glyph-name="ohungarumlaut" unicode="&#x151;" horiz-adv-x="340" 
d="M237 446v-353q0 -13 -9 -22t-22 -9h-72q-13 0 -22 9t-9 22v353q0 13 9 22t22 9h72q13 0 22 -9t9 -22zM300 446q0 39 -28 66.5t-66 27.5h-72q-39 0 -66.5 -28t-27.5 -66v-353q0 -38 27.5 -65.5t66.5 -27.5h72q39 0 66.5 27.5t27.5 65.5v353zM141 700l30 -38l-89 -66
l-30 38zM259 700l30 -38l-89 -66l-30 38z" />
    <glyph glyph-name="OE" unicode="&#x152;" horiz-adv-x="449" 
d="M134 700h285v-66h-124v-226h109v-61h-109v-281h124v-66h-285q-38 0 -66 27.5t-28 66.5v512q0 39 28 66.5t66 27.5zM134 66h94v568h-94q-11 0 -19.5 -8.5t-8.5 -19.5v-512q0 -12 8.5 -20t19.5 -8z" />
    <glyph glyph-name="oe" unicode="&#x153;" horiz-adv-x="461" 
d="M299 477v-157h117v-62h-117v-196h132v-62h-297q-39 0 -66.5 27.5t-27.5 65.5v353q0 38 27.5 66t66.5 28h297v-63h-132zM237 62v415h-103q-13 0 -22 -9t-9 -22v-353q0 -13 9 -22t22 -9h103z" />
    <glyph glyph-name="Racute" unicode="&#x154;" horiz-adv-x="323" 
d="M106 408h51q60 0 60 64v134q0 11 -8.5 19.5t-19.5 8.5h-83v-226zM40 700h149q38 0 66 -28t28 -66v-138q0 -63 -59 -91q59 -13 59 -75v-302h-66v297q0 50 -50 50h-61v-347h-66v700zM190 854l30 -38l-89 -66l-30 38z" />
    <glyph glyph-name="racute" unicode="&#x155;" horiz-adv-x="328" 
d="M179 320h-76v157h92q12 0 21.5 -9t9.5 -22v-79q0 -18 -14 -32.5t-33 -14.5zM103 258h79q19 0 31.5 -13t12.5 -33v-212h62v218q0 23 -13.5 43t-35.5 28q22 12 35.5 33t13.5 43v81q0 39 -27.5 66.5t-65.5 27.5h-155v-540h63v258zM194 700l30 -38l-89 -66l-30 38z" />
    <glyph glyph-name="Rcommaaccent" unicode="&#x156;" horiz-adv-x="323" 
d="M106 408h51q60 0 60 64v134q0 11 -8.5 19.5t-19.5 8.5h-83v-226zM40 700h149q38 0 66 -28t28 -66v-138q0 -63 -59 -91q59 -13 59 -75v-302h-66v297q0 50 -50 50h-61v-347h-66v700zM191 -32h-60v-61h22l-22 -62h23l37 62v61z" />
    <glyph glyph-name="rcommaaccent" unicode="&#x157;" horiz-adv-x="328" 
d="M103 320h76q19 0 33 14.5t14 32.5v79q0 13 -9.5 22t-21.5 9h-92v-157zM182 258h-79v-258h-63v540h155q38 0 65.5 -27.5t27.5 -66.5v-81q0 -22 -13.5 -43t-35.5 -33q22 -8 35.5 -28t13.5 -43v-218h-62v212q0 20 -12.5 33t-31.5 13zM134 -32h60v-61l-37 -62h-23l22 62h-22
v61z" />
    <glyph glyph-name="Rcaron" unicode="&#x158;" horiz-adv-x="323" 
d="M106 408h51q60 0 60 64v134q0 11 -8.5 19.5t-19.5 8.5h-83v-226zM40 700h149q38 0 66 -28t28 -66v-138q0 -63 -59 -91q59 -13 59 -75v-302h-66v297q0 50 -50 50h-61v-347h-66v700zM45 806l30 38l66 -42l66 42l30 -38l-89 -56h-13z" />
    <glyph glyph-name="rcaron" unicode="&#x159;" horiz-adv-x="328" 
d="M179 320h-76v157h92q12 0 21.5 -9t9.5 -22v-79q0 -18 -14 -32.5t-33 -14.5zM103 258h79q19 0 31.5 -13t12.5 -33v-212h62v218q0 23 -13.5 43t-35.5 28q22 12 35.5 33t13.5 43v81q0 39 -27.5 66.5t-65.5 27.5h-155v-540h63v258zM58 662l30 38l66 -42l66 42l30 -38l-89 -56
h-13z" />
    <glyph glyph-name="Sacute" unicode="&#x15a;" horiz-adv-x="314" 
d="M106 201v-107q0 -12 8.5 -20t19.5 -8h46q11 0 19.5 8t8.5 20v119q0 42 -21 67l-114 139q-33 41 -33 106v81q0 38 28 66t66 28h46q38 0 66 -27.5t28 -66.5v-78h-66v78q0 11 -8.5 19.5t-19.5 8.5h-46q-11 0 -19.5 -8.5t-8.5 -19.5v-81q0 -41 21 -67l113 -139
q34 -41 34 -106v-119q0 -39 -28 -66.5t-66 -27.5h-46q-39 0 -66.5 27.5t-27.5 66.5v107h66zM187 854l30 -38l-89 -66l-30 38z" />
    <glyph glyph-name="sacute" unicode="&#x15b;" horiz-adv-x="319" 
d="M40 178h63v-85q0 -13 9 -22t22 -9h51q13 0 22.5 9t9.5 22v42q0 26 -21 47l-114 113q-42 41 -42 97v54q0 39 28 66.5t66 27.5h51q39 0 66.5 -27.5t27.5 -66.5v-52h-62v52q0 13 -9.5 22t-22.5 9h-51q-13 0 -22 -9t-9 -22v-49q0 -31 24 -55l117 -115q35 -35 35 -87v-47
q0 -38 -27.5 -65.5t-66.5 -27.5h-51q-38 0 -66 27.5t-28 65.5v85zM189 700l30 -38l-89 -66l-30 38z" />
    <glyph glyph-name="Scircumflex" unicode="&#x15c;" horiz-adv-x="314" 
d="M106 201v-107q0 -12 8.5 -20t19.5 -8h46q11 0 19.5 8t8.5 20v119q0 42 -21 67l-114 139q-33 41 -33 106v81q0 38 28 66t66 28h46q38 0 66 -27.5t28 -66.5v-78h-66v78q0 11 -8.5 19.5t-19.5 8.5h-46q-11 0 -19.5 -8.5t-8.5 -19.5v-81q0 -41 21 -67l113 -139
q34 -41 34 -106v-119q0 -39 -28 -66.5t-66 -27.5h-46q-39 0 -66.5 27.5t-27.5 66.5v107h66zM91 750l-30 38l90 56h13l89 -56l-30 -38l-66 42z" />
    <glyph glyph-name="scircumflex" unicode="&#x15d;" horiz-adv-x="319" 
d="M40 178h63v-85q0 -13 9 -22t22 -9h51q13 0 22.5 9t9.5 22v42q0 26 -21 47l-114 113q-42 41 -42 97v54q0 39 28 66.5t66 27.5h51q39 0 66.5 -27.5t27.5 -66.5v-52h-62v52q0 13 -9.5 22t-22.5 9h-51q-13 0 -22 -9t-9 -22v-49q0 -31 24 -55l117 -115q35 -35 35 -87v-47
q0 -38 -27.5 -65.5t-66.5 -27.5h-51q-38 0 -66 27.5t-28 65.5v85zM93 606l-30 38l90 56h13l89 -56l-30 -38l-66 42z" />
    <glyph glyph-name="Scedilla" unicode="&#x15e;" horiz-adv-x="314" 
d="M106 201v-107q0 -12 8.5 -20t19.5 -8h46q11 0 19.5 8t8.5 20v119q0 42 -21 67l-114 139q-33 41 -33 106v81q0 38 28 66t66 28h46q38 0 66 -27.5t28 -66.5v-78h-66v78q0 11 -8.5 19.5t-19.5 8.5h-46q-11 0 -19.5 -8.5t-8.5 -19.5v-81q0 -41 21 -67l113 -139
q34 -41 34 -106v-119q0 -39 -28 -66.5t-66 -27.5h-13v-33h4q23 0 40.5 -16.5t17.5 -40.5v-6q0 -23 -17 -41t-41 -18h-48v45h48q4 0 8 4t4 9v8q0 12 -12 12h-41v77q-38 2 -64 29t-26 65v107h66z" />
    <glyph glyph-name="scedilla" unicode="&#x15f;" horiz-adv-x="319" 
d="M40 178h63v-85q0 -13 9 -22t22 -9h51q13 0 22.5 9t9.5 22v42q0 26 -21 47l-114 113q-42 41 -42 97v54q0 39 28 66.5t66 27.5h51q39 0 66.5 -27.5t27.5 -66.5v-52h-62v52q0 13 -9.5 22t-22.5 9h-51q-13 0 -22 -9t-9 -22v-49q0 -31 24 -55l117 -115q35 -35 35 -87v-47
q0 -38 -27.5 -65.5t-66.5 -27.5h-16v-33h4q23 0 40.5 -16.5t17.5 -40.5v-6q0 -23 -17 -41t-41 -18h-48v45h48q4 0 8 4t4 9v8q0 12 -12 12h-41v77q-38 1 -65 28t-27 65v85z" />
    <glyph glyph-name="Scaron" unicode="&#x160;" horiz-adv-x="314" 
d="M61 806l30 38l66 -42l66 42l30 -38l-89 -56h-13zM106 201v-107q0 -12 8.5 -20t19.5 -8h46q11 0 19.5 8t8.5 20v119q0 42 -21 67l-114 139q-33 41 -33 106v81q0 38 28 66t66 28h46q38 0 66 -27.5t28 -66.5v-78h-66v78q0 11 -8.5 19.5t-19.5 8.5h-46q-11 0 -19.5 -8.5
t-8.5 -19.5v-81q0 -41 21 -67l113 -139q34 -41 34 -106v-119q0 -39 -28 -66.5t-66 -27.5h-46q-39 0 -66.5 27.5t-27.5 66.5v107h66z" />
    <glyph glyph-name="scaron" unicode="&#x161;" horiz-adv-x="319" 
d="M63 662l30 38l66 -42l66 42l30 -38l-89 -56h-13zM40 178h63v-85q0 -13 9 -22t22 -9h51q13 0 22.5 9t9.5 22v42q0 26 -21 47l-114 113q-42 41 -42 97v54q0 39 28 66.5t66 27.5h51q39 0 66.5 -27.5t27.5 -66.5v-52h-62v52q0 13 -9.5 22t-22.5 9h-51q-13 0 -22 -9t-9 -22
v-49q0 -31 24 -55l117 -115q35 -35 35 -87v-47q0 -38 -27.5 -65.5t-66.5 -27.5h-51q-38 0 -66 27.5t-28 65.5v85z" />
    <glyph glyph-name="Tcommaaccent" unicode="&#x162;" horiz-adv-x="278" 
d="M253 634h-81v-634h-66v634h-81v66h228v-66zM169 -32h-60v-61h22l-22 -62h23l37 62v61z" />
    <glyph glyph-name="tcommaaccent" unicode="&#x163;" horiz-adv-x="283" 
d="M258 477h-86v-477h-62v477h-85v63h233v-63zM111 -32h60v-61l-37 -62h-23l22 62h-22v61z" />
    <glyph glyph-name="Tcaron" unicode="&#x164;" horiz-adv-x="278" 
d="M253 634h-81v-634h-66v634h-81v66h228v-66zM43 806l30 38l66 -42l66 42l30 -38l-89 -56h-13z" />
    <glyph glyph-name="tcaron" unicode="&#x165;" horiz-adv-x="283" 
d="M172 477h86v63h-233v-63h85v-477h62v477zM45 662l30 38l66 -42l66 42l30 -38l-89 -56h-13z" />
    <glyph glyph-name="Tbar" unicode="&#x166;" horiz-adv-x="278" 
d="M253 634h-81v-634h-66v634h-81v66h228v-66zM44 814h191v-51h-191v51z" />
    <glyph glyph-name="tbar" unicode="&#x167;" horiz-adv-x="283" 
d="M258 477h-86v-477h-62v477h-85v63h233v-63zM46 700h191v-51h-191v51z" />
    <glyph glyph-name="Utilde" unicode="&#x168;" 
d="M106 700v-606q0 -12 8 -20t20 -8h67q11 0 19.5 8t8.5 20v606h66v-606q0 -39 -28 -66.5t-66 -27.5h-67q-39 0 -66.5 27.5t-27.5 66.5v606h66zM104 750h-42q0 31 18 51.5t48 20.5q21 0 43 -13.5t35 -13.5q25 0 25 27h42q0 -31 -18 -51.5t-47 -20.5q-21 0 -43 14t-33 14
q-28 0 -28 -28z" />
    <glyph glyph-name="utilde" unicode="&#x169;" horiz-adv-x="341" 
d="M40 540h62v-447q0 -13 9.5 -22t22.5 -9h73q13 0 22.5 9t9.5 22v447h62v-447q0 -38 -27.5 -65.5t-66.5 -27.5h-73q-39 0 -66.5 27.5t-27.5 65.5v447zM107 628h-42q0 31 18 51.5t48 20.5q21 0 43 -13.5t35 -13.5q25 0 25 27h42q0 -31 -18 -51.5t-47 -20.5q-21 0 -43 14
t-33 14q-28 0 -28 -28z" />
    <glyph glyph-name="Umacron" unicode="&#x16a;" 
d="M106 700v-606q0 -12 8 -20t20 -8h67q11 0 19.5 8t8.5 20v606h66v-606q0 -39 -28 -66.5t-66 -27.5h-67q-39 0 -66.5 27.5t-27.5 66.5v606h66zM72 814h191v-51h-191v51z" />
    <glyph glyph-name="umacron" unicode="&#x16b;" horiz-adv-x="341" 
d="M40 540h62v-447q0 -13 9.5 -22t22.5 -9h73q13 0 22.5 9t9.5 22v447h62v-447q0 -38 -27.5 -65.5t-66.5 -27.5h-73q-39 0 -66.5 27.5t-27.5 65.5v447zM75 700h191v-51h-191v51z" />
    <glyph glyph-name="Ubreve" unicode="&#x16c;" 
d="M106 700v-606q0 -12 8 -20t20 -8h67q11 0 19.5 8t8.5 20v606h66v-606q0 -39 -28 -66.5t-66 -27.5h-67q-39 0 -66.5 27.5t-27.5 66.5v606h66zM67 828h49v-11q0 -8 6 -14.5t14 -6.5h62q8 0 14 6.5t6 14.5v11h49v-8q0 -30 -19 -50t-49 -20h-64q-30 0 -49 20t-19 50v8z" />
    <glyph glyph-name="ubreve" unicode="&#x16d;" horiz-adv-x="341" 
d="M40 540h62v-447q0 -13 9.5 -22t22.5 -9h73q13 0 22.5 9t9.5 22v447h62v-447q0 -38 -27.5 -65.5t-66.5 -27.5h-73q-39 0 -66.5 27.5t-27.5 65.5v447zM70 700h49v-11q0 -8 6 -14.5t14 -6.5h62q8 0 14 6.5t6 14.5v11h49v-8q0 -30 -19 -50t-49 -20h-64q-30 0 -49 20t-19 50v8
z" />
    <glyph glyph-name="Uring" unicode="&#x16e;" 
d="M106 700v-606q0 -12 8 -20t20 -8h67q11 0 19.5 8t8.5 20v606h66v-606q0 -39 -28 -66.5t-66 -27.5h-67q-39 0 -66.5 27.5t-27.5 66.5v606h66zM96 809q0 30 20.5 50.5t50.5 20.5t50.5 -20.5t20.5 -50.5t-20.5 -50.5t-50.5 -20.5t-50.5 20.5t-20.5 50.5zM132 809
q0 -14 10.5 -24.5t24.5 -10.5t24.5 10.5t10.5 24.5t-10.5 24.5t-24.5 10.5t-24.5 -10.5t-10.5 -24.5z" />
    <glyph glyph-name="uring" unicode="&#x16f;" horiz-adv-x="341" 
d="M40 540h62v-447q0 -13 9.5 -22t22.5 -9h73q13 0 22.5 9t9.5 22v447h62v-447q0 -38 -27.5 -65.5t-66.5 -27.5h-73q-39 0 -66.5 27.5t-27.5 65.5v447zM99 649q0 30 20.5 50.5t50.5 20.5t50.5 -20.5t20.5 -50.5t-20.5 -50.5t-50.5 -20.5t-50.5 20.5t-20.5 50.5zM135 649
q0 -14 10.5 -24.5t24.5 -10.5t24.5 10.5t10.5 24.5t-10.5 24.5t-24.5 10.5t-24.5 -10.5t-10.5 -24.5z" />
    <glyph glyph-name="Uhungarumlaut" unicode="&#x170;" 
d="M106 700v-606q0 -12 8 -20t20 -8h67q11 0 19.5 8t8.5 20v606h66v-606q0 -39 -28 -66.5t-66 -27.5h-67q-39 0 -66.5 27.5t-27.5 66.5v606h66zM138 854l30 -38l-89 -66l-30 38zM256 854l30 -38l-89 -66l-30 38z" />
    <glyph glyph-name="uhungarumlaut" unicode="&#x171;" horiz-adv-x="341" 
d="M40 540h62v-447q0 -13 9.5 -22t22.5 -9h73q13 0 22.5 9t9.5 22v447h62v-447q0 -38 -27.5 -65.5t-66.5 -27.5h-73q-39 0 -66.5 27.5t-27.5 65.5v447zM141 700l30 -38l-89 -66l-30 38zM259 700l30 -38l-89 -66l-30 38z" />
    <glyph glyph-name="Uogonek" unicode="&#x172;" 
d="M167 -80q0 -15 15 -15h23v-44h-39q-23 0 -35.5 15t-12.5 36q0 42 39 88h-23q-39 0 -66.5 27.5t-27.5 66.5v606h66v-606q0 -12 8 -20t20 -8h67q11 0 19.5 8t8.5 20v606h66v-606q0 -38 -27 -65.5t-64 -28.5q-37 -45 -37 -80z" />
    <glyph glyph-name="uogonek" unicode="&#x173;" horiz-adv-x="341" 
d="M173 -80q0 -15 15 -15h23v-44h-39q-23 0 -35.5 15t-12.5 36q0 42 39 88h-29q-39 0 -66.5 27.5t-27.5 65.5v447h62v-447q0 -13 9.5 -22t22.5 -9h73q13 0 22.5 9t9.5 22v447h62v-447q0 -38 -27 -65t-64 -28q-37 -45 -37 -80z" />
    <glyph glyph-name="Wcircumflex" unicode="&#x174;" horiz-adv-x="536" 
d="M516 700l-102 -700h-96l-48 411h-4l-49 -411h-96l-101 700h66l82 -611h4l35 308l28 165l-19 138h105l-20 -138l28 -165l35 -308h4l81 611h67zM202 750l-30 38l90 56h13l89 -56l-30 -38l-66 42z" />
    <glyph glyph-name="wcircumflex" unicode="&#x175;" horiz-adv-x="547" 
d="M463 540h64l-105 -540h-105l-44 258l-44 -258h-105l-104 540h63l91 -478h6l61 333l-28 145h119l-27 -145l61 -333h7zM207 606l-30 38l90 56h13l89 -56l-30 -38l-66 42z" />
    <glyph glyph-name="Ycircumflex" unicode="&#x176;" horiz-adv-x="313" 
d="M65 66h57v253l-112 381h68l77 -279l80 279h68l-115 -380v-254h57v-66h-180v66zM90 750l-30 38l90 56h13l89 -56l-30 -38l-66 42z" />
    <glyph glyph-name="ycircumflex" unicode="&#x177;" horiz-adv-x="321" 
d="M70 0v62h60v196h-11l-109 282h67l81 -220h7l79 220h67l-107 -282h-11v-196h61v-62h-184zM94 606l-30 38l90 56h13l89 -56l-30 -38l-66 42z" />
    <glyph glyph-name="Ydieresis" unicode="&#x178;" horiz-adv-x="313" 
d="M183 821h60v-71h-60v71zM66 821h61v-71h-61v71zM65 66h57v253l-112 381h68l77 -279l80 279h68l-115 -380v-254h57v-66h-180v66z" />
    <glyph glyph-name="Zacute" unicode="&#x179;" horiz-adv-x="288" 
d="M42 700h226l-160 -634h139v-66h-227l160 634h-138v66zM174 854l30 -38l-89 -66l-30 38z" />
    <glyph glyph-name="zacute" unicode="&#x17a;" horiz-adv-x="275" 
d="M32 540v-63h136l-148 -477h223v62h-136l148 478h-223zM167 700l30 -38l-89 -66l-30 38z" />
    <glyph glyph-name="Zdotaccent" unicode="&#x17b;" horiz-adv-x="288" 
d="M42 700h226l-160 -634h139v-66h-227l160 634h-138v66zM114 821h61v-71h-61v71z" />
    <glyph glyph-name="zdotaccent" unicode="&#x17c;" horiz-adv-x="275" 
d="M32 477v63h223l-148 -478h136v-62h-223l148 477h-136zM107 700h61v-71h-61v71z" />
    <glyph glyph-name="Zcaron" unicode="&#x17d;" horiz-adv-x="288" 
d="M48 806l30 38l66 -42l66 42l30 -38l-89 -56h-13zM42 700h226l-160 -634h139v-66h-227l160 634h-138v66z" />
    <glyph glyph-name="zcaron" unicode="&#x17e;" horiz-adv-x="275" 
d="M41 662l30 38l66 -42l66 42l30 -38l-89 -56h-13zM32 540v-63h136l-148 -477h223v62h-136l148 478h-223z" />
    <glyph glyph-name="longs" unicode="&#x17f;" horiz-adv-x="319" 
d="M40 178h63v-85q0 -13 9 -22t22 -9h51q13 0 22.5 9t9.5 22v42q0 26 -21 47l-114 113q-42 41 -42 97v54q0 39 28 66.5t66 27.5h51q39 0 66.5 -27.5t27.5 -66.5v-52h-62v52q0 13 -9.5 22t-22.5 9h-51q-13 0 -22 -9t-9 -22v-49q0 -31 24 -55l117 -115q35 -35 35 -87v-47
q0 -38 -27.5 -65.5t-66.5 -27.5h-51q-38 0 -66 27.5t-28 65.5v85z" />
    <glyph glyph-name="florin" unicode="&#x192;" horiz-adv-x="280" 
d="M174 487l-31 -550q-2 -38 -27.5 -64.5t-63.5 -26.5h-22l4 61h18q13 0 21.5 8.5t9.5 21.5l31 550h-51l3 53h51l4 69q0 37 26.5 64t64.5 27h38l-3 -60h-35q-12 0 -21.5 -9t-9.5 -22l-4 -69h66l-3 -53h-66z" />
    <glyph glyph-name="AEacute" unicode="&#x1fc;" horiz-adv-x="479" 
d="M449 634h-124v-226h109v-61h-109v-281h124v-66h-191v201h-127l-44 -201h-67l150 700h279v-66zM222 635l-79 -373h115v373h-36zM330 854l30 -38l-89 -66l-30 38z" />
    <glyph glyph-name="aeacute" unicode="&#x1fd;" horiz-adv-x="484" 
d="M322 320v157h132v63h-277l-157 -540h65l52 178h123v-178h194v62h-132v196h117v62h-117zM153 240l69 237h38v-237h-107zM334 700l30 -38l-89 -66l-30 38z" />
    <glyph glyph-name="Oslashacute" unicode="&#x1fe;" horiz-adv-x="423" 
d="M241 854l30 -38l-89 -66l-30 38zM343 719l40 -19l-46 -110v-496q0 -39 -27.5 -66.5t-66.5 -27.5h-66q-44 0 -73 34l-23 -53l-41 19l43 102v504q0 39 28 66.5t66 27.5h66q45 0 74 -37zM271 606q0 11 -8.5 19.5t-19.5 8.5h-66q-11 0 -19.5 -8.5t-8.5 -19.5v-202l-14 -178
l136 325v55zM243 66q11 0 19.5 8t8.5 20v209l18 171l-140 -333v-47q0 -12 8.5 -20t19.5 -8h66z" />
    <glyph glyph-name="oslashacute" unicode="&#x1ff;" horiz-adv-x="412" 
d="M237 700l30 -38l-89 -66l-30 38zM334 446q0 5 -2 17l40 77l-42 23l-26 -49q-28 26 -64 26h-72q-39 0 -66.5 -28t-27.5 -66v-353q0 -15 2 -22l-36 -71l42 -23l24 46q25 -23 62 -23h72q39 0 66.5 27.5t27.5 65.5v353zM240 477q12 0 21 -8.5t10 -20.5l-151 -293l17 143v148
q0 13 9 22t22 9h72zM168 62q-10 0 -19 6.5t-11 16.5l150 292l-17 -186v-98q0 -13 -9 -22t-22 -9h-72z" />
    <glyph glyph-name="Adblgrave" unicode="&#x200;" horiz-adv-x="349" 
d="M87 0h-67l95 700h119l95 -700h-66l-30 206h-117zM177 635h-5l-49 -368h103zM164 816l30 38l89 -66l-30 -38zM46 816l30 38l89 -66l-30 -38z" />
    <glyph glyph-name="adblgrave" unicode="&#x201;" horiz-adv-x="348" 
d="M172 478l-44 -237h92l-44 237h-4zM264 0l-32 179h-115l-34 -179h-63l101 540h106l101 -540h-64zM174 662l30 38l89 -66l-30 -38zM56 662l30 38l89 -66l-30 -38z" />
    <glyph glyph-name="uni0202" unicode="&#x202;" horiz-adv-x="349" 
d="M87 0h-67l95 700h119l95 -700h-66l-30 206h-117zM177 635h-5l-49 -368h103zM108 750l-30 38l90 56h13l89 -56l-30 -38l-66 42z" />
    <glyph glyph-name="uni0203" unicode="&#x203;" horiz-adv-x="348" 
d="M172 478l-44 -237h92l-44 237h-4zM264 0l-32 179h-115l-34 -179h-63l101 540h106l101 -540h-64zM108 606l-30 38l90 56h13l89 -56l-30 -38l-66 42z" />
    <glyph glyph-name="uni0204" unicode="&#x204;" horiz-adv-x="307" 
d="M264 634h-125v-226h109v-61h-109v-281h124v-66h-190v700h191v-66zM158 816l30 38l89 -66l-30 -38zM40 816l30 38l89 -66l-30 -38z" />
    <glyph glyph-name="uni0205" unicode="&#x205;" horiz-adv-x="307" 
d="M133 477v-157h117v-62h-117v-196h132v-62h-194v540h194v-63h-132zM158 662l30 38l89 -66l-30 -38zM40 662l30 38l89 -66l-30 -38z" />
    <glyph glyph-name="uni0206" unicode="&#x206;" horiz-adv-x="262" 
d="M232 634h-125v-226h109v-61h-109v-281h124v-66h-190v700h191v-66zM70 750l-30 38l90 56h13l89 -56l-30 -38l-66 42z" />
    <glyph glyph-name="uni0207" unicode="&#x207;" horiz-adv-x="264" 
d="M102 477v-157h117v-62h-117v-196h132v-62h-194v540h194v-63h-132zM71 606l-30 38l90 56h13l89 -56l-30 -38l-66 42z" />
    <glyph glyph-name="uni0208" unicode="&#x208;" horiz-adv-x="317" 
d="M258 634h-57v-568h57v-66h-180v66h57v568h-57v66h180v-66zM158 816l30 38l89 -66l-30 -38zM40 816l30 38l89 -66l-30 -38z" />
    <glyph glyph-name="uni0209" unicode="&#x209;" horiz-adv-x="317" 
d="M250 477h-61v-415h61v-62h-184v62h61v415h-61v63h184v-63zM158 662l30 38l89 -66l-30 -38zM40 662l30 38l89 -66l-30 -38z" />
    <glyph glyph-name="uni020A" unicode="&#x20a;" horiz-adv-x="272" 
d="M226 634h-57v-568h57v-66h-180v66h57v568h-57v66h180v-66zM70 750l-30 38l90 56h13l89 -56l-30 -38l-66 42z" />
    <glyph glyph-name="uni020B" unicode="&#x20b;" horiz-adv-x="272" 
d="M228 477h-61v-415h61v-62h-184v62h61v415h-61v63h184v-63zM70 606l-30 38l90 56h13l89 -56l-30 -38l-66 42z" />
    <glyph glyph-name="uni020C" unicode="&#x20c;" horiz-adv-x="334" 
d="M228 606q0 11 -8.5 19.5t-19.5 8.5h-66q-11 0 -19.5 -8.5t-8.5 -19.5v-512q0 -12 8.5 -20t19.5 -8h66q11 0 19.5 8t8.5 20v512zM294 606v-512q0 -39 -27.5 -66.5t-66.5 -27.5h-66q-38 0 -66 27.5t-28 66.5v512q0 39 28 66.5t66 27.5h66q39 0 66.5 -27.5t27.5 -66.5z
M167 816l30 38l89 -66l-30 -38zM49 816l30 38l89 -66l-30 -38z" />
    <glyph glyph-name="uni020D" unicode="&#x20d;" horiz-adv-x="340" 
d="M237 93v353q0 13 -9 22t-22 9h-72q-13 0 -22 -9t-9 -22v-353q0 -13 9 -22t22 -9h72q13 0 22 9t9 22zM300 446v-353q0 -38 -27.5 -65.5t-66.5 -27.5h-72q-39 0 -66.5 27.5t-27.5 65.5v353q0 38 27.5 66t66.5 28h72q38 0 66 -27.5t28 -66.5zM170 662l30 38l89 -66l-30 -38z
M52 662l30 38l89 -66l-30 -38z" />
    <glyph glyph-name="uni020E" unicode="&#x20e;" horiz-adv-x="334" 
d="M228 606q0 11 -8.5 19.5t-19.5 8.5h-66q-11 0 -19.5 -8.5t-8.5 -19.5v-512q0 -12 8.5 -20t19.5 -8h66q11 0 19.5 8t8.5 20v512zM294 606v-512q0 -39 -27.5 -66.5t-66.5 -27.5h-66q-38 0 -66 27.5t-28 66.5v512q0 39 28 66.5t66 27.5h66q39 0 66.5 -27.5t27.5 -66.5z
M101 750l-30 38l90 56h13l89 -56l-30 -38l-66 42z" />
    <glyph glyph-name="uni020F" unicode="&#x20f;" horiz-adv-x="340" 
d="M237 93v353q0 13 -9 22t-22 9h-72q-13 0 -22 -9t-9 -22v-353q0 -13 9 -22t22 -9h72q13 0 22 9t9 22zM300 446v-353q0 -38 -27.5 -65.5t-66.5 -27.5h-72q-39 0 -66.5 27.5t-27.5 65.5v353q0 38 27.5 66t66.5 28h72q38 0 66 -27.5t28 -66.5zM104 606l-30 38l90 56h13
l89 -56l-30 -38l-66 42z" />
    <glyph glyph-name="uni0210" unicode="&#x210;" horiz-adv-x="340" 
d="M123 408h51q60 0 60 64v134q0 11 -8.5 19.5t-19.5 8.5h-83v-226zM57 700h149q38 0 66 -28t28 -66v-138q0 -63 -59 -91q59 -13 59 -75v-302h-66v297q0 50 -50 50h-61v-347h-66v700zM158 816l30 38l89 -66l-30 -38zM40 816l30 38l89 -66l-30 -38z" />
    <glyph glyph-name="uni0211" unicode="&#x211;" horiz-adv-x="342" 
d="M117 320h76q19 0 33 14.5t14 32.5v79q0 13 -9.5 22t-21.5 9h-92v-157zM196 258h-79v-258h-63v540h155q38 0 65.5 -27.5t27.5 -66.5v-81q0 -22 -13.5 -43t-35.5 -33q22 -8 35.5 -28t13.5 -43v-218h-62v212q0 20 -12.5 33t-31.5 13zM158 662l30 38l89 -66l-30 -38zM40 662
l30 38l89 -66l-30 -38z" />
    <glyph glyph-name="uni0212" unicode="&#x212;" horiz-adv-x="323" 
d="M106 408h51q60 0 60 64v134q0 11 -8.5 19.5t-19.5 8.5h-83v-226zM40 700h149q38 0 66 -28t28 -66v-138q0 -63 -59 -91q59 -13 59 -75v-302h-66v297q0 50 -50 50h-61v-347h-66v700zM73 750l-30 38l90 56h13l89 -56l-30 -38l-66 42z" />
    <glyph glyph-name="uni0213" unicode="&#x213;" horiz-adv-x="328" 
d="M103 320h76q19 0 33 14.5t14 32.5v79q0 13 -9.5 22t-21.5 9h-92v-157zM182 258h-79v-258h-63v540h155q38 0 65.5 -27.5t27.5 -66.5v-81q0 -22 -13.5 -43t-35.5 -33q22 -8 35.5 -28t13.5 -43v-218h-62v212q0 20 -12.5 33t-31.5 13zM78 606l-30 38l90 56h13l89 -56l-30 -38
l-66 42z" />
    <glyph glyph-name="uni0214" unicode="&#x214;" horiz-adv-x="336" 
d="M107 700v-606q0 -12 8 -20t20 -8h67q11 0 19.5 8t8.5 20v606h66v-606q0 -39 -28 -66.5t-66 -27.5h-67q-39 0 -66.5 27.5t-27.5 66.5v606h66zM158 816l30 38l89 -66l-30 -38zM40 816l30 38l89 -66l-30 -38z" />
    <glyph glyph-name="uni0215" unicode="&#x215;" horiz-adv-x="341" 
d="M40 540h62v-447q0 -13 9.5 -22t22.5 -9h73q13 0 22.5 9t9.5 22v447h62v-447q0 -38 -27.5 -65.5t-66.5 -27.5h-73q-39 0 -66.5 27.5t-27.5 65.5v447zM170 662l30 38l89 -66l-30 -38zM52 662l30 38l89 -66l-30 -38z" />
    <glyph glyph-name="uni0216" unicode="&#x216;" 
d="M106 700v-606q0 -12 8 -20t20 -8h67q11 0 19.5 8t8.5 20v606h66v-606q0 -39 -28 -66.5t-66 -27.5h-67q-39 0 -66.5 27.5t-27.5 66.5v606h66zM101 750l-30 38l90 56h13l89 -56l-30 -38l-66 42z" />
    <glyph glyph-name="uni0217" unicode="&#x217;" horiz-adv-x="341" 
d="M40 540h62v-447q0 -13 9.5 -22t22.5 -9h73q13 0 22.5 9t9.5 22v447h62v-447q0 -38 -27.5 -65.5t-66.5 -27.5h-73q-39 0 -66.5 27.5t-27.5 65.5v447zM104 606l-30 38l90 56h13l89 -56l-30 -38l-66 42z" />
    <glyph glyph-name="Scommaaccent" unicode="&#x218;" horiz-adv-x="314" 
d="M106 201v-107q0 -12 8.5 -20t19.5 -8h46q11 0 19.5 8t8.5 20v119q0 42 -21 67l-114 139q-33 41 -33 106v81q0 38 28 66t66 28h46q38 0 66 -27.5t28 -66.5v-78h-66v78q0 11 -8.5 19.5t-19.5 8.5h-46q-11 0 -19.5 -8.5t-8.5 -19.5v-81q0 -41 21 -67l113 -139
q34 -41 34 -106v-119q0 -39 -28 -66.5t-66 -27.5h-46q-39 0 -66.5 27.5t-27.5 66.5v107h66zM187 -32h-60v-61h22l-22 -62h23l37 62v61z" />
    <glyph glyph-name="scommaaccent" unicode="&#x219;" horiz-adv-x="319" 
d="M40 178h63v-85q0 -13 9 -22t22 -9h51q13 0 22.5 9t9.5 22v42q0 26 -21 47l-114 113q-42 41 -42 97v54q0 39 28 66.5t66 27.5h51q39 0 66.5 -27.5t27.5 -66.5v-52h-62v52q0 13 -9.5 22t-22.5 9h-51q-13 0 -22 -9t-9 -22v-49q0 -31 24 -55l117 -115q35 -35 35 -87v-47
q0 -38 -27.5 -65.5t-66.5 -27.5h-51q-38 0 -66 27.5t-28 65.5v85zM189 -32h-60v-61h22l-22 -62h23l37 62v61z" />
    <glyph glyph-name="uni021A" unicode="&#x21a;" horiz-adv-x="278" 
d="M253 634h-81v-634h-66v634h-81v66h228v-66zM169 -32h-60v-61h22l-22 -62h23l37 62v61z" />
    <glyph glyph-name="uni021B" unicode="&#x21b;" horiz-adv-x="283" 
d="M258 477h-86v-477h-62v477h-85v63h233v-63zM111 -32h60v-61l-37 -62h-23l22 62h-22v61z" />
    <glyph glyph-name="dotlessj" unicode="&#x237;" horiz-adv-x="301" 
d="M25 178h63v-85q0 -13 9 -22t22 -9h49q13 0 22 9t9 22v447h62v-447q0 -38 -27.5 -65.5t-65.5 -27.5h-49q-39 0 -66.5 27.5t-27.5 65.5v85z" />
    <glyph glyph-name="circumflex" unicode="&#x2c6;" horiz-adv-x="282" 
d="M75 606l-30 38l90 56h13l89 -56l-30 -38l-66 42z" />
    <glyph glyph-name="caron" unicode="&#x2c7;" horiz-adv-x="252" 
d="M30 662l30 38l66 -42l66 42l30 -38l-89 -56h-13z" />
    <glyph glyph-name="breve" unicode="&#x2d8;" horiz-adv-x="260" 
d="M30 700h49v-11q0 -8 6 -14.5t14 -6.5h62q8 0 14 6.5t6 14.5v11h49v-8q0 -30 -19 -50t-49 -20h-64q-30 0 -49 20t-19 50v8z" />
    <glyph glyph-name="dotaccent" unicode="&#x2d9;" horiz-adv-x="121" 
d="M30 700h61v-71h-61v71z" />
    <glyph glyph-name="ring" unicode="&#x2da;" horiz-adv-x="202" 
d="M30 649q0 30 20.5 50.5t50.5 20.5t50.5 -20.5t20.5 -50.5t-20.5 -50.5t-50.5 -20.5t-50.5 20.5t-20.5 50.5zM66 649q0 -14 10.5 -24.5t24.5 -10.5t24.5 10.5t10.5 24.5t-10.5 24.5t-24.5 10.5t-24.5 -10.5t-10.5 -24.5z" />
    <glyph glyph-name="ogonek" unicode="&#x2db;" horiz-adv-x="147" 
d="M79 -80q0 -15 15 -15h23v-44h-39q-23 0 -35.5 15t-12.5 36q0 42 39 88l18 5l29 -5q-37 -45 -37 -80z" />
    <glyph glyph-name="tilde" unicode="&#x2dc;" horiz-adv-x="301" 
d="M87 628h-42q0 31 18 51.5t48 20.5q21 0 43 -13.5t35 -13.5q25 0 25 27h42q0 -31 -18 -51.5t-47 -20.5q-21 0 -43 14t-33 14q-28 0 -28 -28z" />
    <glyph glyph-name="hungarumlaut" unicode="&#x2dd;" horiz-adv-x="297" 
d="M119 700l30 -38l-89 -66l-30 38zM237 700l30 -38l-89 -66l-30 38z" />
    <glyph glyph-name="dblgrave" unicode="&#x30f;" horiz-adv-x="297" 
d="M148 662l30 38l89 -66l-30 -38zM30 662l30 38l89 -66l-30 -38z" />
    <glyph glyph-name="uni0400" unicode="&#x400;" horiz-adv-x="261" 
d="M231 634h-125v-226h109v-61h-109v-281h124v-66h-190v700h191v-66zM81 796l30 38l89 -66l-30 -38z" />
    <glyph glyph-name="afii10023" unicode="&#x401;" horiz-adv-x="261" 
d="M231 634h-125v-226h109v-61h-109v-281h124v-66h-190v700h191v-66zM164 821h60v-71h-60v71zM47 821h61v-71h-61v71z" />
    <glyph glyph-name="afii10051" unicode="&#x402;" horiz-adv-x="351" 
d="M253 634h-81v-226h144v-470q0 -38 -27.5 -65.5t-65.5 -27.5h-49v62h49q13 0 22 9t9 22v409h-82v-347h-66v634h-81v66h228v-66z" />
    <glyph glyph-name="afii10052" unicode="&#x403;" horiz-adv-x="251" 
d="M106 0h-66v700h201v-66h-135v-634zM170 854l30 -38l-89 -66l-30 38z" />
    <glyph glyph-name="afii10053" unicode="&#x404;" horiz-adv-x="297" 
d="M106 408h80v-61h-80v-253q0 -11 8.5 -19.5t19.5 -8.5h29q11 0 19.5 8.5t8.5 19.5v107h66v-107q0 -39 -27.5 -66.5t-66.5 -27.5h-29q-38 0 -66 27.5t-28 66.5v512q0 39 28 66.5t66 27.5h29q39 0 66.5 -27.5t27.5 -66.5v-78h-66v78q0 12 -8.5 20t-19.5 8h-29
q-11 0 -19.5 -8t-8.5 -20v-198z" />
    <glyph glyph-name="afii10054" unicode="&#x405;" horiz-adv-x="314" 
d="M106 201v-107q0 -12 8.5 -20t19.5 -8h46q11 0 19.5 8t8.5 20v119q0 42 -21 67l-114 139q-33 41 -33 106v81q0 38 28 66t66 28h46q38 0 66 -27.5t28 -66.5v-78h-66v78q0 11 -8.5 19.5t-19.5 8.5h-46q-11 0 -19.5 -8.5t-8.5 -19.5v-81q0 -41 21 -67l113 -139
q34 -41 34 -106v-119q0 -39 -28 -66.5t-66 -27.5h-46q-39 0 -66.5 27.5t-27.5 66.5v107h66z" />
    <glyph glyph-name="afii10055" unicode="&#x406;" horiz-adv-x="260" 
d="M220 634h-57v-568h57v-66h-180v66h57v568h-57v66h180v-66z" />
    <glyph glyph-name="afii10056" unicode="&#x407;" horiz-adv-x="260" 
d="M159 821h60v-71h-60v71zM42 821h61v-71h-61v71zM220 634h-57v-568h57v-66h-180v66h57v568h-57v66h180v-66z" />
    <glyph glyph-name="afii10057" unicode="&#x408;" horiz-adv-x="296" 
d="M91 201v-107q0 -12 8.5 -20t19.5 -8h43q12 0 20 8t8 20v606h66v-606q0 -39 -27.5 -66.5t-66.5 -27.5h-43q-38 0 -66 27.5t-28 66.5v107h66z" />
    <glyph glyph-name="afii10058" unicode="&#x409;" horiz-adv-x="527" 
d="M245 0v634h-104v-351q0 -36 -0.5 -55.5t-2.5 -55.5t-6.5 -57t-13 -48t-21.5 -42t-32.5 -25.5t-44.5 -10.5v66q55 0 55 203v442h236v-231h92q39 0 66.5 -28t27.5 -66v-281q0 -39 -27.5 -66.5t-66.5 -27.5h-158zM431 94v286q0 11 -8.5 19.5t-19.5 8.5h-92v-342h92
q11 0 19.5 8.5t8.5 19.5z" />
    <glyph glyph-name="afii10059" unicode="&#x40a;" horiz-adv-x="511" 
d="M295 700v-292h92q39 0 66.5 -28t27.5 -66v-220q0 -39 -27.5 -66.5t-66.5 -27.5h-158v347h-123v-347h-66v700h66v-292h123v292h66zM415 94v225q0 11 -8.5 19.5t-19.5 8.5h-92v-281h92q11 0 19.5 8.5t8.5 19.5z" />
    <glyph glyph-name="afii10060" unicode="&#x40b;" horiz-adv-x="425" 
d="M249 634h-77v-226h147v292h66v-700h-66v347h-147v-347h-66v634h-81v66h224v-66z" />
    <glyph glyph-name="afii10061" unicode="&#x40c;" horiz-adv-x="305" 
d="M222 0l-90 347h-26v-347h-66v700h66v-292h28q23 0 37.5 14.5t14.5 37.5v139q0 41 29 71t70 30h5v-65h-5q-14 -2 -23.5 -12t-9.5 -24v-145q0 -28 -15 -53t-41 -36l94 -365h-68zM206 854l30 -38l-89 -66l-30 38z" />
    <glyph glyph-name="uni040D" unicode="&#x40d;" horiz-adv-x="362" 
d="M119 816l30 38l89 -66l-30 -38zM275 567l-7 2l-138 -569h-90v700h66v-318l-19 -259l7 -2l139 579h89v-700h-66v318z" />
    <glyph glyph-name="afii10062" unicode="&#x40e;" horiz-adv-x="297" 
d="M134 0l24 201h-61l-82 499h67l70 -433h13l50 433h67l-81 -700h-67zM52 828h49v-11q0 -8 6 -14.5t14 -6.5h62q8 0 14 6.5t6 14.5v11h49v-8q0 -30 -19 -50t-49 -20h-64q-30 0 -49 20t-19 50v8z" />
    <glyph glyph-name="afii10145" unicode="&#x40f;" 
d="M106 700v-634h123v634h66v-700h-95v-155h-66v155h-94v700h66z" />
    <glyph glyph-name="afii10017" unicode="&#x410;" horiz-adv-x="349" 
d="M87 0h-67l95 700h119l95 -700h-66l-30 206h-117zM177 635h-5l-49 -368h103z" />
    <glyph glyph-name="afii10018" unicode="&#x411;" horiz-adv-x="328" 
d="M273 634h-167v-226h88q39 0 66.5 -27t27.5 -66v-221q0 -39 -27.5 -66.5t-66.5 -27.5h-154v700h233v-66zM222 319q0 12 -8.5 20t-19.5 8h-88v-281h88q11 0 19.5 8.5t8.5 19.5v225z" />
    <glyph glyph-name="afii10019" unicode="&#x412;" horiz-adv-x="332" 
d="M40 700h158q39 0 66.5 -27.5t27.5 -66.5v-133q0 -28 -15 -56.5t-42 -39.5q28 -10 42.5 -34.5t14.5 -52.5v-196q0 -39 -27.5 -66.5t-66.5 -27.5h-158v700zM175 408q51 0 51 68v130q0 11 -8 19.5t-20 8.5h-92v-226h69zM106 347v-281h92q12 0 20 8t8 20v203q0 31 -13.5 40.5
t-44.5 9.5h-62z" />
    <glyph glyph-name="afii10020" unicode="&#x413;" horiz-adv-x="251" 
d="M106 0h-66v700h201v-66h-135v-634z" />
    <glyph glyph-name="afii10021" unicode="&#x414;" horiz-adv-x="414" 
d="M120 66h162v568h-118v-259q0 -201 -44 -309zM10 -155v221h37q51 89 51 309v325h250v-634h56v-221h-66v155h-262v-155h-66z" />
    <glyph glyph-name="afii10022" unicode="&#x415;" horiz-adv-x="261" 
d="M231 634h-125v-226h109v-61h-109v-281h124v-66h-190v700h191v-66z" />
    <glyph glyph-name="afii10024" unicode="&#x416;" horiz-adv-x="460" 
d="M400 437q0 -29 -15 -54t-41 -35l101 -348h-73l-91 329h-18v-329h-66v329h-18l-92 -329h-72l100 348q-26 11 -41 35.5t-15 53.5v162q0 14 -9.5 24t-23.5 11h-11v66h11q42 0 70.5 -29.5t28.5 -71.5v-155q0 -23 15 -38.5t38 -15.5h19v310h66v-310h19q23 0 37.5 15t14.5 38
v156q0 41 29.5 71t70.5 30h11v-66h-11q-14 -1 -24 -11.5t-10 -23.5v-162z" />
    <glyph glyph-name="afii10025" unicode="&#x417;" horiz-adv-x="291" 
d="M25 528v78q0 39 28 66.5t66 27.5h38q39 0 66.5 -27.5t27.5 -66.5v-133q0 -67 -53 -89q53 -19 53 -77v-213q0 -38 -27.5 -66t-66.5 -28h-38q-38 0 -66 27.5t-28 66.5v107h66v-107q0 -11 8.5 -19.5t19.5 -8.5h38q12 0 20 8.5t8 19.5v202q0 28 -13.5 39.5t-41.5 11.5h-33v61
h33q26 0 40.5 19t14.5 47v132q0 12 -8.5 20t-19.5 8h-38q-11 0 -19.5 -8t-8.5 -20v-78h-66z" />
    <glyph glyph-name="afii10026" unicode="&#x418;" horiz-adv-x="362" 
d="M275 567l-7 2l-138 -569h-90v700h66v-318l-19 -259l7 -2l139 579h89v-700h-66v318z" />
    <glyph glyph-name="afii10027" unicode="&#x419;" horiz-adv-x="362" 
d="M78 828h49v-11q0 -8 6 -14.5t14 -6.5h62q8 0 14 6.5t6 14.5v11h49v-8q0 -30 -19 -50t-49 -20h-64q-30 0 -49 20t-19 50v8zM275 567l-7 2l-138 -569h-90v700h66v-318l-19 -259l7 -2l139 579h89v-700h-66v318z" />
    <glyph glyph-name="afii10028" unicode="&#x41a;" horiz-adv-x="305" 
d="M222 0l-90 347h-26v-347h-66v700h66v-292h28q23 0 37.5 14.5t14.5 37.5v139q0 41 29 71t70 30h5v-65h-5q-14 -2 -23.5 -12t-9.5 -24v-145q0 -28 -15 -53t-41 -36l94 -365h-68z" />
    <glyph glyph-name="afii10029" unicode="&#x41b;" horiz-adv-x="351" 
d="M245 0v634h-104v-351q0 -36 -0.5 -55.5t-2.5 -55.5t-6.5 -57t-13 -48t-21.5 -42t-32.5 -25.5t-44.5 -10.5v66q55 0 55 203v442h236v-700h-66z" />
    <glyph glyph-name="afii10030" unicode="&#x41c;" horiz-adv-x="476" 
d="M370 0v298l21 283l-7 1l-110 -582h-70l-109 582l-7 -1l18 -283v-298h-66v700h94l105 -549l102 549h95v-700h-66z" />
    <glyph glyph-name="afii10031" unicode="&#x41d;" 
d="M295 700v-700h-66v347h-123v-347h-66v700h66v-292h123v292h66z" />
    <glyph glyph-name="afii10032" unicode="&#x41e;" horiz-adv-x="334" 
d="M228 606q0 11 -8.5 19.5t-19.5 8.5h-66q-11 0 -19.5 -8.5t-8.5 -19.5v-512q0 -12 8.5 -20t19.5 -8h66q11 0 19.5 8t8.5 20v512zM294 606v-512q0 -39 -27.5 -66.5t-66.5 -27.5h-66q-38 0 -66 27.5t-28 66.5v512q0 39 28 66.5t66 27.5h66q39 0 66.5 -27.5t27.5 -66.5z" />
    <glyph glyph-name="afii10033" unicode="&#x41f;" horiz-adv-x="331" 
d="M225 0v634h-119v-634h-66v700h251v-700h-66z" />
    <glyph glyph-name="afii10034" unicode="&#x420;" horiz-adv-x="315" 
d="M106 634v-287h76q14 0 23 11t9 25v223q0 11 -8.5 19.5t-19.5 8.5h-80zM40 0v700h146q38 0 66 -27.5t28 -66.5v-228q0 -39 -24.5 -66t-63.5 -27h-86v-285h-66z" />
    <glyph glyph-name="afii10035" unicode="&#x421;" horiz-adv-x="311" 
d="M205 528v78q0 11 -8 19.5t-20 8.5h-43q-11 0 -19.5 -8.5t-8.5 -19.5v-512q0 -12 8.5 -20t19.5 -8h43q11 0 19.5 8t8.5 20v107h66v-107q0 -39 -27.5 -66.5t-66.5 -27.5h-43q-38 0 -66 27.5t-28 66.5v512q0 39 28 66.5t66 27.5h43q39 0 66.5 -27.5t27.5 -66.5v-78h-66z" />
    <glyph glyph-name="afii10036" unicode="&#x422;" horiz-adv-x="278" 
d="M253 634h-81v-634h-66v634h-81v66h228v-66z" />
    <glyph glyph-name="afii10037" unicode="&#x423;" horiz-adv-x="297" 
d="M134 0l24 201h-61l-82 499h67l70 -433h13l50 433h67l-81 -700h-67z" />
    <glyph glyph-name="afii10038" unicode="&#x424;" horiz-adv-x="420" 
d="M314 540q0 11 -8.5 19.5t-19.5 8.5h-43v-436h43q11 0 19.5 8t8.5 20v380zM177 568h-43q-12 0 -20 -8.5t-8 -19.5v-380q0 -12 8 -20t20 -8h43v436zM243 710v-76h43q39 0 66.5 -27.5t27.5 -66.5v-380q0 -39 -27.5 -66.5t-66.5 -27.5h-43v-66h-66v66h-43q-39 0 -66.5 27.5
t-27.5 66.5v380q0 39 27.5 66.5t66.5 27.5h43v76h66z" />
    <glyph glyph-name="afii10039" unicode="&#x425;" horiz-adv-x="358" 
d="M94 700l85 -284l85 284h69l-98 -325l108 -375h-68l-96 334l-95 -334h-69l107 375l-96 325h68z" />
    <glyph glyph-name="afii10040" unicode="&#x426;" horiz-adv-x="357" 
d="M106 700v-634h120v634h66v-634h55v-221h-66v155h-241v700h66z" />
    <glyph glyph-name="afii10041" unicode="&#x427;" horiz-adv-x="333" 
d="M227 0v285h-93q-39 0 -66.5 27.5t-27.5 66.5v321h66v-325q0 -11 8.5 -19.5t19.5 -8.5h93v353h66v-700h-66z" />
    <glyph glyph-name="afii10042" unicode="&#x428;" horiz-adv-x="518" 
d="M106 700v-634h120v634h66v-634h120v634h66v-700h-438v700h66z" />
    <glyph glyph-name="afii10043" unicode="&#x429;" horiz-adv-x="543" 
d="M106 700v-634h120v634h66v-634h120v634h66v-634h55v-221h-66v155h-427v700h66z" />
    <glyph glyph-name="afii10044" unicode="&#x42a;" horiz-adv-x="398" 
d="M172 66h92q11 0 19.5 8.5t8.5 19.5v286q0 11 -8 19.5t-20 8.5h-92v-342zM106 0v639h-86v61h152v-231h92q39 0 66.5 -28t27.5 -66v-281q0 -39 -27.5 -66.5t-66.5 -27.5h-158z" />
    <glyph glyph-name="afii10045" unicode="&#x42b;" horiz-adv-x="464" 
d="M358 0v700h66v-700h-66zM226 94v286q0 11 -8 19.5t-20 8.5h-92v-342h92q12 0 20 8.5t8 19.5zM40 0v700h66v-231h92q41 0 67.5 -27.5t26.5 -66.5v-281q0 -39 -27.5 -66.5t-66.5 -27.5h-158z" />
    <glyph glyph-name="afii10046" unicode="&#x42c;" horiz-adv-x="332" 
d="M226 94v286q0 11 -8.5 19.5t-19.5 8.5h-92v-342h92q11 0 19.5 8.5t8.5 19.5zM40 0v700h66v-231h92q39 0 66.5 -28t27.5 -66v-281q0 -39 -27.5 -66.5t-66.5 -27.5h-158z" />
    <glyph glyph-name="afii10047" unicode="&#x42d;" horiz-adv-x="277" 
d="M91 408h80v198q0 12 -8.5 20t-19.5 8h-29q-11 0 -19.5 -8t-8.5 -20v-78h-66v78q0 39 27.5 66.5t66.5 27.5h29q38 0 66 -27.5t28 -66.5v-512q0 -39 -28 -66.5t-66 -27.5h-29q-39 0 -66.5 27.5t-27.5 66.5v107h66v-107q0 -11 8.5 -19.5t19.5 -8.5h29q11 0 19.5 8.5
t8.5 19.5v253h-80v61z" />
    <glyph glyph-name="afii10048" unicode="&#x42e;" horiz-adv-x="468" 
d="M362 606q0 12 -8.5 20t-19.5 8h-60q-11 0 -19.5 -8t-8.5 -20v-512q0 -11 8.5 -19.5t19.5 -8.5h60q11 0 19.5 8.5t8.5 19.5v512zM106 700v-292h74v198q0 39 27.5 66.5t66.5 27.5h60q39 0 66.5 -27.5t27.5 -66.5v-512q0 -39 -27.5 -66.5t-66.5 -27.5h-60q-39 0 -66.5 27.5
t-27.5 66.5v253h-74v-347h-66v700h66z" />
    <glyph glyph-name="afii10049" unicode="&#x42f;" horiz-adv-x="320" 
d="M158 408h55v226h-87q-11 0 -19.5 -8t-8.5 -20v-139q0 -59 60 -59zM213 0v347h-32l-92 -347h-69l92 349q-80 26 -80 118v139q0 39 28 66.5t66 27.5h154v-700h-67z" />
    <glyph glyph-name="afii10065" unicode="&#x430;" horiz-adv-x="348" 
d="M172 478l-44 -237h92l-44 237h-4zM264 0l-32 179h-115l-34 -179h-63l101 540h106l101 -540h-64z" />
    <glyph glyph-name="afii10066" unicode="&#x431;" horiz-adv-x="332" 
d="M277 540v-63h-175v-157h81q46 0 77.5 -31.5t31.5 -76.5v-119q0 -38 -27.5 -65.5t-65.5 -27.5h-159v540h237zM183 258h-81v-196h97q13 0 22 9t9 22v119q0 19 -13.5 32.5t-33.5 13.5z" />
    <glyph glyph-name="afii10067" unicode="&#x432;" horiz-adv-x="337" 
d="M102 320h86q20 0 33.5 14t13.5 33v79q0 13 -9 22t-22 9h-102v-157zM188 258h-86v-196h102q13 0 22 9t9 22v118q0 19 -13.5 33t-33.5 14zM244 289q24 -7 38.5 -28t14.5 -45v-123q0 -38 -27 -65.5t-66 -27.5h-164v540h164q38 0 65.5 -27.5t27.5 -66.5v-84q0 -25 -15 -45
t-38 -28z" />
    <glyph glyph-name="afii10068" unicode="&#x433;" horiz-adv-x="256" 
d="M246 540v-62h-144v-478h-62v540h206z" />
    <glyph glyph-name="afii10069" unicode="&#x434;" horiz-adv-x="409" 
d="M68 -101h-63v163h38q22 46 34 105.5t14 103t2 111.5v158h250v-478h56v-163h-62v101h-269v-101zM111 62h169v415h-124v-95q0 -102 -8.5 -177t-36.5 -143z" />
    <glyph glyph-name="afii10070" unicode="&#x435;" horiz-adv-x="264" 
d="M102 477v-157h117v-62h-117v-196h132v-62h-194v540h194v-63h-132z" />
    <glyph glyph-name="afii10072" unicode="&#x436;" horiz-adv-x="471" 
d="M267 0h-63v244h-16l-107 -244h-66l111 253q-28 12 -44.5 37t-16.5 57v94q0 15 -11 25.5t-26 10.5h-12v63h12q40 0 69.5 -29t29.5 -70v-93q0 -17 12.5 -29.5t29.5 -12.5h35v234h63v-234h35q17 0 29.5 12.5t12.5 29.5v93q0 41 29 70t70 29h13v-63h-13q-15 0 -26 -10.5
t-11 -25.5v-94q0 -31 -16.5 -56t-43.5 -38l110 -253h-66l-107 244h-16v-244z" />
    <glyph glyph-name="afii10073" unicode="&#x437;" horiz-adv-x="296" 
d="M88 394h-63v53q0 38 27.5 65.5t66.5 27.5h44q38 0 65.5 -27.5t27.5 -65.5v-70q0 -61 -52 -88q52 -16 52 -68v-128q0 -38 -27.5 -65.5t-65.5 -27.5h-44q-39 0 -66.5 27.5t-27.5 65.5v85h63v-85q0 -13 9 -22t22 -9h44q13 0 22 9t9 22v108q0 57 -59 57h-47v62h41q29 0 47 21
t18 50v55q0 13 -9 22t-22 9h-44q-13 0 -22 -9t-9 -22v-52z" />
    <glyph glyph-name="afii10074" unicode="&#x438;" horiz-adv-x="368" 
d="M328 0h-62v202l16 275l-156 -477h-86v540h62v-232l-16 -246l156 478h86v-540z" />
    <glyph glyph-name="afii10075" unicode="&#x439;" horiz-adv-x="368" 
d="M328 0h-62v202l16 275l-156 -477h-86v540h62v-232l-16 -246l156 478h86v-540zM91 700h49v-11q0 -8 6 -14.5t14 -6.5h62q8 0 14 6.5t6 14.5v11h49v-8q0 -30 -19 -50t-49 -20h-64q-30 0 -49 20t-19 50v8z" />
    <glyph glyph-name="afii10076" unicode="&#x43a;" horiz-adv-x="310" 
d="M102 540v-220h51q17 0 29 13t12 30v78q0 41 28.5 70t68.5 29h4v-63h-4q-15 0 -24.5 -10.5t-9.5 -25.5v-80q0 -30 -16.5 -54.5t-44.5 -37.5l99 -269h-66l-96 258h-31v-258h-62v540h62z" />
    <glyph glyph-name="afii10077" unicode="&#x43b;" horiz-adv-x="358" 
d="M318 0h-62v477h-117v-200q0 -53 -1.5 -86.5t-8 -74.5t-18.5 -64.5t-35 -40t-56 -16.5v62q13 0 22.5 7.5t15.5 23.5t10 33.5t5.5 44.5t2 49t0.5 55v270h242v-540z" />
    <glyph glyph-name="afii10078" unicode="&#x43c;" horiz-adv-x="465" 
d="M425 0h-63v207l20 250l-111 -457h-77l-112 457l21 -254v-203h-63v540h84l108 -447l109 447h84v-540z" />
    <glyph glyph-name="afii10079" unicode="&#x43d;" horiz-adv-x="341" 
d="M239 540h62v-540h-62v258h-137v-258h-62v540h62v-220h137v220z" />
    <glyph glyph-name="afii10080" unicode="&#x43e;" horiz-adv-x="340" 
d="M237 93v353q0 13 -9 22t-22 9h-72q-13 0 -22 -9t-9 -22v-353q0 -13 9 -22t22 -9h72q13 0 22 9t9 22zM300 446v-353q0 -38 -27.5 -65.5t-66.5 -27.5h-72q-39 0 -66.5 27.5t-27.5 65.5v353q0 38 27.5 66t66.5 28h72q38 0 66 -27.5t28 -66.5z" />
    <glyph glyph-name="afii10081" unicode="&#x43f;" 
d="M295 0h-62v477h-131v-477h-62v540h255v-540z" />
    <glyph glyph-name="afii10082" unicode="&#x440;" horiz-adv-x="320" 
d="M285 446v-157q0 -38 -27.5 -65.5t-66.5 -27.5h-89v-196h-62v540h151q39 0 66.5 -27.5t27.5 -66.5zM102 258h89q13 0 22 9t9 22v157q0 13 -9 22t-22 9h-89v-219z" />
    <glyph glyph-name="afii10083" unicode="&#x441;" horiz-adv-x="316" 
d="M276 394h-63v52q0 13 -9 22t-22 9h-49q-13 0 -22 -9t-9 -22v-353q0 -13 9 -22t22 -9h49q13 0 22 9t9 22v85h63v-85q0 -38 -27.5 -65.5t-66.5 -27.5h-49q-38 0 -65.5 27.5t-27.5 65.5v353q0 39 27.5 66.5t65.5 27.5h49q39 0 66.5 -27.5t27.5 -66.5v-52z" />
    <glyph glyph-name="afii10084" unicode="&#x442;" horiz-adv-x="283" 
d="M258 477h-86v-477h-62v477h-85v63h233v-63z" />
    <glyph glyph-name="afii10085" unicode="&#x443;" horiz-adv-x="297" 
d="M172 0h-63l37 178h-40l-96 362h64l79 -299h6l60 299h63z" />
    <glyph glyph-name="afii10086" unicode="&#x444;" horiz-adv-x="434" 
d="M332 140v268q0 10 -8 18t-18 8h-58v-320h58q10 0 18 8t8 18zM186 114v320h-58q-10 0 -18 -8t-8 -18v-268q0 -10 8 -18t18 -8h58zM186 555h62v-58h47q41 0 70 -29.5t29 -69.5v-247q0 -41 -29 -70t-70 -29h-47v-52h-62v52h-47q-41 0 -70 29t-29 70v247q0 41 29 70t70 29h47
v58z" />
    <glyph glyph-name="afii10087" unicode="&#x445;" horiz-adv-x="348" 
d="M93 540l74 -220h13l74 220h67l-91 -251l103 -289h-66l-86 258h-15l-85 -258h-66l102 289l-91 251h67z" />
    <glyph glyph-name="afii10088" unicode="&#x446;" horiz-adv-x="363" 
d="M40 540h62v-478h143v478h63v-478h45v-162h-62v100h-251v540z" />
    <glyph glyph-name="afii10089" unicode="&#x447;" horiz-adv-x="323" 
d="M288 0h-63v196h-96q-41 0 -70 29t-29 70v245h62v-256q0 -10 8 -18t18 -8h107v282h63v-540z" />
    <glyph glyph-name="afii10090" unicode="&#x448;" horiz-adv-x="529" 
d="M40 540h63v-478h130v478h63v-478h130v478h63v-540h-449v540z" />
    <glyph glyph-name="afii10091" unicode="&#x449;" horiz-adv-x="554" 
d="M40 540h62v-478h131v478h62v-478h131v478h62v-478h56v-162h-62v100h-442v540z" />
    <glyph glyph-name="afii10092" unicode="&#x44a;" horiz-adv-x="406" 
d="M267 0h-157v478h-90v62h153v-158h94q41 0 70 -29t29 -70v-184q0 -41 -29 -70t-70 -29zM173 320v-258h105q10 0 18 8t8 18v206q0 10 -8 18t-18 8h-105z" />
    <glyph glyph-name="afii10093" unicode="&#x44b;" horiz-adv-x="449" 
d="M187 0h-147v540h63v-158h84q41 0 70 -29t29 -70v-184q0 -41 -29 -70t-70 -29zM409 0h-63v540h63v-540zM223 88v206q0 10 -7.5 18t-18.5 8h-94v-258h94q11 0 18.5 8t7.5 18z" />
    <glyph glyph-name="afii10094" unicode="&#x44c;" horiz-adv-x="328" 
d="M189 0h-149v540h62v-158h87q41 0 70 -29t29 -70v-184q0 -41 -29 -70t-70 -29zM225 88v206q0 11 -7.5 18.5t-18.5 7.5h-97v-258h97q11 0 18.5 7.5t7.5 18.5z" />
    <glyph glyph-name="afii10095" unicode="&#x44d;" horiz-adv-x="281" 
d="M82 394h-62v53q0 38 27.5 65.5t65.5 27.5h34q39 0 66.5 -27.5t27.5 -65.5v-354q0 -38 -27.5 -65.5t-66.5 -27.5h-34q-38 0 -65.5 27.5t-27.5 65.5v85h62v-85q0 -13 9 -22t22 -9h34q13 0 22.5 9t9.5 22v165h-97v62h97v126q0 13 -9.5 22t-22.5 9h-34q-13 0 -22 -9t-9 -22
v-52z" />
    <glyph glyph-name="afii10096" unicode="&#x44e;" horiz-adv-x="476" 
d="M373 93v353q0 13 -9 22t-22 9h-72q-13 0 -22 -9t-9 -22v-353q0 -13 9 -22t22 -9h72q13 0 22 9t9 22zM40 540h62v-220h74v127q0 38 28 65.5t66 27.5h72q39 0 66.5 -27.5t27.5 -65.5v-354q0 -38 -27.5 -65.5t-66.5 -27.5h-72q-38 0 -66 27.5t-28 65.5v165h-74v-258h-62v540
z" />
    <glyph glyph-name="afii10097" unicode="&#x44f;" horiz-adv-x="317" 
d="M134 320h81v157h-97q-13 0 -22 -9t-9 -22v-80q0 -19 14 -32.5t33 -13.5zM20 0l83 262q-35 10 -56.5 39t-21.5 66v80q0 38 27.5 65.5t65.5 27.5h159v-540h-62v258h-48l-80 -258h-67z" />
    <glyph glyph-name="uni0450" unicode="&#x450;" horiz-adv-x="264" 
d="M102 477v-157h117v-62h-117v-196h132v-62h-194v540h194v-63h-132zM78 662l30 38l89 -66l-30 -38z" />
    <glyph glyph-name="afii10071" unicode="&#x451;" horiz-adv-x="264" 
d="M102 477v-157h117v-62h-117v-196h132v-62h-194v540h194v-63h-132zM166 700h60v-71h-60v71zM49 700h61v-71h-61v71z" />
    <glyph glyph-name="afii10099" unicode="&#x452;" horiz-adv-x="360" 
d="M257 477h-85v-157h148v-328q0 -38 -27.5 -65.5t-65.5 -27.5h-49v62h49q13 0 22 9t9 22v266h-86v-258h-62v477h-85v63h232v-63z" />
    <glyph glyph-name="afii10100" unicode="&#x453;" horiz-adv-x="256" 
d="M246 478v62h-206v-540h62v478h144zM173 700l30 -38l-89 -66l-30 38z" />
    <glyph glyph-name="afii10101" unicode="&#x454;" horiz-adv-x="301" 
d="M261 394h-62v52q0 13 -9 22t-22 9h-34q-13 0 -22.5 -9t-9.5 -22v-126h97v-62h-97v-165q0 -13 9.5 -22t22.5 -9h34q13 0 22 9t9 22v85h62v-85q0 -38 -27.5 -65.5t-65.5 -27.5h-34q-39 0 -66.5 27.5t-27.5 65.5v354q0 38 27.5 65.5t66.5 27.5h34q38 0 65.5 -27.5
t27.5 -65.5v-53z" />
    <glyph glyph-name="afii10102" unicode="&#x455;" horiz-adv-x="319" 
d="M40 178h63v-85q0 -13 9 -22t22 -9h51q13 0 22.5 9t9.5 22v42q0 26 -21 47l-114 113q-42 41 -42 97v54q0 39 28 66.5t66 27.5h51q39 0 66.5 -27.5t27.5 -66.5v-52h-62v52q0 13 -9.5 22t-22.5 9h-51q-13 0 -22 -9t-9 -22v-49q0 -31 24 -55l117 -115q35 -35 35 -87v-47
q0 -38 -27.5 -65.5t-66.5 -27.5h-51q-38 0 -66 27.5t-28 65.5v85z" />
    <glyph glyph-name="afii10103" unicode="&#x456;" horiz-adv-x="264" 
d="M224 477h-61v-415h61v-62h-184v62h61v415h-61v63h184v-63z" />
    <glyph glyph-name="afii10104" unicode="&#x457;" horiz-adv-x="264" 
d="M224 477h-61v-415h61v-62h-184v62h61v415h-61v63h184v-63zM161 700h60v-71h-60v71zM44 700h61v-71h-61v71z" />
    <glyph glyph-name="afii10105" unicode="&#x458;" horiz-adv-x="301" 
d="M25 178h63v-85q0 -13 9 -22t22 -9h49q13 0 22 9t9 22v384h-96v63h158v-447q0 -38 -27.5 -65.5t-65.5 -27.5h-49q-39 0 -66.5 27.5t-27.5 65.5v85z" />
    <glyph glyph-name="afii10106" unicode="&#x459;" horiz-adv-x="534" 
d="M405 0h-149v477h-117v-200q0 -53 -1.5 -86.5t-8 -74.5t-18.5 -64.5t-35 -40t-56 -16.5v62q13 0 22.5 7.5t15.5 23.5t10 33.5t5.5 44.5t2 49t0.5 55v270h242v-220h87q41 0 70 -29t29 -70v-122q0 -41 -29 -70t-70 -29zM441 88v144q0 11 -7.5 18.5t-18.5 7.5h-97v-196h97
q11 0 18.5 7.5t7.5 18.5z" />
    <glyph glyph-name="afii10107" unicode="&#x45a;" horiz-adv-x="517" 
d="M388 0h-149v258h-137v-258h-62v540h62v-220h137v220h62v-220h87q41 0 70 -29t29 -70v-122q0 -41 -29 -70t-70 -29zM424 88v144q0 11 -7.5 18.5t-18.5 7.5h-97v-196h97q11 0 18.5 7.5t7.5 18.5z" />
    <glyph glyph-name="afii10108" unicode="&#x45b;" horiz-adv-x="431" 
d="M258 477h-86v-157h157v220h62v-540h-62v258h-157v-258h-62v477h-85v63h233v-63z" />
    <glyph glyph-name="afii10109" unicode="&#x45c;" horiz-adv-x="310" 
d="M102 320v220h-62v-540h62v258h31l96 -258h66l-99 269q28 13 44.5 37.5t16.5 54.5v80q0 15 9.5 25.5t24.5 10.5h4v63h-4q-40 0 -68.5 -29t-28.5 -70v-78q0 -17 -12 -30t-29 -13h-51zM197 700l30 -38l-89 -66l-30 38z" />
    <glyph glyph-name="uni045D" unicode="&#x45d;" horiz-adv-x="368" 
d="M328 0h-62v202l16 275l-156 -477h-86v540h62v-232l-16 -246l156 478h86v-540zM132 662l30 38l89 -66l-30 -38z" />
    <glyph glyph-name="afii10110" unicode="&#x45e;" horiz-adv-x="302" 
d="M177 0h-63l37 178h-40l-96 362h64l79 -299h6l60 299h63zM61 700h49v-11q0 -8 6 -14.5t14 -6.5h62q8 0 14 6.5t6 14.5v11h49v-8q0 -30 -19 -50t-49 -20h-64q-30 0 -49 20t-19 50v8z" />
    <glyph glyph-name="afii10193" unicode="&#x45f;" horiz-adv-x="341" 
d="M140 -101v101h-100v540h62v-478h137v478h62v-540h-99v-101h-62z" />
    <glyph glyph-name="afii10146" unicode="&#x462;" horiz-adv-x="359" 
d="M20 540v51h57v109h66v-109h74v-51h-74v-71h92q39 0 66.5 -28t27.5 -66v-281q0 -39 -27.5 -66.5t-66.5 -27.5h-158v540h-57zM263 94v286q0 11 -8.5 19.5t-19.5 8.5h-92v-342h92q11 0 19.5 8.5t8.5 19.5z" />
    <glyph glyph-name="afii10194" unicode="&#x463;" horiz-adv-x="348" 
d="M219 0h-149v489h-50v51h50v160h62v-160h85v-51h-85v-107h87q41 0 70 -29t29 -70v-184q0 -41 -29 -70t-70 -29zM255 88v206q0 11 -7.5 18.5t-18.5 7.5h-97v-258h97q11 0 18.5 7.5t7.5 18.5z" />
    <glyph glyph-name="afii10147" unicode="&#x472;" horiz-adv-x="334" 
d="M294 606v-512q0 -39 -27.5 -66.5t-66.5 -27.5h-66q-38 0 -66 27.5t-28 66.5v512q0 39 28 66.5t66 27.5h66q39 0 66.5 -27.5t27.5 -66.5zM134 370q-26 0 -28 -25v-251q0 -12 8.5 -20t19.5 -8h66q11 0 19.5 8t8.5 20v252q-9 -4 -23 -4q-21 0 -40.5 14t-30.5 14zM228 606
q0 11 -8.5 19.5t-19.5 8.5h-66q-11 0 -19.5 -8.5t-8.5 -19.5v-197q12 5 24 5q21 0 40.5 -13.5t32.5 -13.5q25 0 25 27v192z" />
    <glyph glyph-name="afii10195" unicode="&#x473;" horiz-adv-x="340" 
d="M300 446v-353q0 -38 -27.5 -65.5t-66.5 -27.5h-72q-39 0 -66.5 27.5t-27.5 65.5v353q0 38 27.5 66t66.5 28h72q38 0 66 -27.5t28 -66.5zM211 255q-21 0 -43.5 14t-33.5 14q-28 0 -31 -25v-165q0 -13 9 -22t22 -9h72q13 0 22 9t9 22v167q-13 -5 -26 -5zM237 327v119
q0 13 -9 22t-22 9h-72q-13 0 -22 -9t-9 -22v-125q12 6 27 6q21 0 43.5 -13.5t35.5 -13.5q28 0 28 27z" />
    <glyph glyph-name="afii10148" unicode="&#x474;" horiz-adv-x="369" 
d="M316 610l-95 -610h-99l-107 700h68l89 -612l77 522q7 44 32 72.5t68 28.5h5v-65h-5q-28 -3 -33 -36z" />
    <glyph glyph-name="afii10196" unicode="&#x475;" horiz-adv-x="372" 
d="M180 62l79 398q16 85 93 85h5v-63h-4q-27 0 -34 -36l-91 -446h-103l-110 540h63l95 -478h7z" />
    <glyph glyph-name="afii10050" unicode="&#x490;" horiz-adv-x="251" 
d="M175 834h66v-200h-135v-634h-66v700h135v134z" />
    <glyph glyph-name="afii10098" unicode="&#x491;" horiz-adv-x="256" 
d="M184 540v160h62v-222h-144v-478h-62v540h144z" />
    <glyph glyph-name="uni0492" unicode="&#x492;" horiz-adv-x="301" 
d="M40 352v51h50v297h201v-66h-135v-231h81v-51h-81v-352h-66v352h-50z" />
    <glyph glyph-name="uni0493" unicode="&#x493;" horiz-adv-x="310" 
d="M40 264v51h54v225h206v-62h-144v-163h81v-51h-81v-264h-62v264h-54z" />
    <glyph glyph-name="uni0496" unicode="&#x496;" horiz-adv-x="492" 
d="M400 437q0 -29 -15 -54t-41 -35l82 -282h56v-221h-66v155h-44l-91 329h-18v-329h-66v329h-18l-92 -329h-72l100 348q-26 11 -41 35.5t-15 53.5v173q0 14 -9.5 24t-23.5 11h-11v66h11q42 0 70.5 -29.5t28.5 -71.5v-166q0 -23 15 -38.5t38 -15.5h19v310h66v-310h19
q23 0 37.5 15t14.5 38v167q0 41 29.5 71t70.5 30h11v-66h-11q-14 -1 -24 -11.5t-10 -23.5v-173z" />
    <glyph glyph-name="uni0497" unicode="&#x497;" horiz-adv-x="485" 
d="M428 62h47v-163h-62v101h-23l-107 244h-16v-244h-63v244h-16l-107 -244h-66l111 253q-28 12 -44.5 37t-16.5 57v99q0 15 -11 25.5t-26 10.5h-12v63h12q40 0 69.5 -29.5t29.5 -69.5v-98q0 -17 12.5 -29.5t29.5 -12.5h35v234h63v-234h35q17 0 29.5 12.5t12.5 29.5v98
q0 40 29 69.5t70 29.5h13v-63h-13q-15 0 -26 -10.5t-11 -25.5v-99q0 -31 -16.5 -56t-43.5 -38z" />
    <glyph glyph-name="uni0498" unicode="&#x498;" horiz-adv-x="291" 
d="M25 528v78q0 39 28 66.5t66 27.5h38q39 0 66.5 -27.5t27.5 -66.5v-133q0 -67 -53 -89q53 -19 53 -77v-213q0 -38 -27.5 -66t-66.5 -28h-4v-33h4q23 0 40.5 -16.5t17.5 -40.5v-6q0 -23 -17 -41t-41 -18h-48v45h48q4 0 8 4t4 9v8q0 12 -12 12h-41v77q-38 1 -64.5 28.5
t-26.5 65.5v107h66v-107q0 -11 8.5 -19.5t19.5 -8.5h38q12 0 20 8.5t8 19.5v202q0 28 -13.5 39.5t-41.5 11.5h-33v61h33q26 0 40.5 19t14.5 47v132q0 12 -8.5 20t-19.5 8h-38q-11 0 -19.5 -8t-8.5 -20v-78h-66z" />
    <glyph glyph-name="uni0499" unicode="&#x499;" horiz-adv-x="296" 
d="M88 394h-63v53q0 38 27.5 65.5t66.5 27.5h44q38 0 65.5 -27.5t27.5 -65.5v-70q0 -61 -52 -88q52 -16 52 -68v-128q0 -38 -27.5 -65.5t-65.5 -27.5h-12v-33h4q23 0 40.5 -16.5t17.5 -40.5v-6q0 -23 -17 -41t-41 -18h-48v45h48q4 0 8 4t4 9v8q0 12 -12 12h-41v77
q-37 1 -63 28t-26 65v85h63v-85q0 -13 9 -22t22 -9h44q13 0 22 9t9 22v108q0 57 -59 57h-47v62h41q29 0 47 21t18 50v55q0 13 -9 22t-22 9h-44q-13 0 -22 -9t-9 -22v-52z" />
    <glyph glyph-name="uni049A" unicode="&#x49a;" horiz-adv-x="339" 
d="M272 66h57v-221h-66v155h-41l-90 347h-26v-347h-66v700h66v-292h28q23 0 37.5 14.5t14.5 37.5v139q0 41 29 71t70 30h5v-65h-5q-14 -2 -23.5 -12t-9.5 -24v-145q0 -28 -15 -53t-41 -36z" />
    <glyph glyph-name="uni049B" unicode="&#x49b;" horiz-adv-x="324" 
d="M97 540v-220h51q17 0 29 13t12 30v78q0 41 28.5 70t68.5 29h4v-63h-4q-15 0 -24.5 -10.5t-9.5 -25.5v-80q0 -30 -16.5 -54.5t-44.5 -37.5l76 -207h47v-162h-62v100h-28l-96 258h-31v-258h-62v540h62z" />
    <glyph glyph-name="uni049C" unicode="&#x49c;" horiz-adv-x="367" 
d="M137 540h47v-132h10q24 0 39 14.5t15 37.5v139q0 41 29 71t70 30h5v-65h-5q-14 -2 -23.5 -12t-9.5 -24v-145q0 -28 -15 -53t-41 -36l94 -365h-68l-90 347h-10v-154h-47v347zM106 700v-700h-66v700h66z" />
    <glyph glyph-name="uni049D" unicode="&#x49d;" horiz-adv-x="367" 
d="M133 443h46v-123h31q17 0 29 13t12 30v78q0 41 28.5 70t68.5 29h4v-63h-4q-15 0 -24.5 -10.5t-9.5 -25.5v-80q0 -30 -16.5 -54.5t-44.5 -37.5l99 -269h-66l-96 258h-11v-162h-46v347zM102 540v-540h-62v540h62z" />
    <glyph glyph-name="uni04A0" unicode="&#x4a0;" horiz-adv-x="371" 
d="M288 0l-90 347h-26v-347h-66v639h-86v61h152v-292h28q23 0 37.5 14.5t14.5 37.5v139q0 41 29 71t70 30h5v-65h-5q-14 -2 -23.5 -12t-9.5 -24v-145q0 -28 -15 -53t-41 -36l94 -365h-68z" />
    <glyph glyph-name="uni04A1" unicode="&#x4a1;" horiz-adv-x="380" 
d="M172 540v-220h51q17 0 29 13t12 30v78q0 41 28.5 70t68.5 29h4v-63h-4q-15 0 -24.5 -10.5t-9.5 -25.5v-80q0 -30 -16.5 -54.5t-44.5 -37.5l99 -269h-66l-96 258h-31v-258h-62v478h-90v62h152z" />
    <glyph glyph-name="uni04A2" unicode="&#x4a2;" horiz-adv-x="361" 
d="M295 700v-634h56v-221h-66v155h-56v347h-123v-347h-66v700h66v-292h123v292h66z" />
    <glyph glyph-name="uni04A3" unicode="&#x4a3;" horiz-adv-x="353" 
d="M234 540h62v-478h47v-162h-62v100h-47v258h-137v-258h-62v540h62v-220h137v220z" />
    <glyph glyph-name="uni04AA" unicode="&#x4aa;" horiz-adv-x="311" 
d="M144 -80q0 -15 15 -15h23v-44h-39q-23 0 -35.5 15t-12.5 36q0 42 39 88q-38 0 -66 27.5t-28 66.5v512q0 39 28 66.5t66 27.5h43q39 0 66.5 -27.5t27.5 -66.5v-78h-66v78q0 11 -8 19.5t-20 8.5h-43q-11 0 -19.5 -8.5t-8.5 -19.5v-512q0 -12 8.5 -20t19.5 -8h43
q11 0 19.5 8t8.5 20v107h66v-107q0 -38 -26 -65t-64 -29q-37 -45 -37 -80z" />
    <glyph glyph-name="uni04AB" unicode="&#x4ab;" horiz-adv-x="316" 
d="M149 -80q0 -15 15 -15h23v-44h-39q-23 0 -35.5 15t-12.5 36q0 42 39 88h-6q-38 0 -65.5 27.5t-27.5 65.5v353q0 39 27.5 66.5t65.5 27.5h49q39 0 66.5 -27.5t27.5 -66.5v-52h-63v52q0 13 -9 22t-22 9h-49q-13 0 -22 -9t-9 -22v-353q0 -13 9 -22t22 -9h49q13 0 22 9t9 22
v85h63v-85q0 -37 -26 -64t-64 -29q-37 -45 -37 -80z" />
    <glyph glyph-name="uni04AE" unicode="&#x4ae;" horiz-adv-x="313" 
d="M65 66h57v253l-112 381h68l77 -279l80 279h68l-115 -380v-254h57v-66h-180v66z" />
    <glyph glyph-name="uni04AF" unicode="&#x4af;" horiz-adv-x="321" 
d="M70 0v62h60v196h-11l-109 282h67l81 -220h7l79 220h67l-107 -282h-11v-196h61v-62h-184z" />
    <glyph glyph-name="uni04B0" unicode="&#x4b0;" horiz-adv-x="313" 
d="M57 264v51h65v4l-112 381h68l77 -279l80 279h68l-115 -380v-5h66v-51h-66v-198h57v-66h-180v66h57v198h-65z" />
    <glyph glyph-name="uni04B1" unicode="&#x4b1;" horiz-adv-x="321" 
d="M64 207v51h55l-109 282h67l81 -220h7l79 220h67l-107 -282h57v-51h-68v-145h61v-62h-184v62h60v145h-66z" />
    <glyph glyph-name="uni04B2" unicode="&#x4b2;" horiz-adv-x="389" 
d="M94 700l85 -284l85 284h69l-98 -325l89 -309h55v-221h-66v155h-38l-96 334l-95 -334h-69l107 375l-96 325h68z" />
    <glyph glyph-name="uni04B3" unicode="&#x4b3;" horiz-adv-x="363" 
d="M88 540l74 -220h13l74 220h67l-91 -251l81 -227h47v-162h-62v100h-29l-86 258h-15l-85 -258h-66l102 289l-91 251h67z" />
    <glyph glyph-name="uni04B8" unicode="&#x4b8;" horiz-adv-x="333" 
d="M227 0v285h-33v-92h-47v92h-13q-39 0 -66.5 27.5t-27.5 66.5v321h66v-325q0 -11 8.5 -19.5t19.5 -8.5h13v193h47v-193h33v353h66v-700h-66z" />
    <glyph glyph-name="uni04B9" unicode="&#x4b9;" horiz-adv-x="338" 
d="M298 0h-63v196h-41v-100h-46v100h-9q-41 0 -70 29t-29 70v245h62v-256q0 -10 8 -18t18 -8h20v185h46v-185h41v282h63v-540z" />
    <glyph glyph-name="uni04BA" unicode="&#x4ba;" 
d="M295 0h-66v319q0 11 -8.5 19.5t-19.5 8.5h-95v-347h-66v700h66v-292h95q39 0 66.5 -28t27.5 -66v-314z" />
    <glyph glyph-name="uni04BB" unicode="&#x4bb;" horiz-adv-x="341" 
d="M102 320h106q38 0 65.5 -27.5t27.5 -66.5v-226h-62v227q0 13 -9 22t-22 9h-106v-258h-62v540h62v-220z" />
    <glyph glyph-name="uni04D0" unicode="&#x4d0;" horiz-adv-x="349" 
d="M87 0h-67l95 700h119l95 -700h-66l-30 206h-117zM177 635h-5l-49 -368h103zM74 828h49v-11q0 -8 6 -14.5t14 -6.5h62q8 0 14 6.5t6 14.5v11h49v-8q0 -30 -19 -50t-49 -20h-64q-30 0 -49 20t-19 50v8z" />
    <glyph glyph-name="uni04D1" unicode="&#x4d1;" horiz-adv-x="348" 
d="M172 478l-44 -237h92l-44 237h-4zM264 0l-32 179h-115l-34 -179h-63l101 540h106l101 -540h-64zM74 700h49v-11q0 -8 6 -14.5t14 -6.5h62q8 0 14 6.5t6 14.5v11h49v-8q0 -30 -19 -50t-49 -20h-64q-30 0 -49 20t-19 50v8z" />
    <glyph glyph-name="uni04D2" unicode="&#x4d2;" horiz-adv-x="349" 
d="M87 0h-67l95 700h119l95 -700h-66l-30 206h-117zM177 635h-5l-49 -368h103zM203 821h60v-71h-60v71zM86 821h61v-71h-61v71z" />
    <glyph glyph-name="uni04D3" unicode="&#x4d3;" horiz-adv-x="348" 
d="M172 478l-44 -237h92l-44 237h-4zM264 0l-32 179h-115l-34 -179h-63l101 540h106l101 -540h-64zM203 700h60v-71h-60v71zM86 700h61v-71h-61v71z" />
    <glyph glyph-name="uni04D4" unicode="&#x4d4;" horiz-adv-x="479" 
d="M449 634h-124v-226h109v-61h-109v-281h124v-66h-191v201h-127l-44 -201h-67l150 700h279v-66zM222 635l-79 -373h115v373h-36z" />
    <glyph glyph-name="uni04D5" unicode="&#x4d5;" horiz-adv-x="484" 
d="M322 477v-157h117v-62h-117v-196h132v-62h-194v178h-123l-52 -178h-65l157 540h277v-63h-132zM222 477l-69 -237h107v237h-38z" />
    <glyph glyph-name="uni04D6" unicode="&#x4d6;" horiz-adv-x="270" 
d="M236 634h-125v-226h109v-61h-109v-281h124v-66h-190v700h191v-66zM40 828h49v-11q0 -8 6 -14.5t14 -6.5h62q8 0 14 6.5t6 14.5v11h49v-8q0 -30 -19 -50t-49 -20h-64q-30 0 -49 20t-19 50v8z" />
    <glyph glyph-name="uni04D7" unicode="&#x4d7;" horiz-adv-x="270" 
d="M105 477v-157h117v-62h-117v-196h132v-62h-194v540h194v-63h-132zM40 700h49v-11q0 -8 6 -14.5t14 -6.5h62q8 0 14 6.5t6 14.5v11h49v-8q0 -30 -19 -50t-49 -20h-64q-30 0 -49 20t-19 50v8z" />
    <glyph glyph-name="uni04D8" unicode="&#x4d8;" horiz-adv-x="311" 
d="M106 408h99v198q0 11 -8.5 19.5t-19.5 8.5h-43q-12 0 -20 -8.5t-8 -19.5v-198zM205 347h-165v259q0 39 27.5 66.5t66.5 27.5h43q38 0 66 -27.5t28 -66.5v-512q0 -39 -28 -66.5t-66 -27.5h-43q-39 0 -66.5 27.5t-27.5 66.5v107h66v-107q0 -12 8.5 -20t19.5 -8h43
q11 0 19.5 8t8.5 20v253z" />
    <glyph glyph-name="afii10846" unicode="&#x4d9;" horiz-adv-x="316" 
d="M214 93v165h-174v188q0 39 27.5 66.5t66.5 27.5h49q38 0 65.5 -27.5t27.5 -66.5v-353q0 -38 -27.5 -65.5t-65.5 -27.5h-49q-39 0 -66.5 27.5t-27.5 65.5v85h63v-85q0 -13 9 -22t22 -9h49q13 0 22 9t9 22zM103 320h111v126q0 13 -9 22t-22 9h-49q-13 0 -22 -9t-9 -22v-126
z" />
    <glyph glyph-name="uni04DA" unicode="&#x4da;" horiz-adv-x="311" 
d="M106 408h99v198q0 11 -8.5 19.5t-19.5 8.5h-43q-12 0 -20 -8.5t-8 -19.5v-198zM205 347h-165v259q0 39 27.5 66.5t66.5 27.5h43q38 0 66 -27.5t28 -66.5v-512q0 -39 -28 -66.5t-66 -27.5h-43q-39 0 -66.5 27.5t-27.5 66.5v107h66v-107q0 -12 8.5 -20t19.5 -8h43
q11 0 19.5 8t8.5 20v253zM184 821h60v-71h-60v71zM67 821h61v-71h-61v71z" />
    <glyph glyph-name="uni04DB" unicode="&#x4db;" horiz-adv-x="316" 
d="M214 93v165h-174v188q0 39 27.5 66.5t66.5 27.5h49q38 0 65.5 -27.5t27.5 -66.5v-353q0 -38 -27.5 -65.5t-65.5 -27.5h-49q-39 0 -66.5 27.5t-27.5 65.5v85h63v-85q0 -13 9 -22t22 -9h49q13 0 22 9t9 22zM103 320h111v126q0 13 -9 22t-22 9h-49q-13 0 -22 -9t-9 -22v-126
zM187 700h60v-71h-60v71zM70 700h61v-71h-61v71z" />
    <glyph glyph-name="uni04DC" unicode="&#x4dc;" horiz-adv-x="460" 
d="M400 437q0 -29 -15 -54t-41 -35l101 -348h-73l-91 329h-18v-329h-66v329h-18l-92 -329h-72l100 348q-26 11 -41 35.5t-15 53.5v162q0 14 -9.5 24t-23.5 11h-11v66h11q42 0 70.5 -29.5t28.5 -71.5v-155q0 -23 15 -38.5t38 -15.5h19v310h66v-310h19q23 0 37.5 15t14.5 38
v156q0 41 29.5 71t70.5 30h11v-66h-11q-14 -1 -24 -11.5t-10 -23.5v-162zM259 821h60v-71h-60v71zM142 821h61v-71h-61v71z" />
    <glyph glyph-name="uni04DD" unicode="&#x4dd;" horiz-adv-x="471" 
d="M267 0h-63v244h-16l-107 -244h-66l111 253q-28 12 -44.5 37t-16.5 57v94q0 15 -11 25.5t-26 10.5h-12v63h12q40 0 69.5 -29t29.5 -70v-93q0 -17 12.5 -29.5t29.5 -12.5h35v234h63v-234h35q17 0 29.5 12.5t12.5 29.5v93q0 41 29 70t70 29h13v-63h-13q-15 0 -26 -10.5
t-11 -25.5v-94q0 -31 -16.5 -56t-43.5 -38l110 -253h-66l-107 244h-16v-244zM264 700h60v-71h-60v71zM147 700h61v-71h-61v71z" />
    <glyph glyph-name="uni04DE" unicode="&#x4de;" horiz-adv-x="291" 
d="M25 528v78q0 39 28 66.5t66 27.5h38q39 0 66.5 -27.5t27.5 -66.5v-133q0 -67 -53 -89q53 -19 53 -77v-213q0 -38 -27.5 -66t-66.5 -28h-38q-38 0 -66 27.5t-28 66.5v107h66v-107q0 -11 8.5 -19.5t19.5 -8.5h38q12 0 20 8.5t8 19.5v202q0 28 -13.5 39.5t-41.5 11.5h-33v61
h33q26 0 40.5 19t14.5 47v132q0 12 -8.5 20t-19.5 8h-38q-11 0 -19.5 -8t-8.5 -20v-78h-66zM167 821h60v-71h-60v71zM50 821h61v-71h-61v71z" />
    <glyph glyph-name="uni04DF" unicode="&#x4df;" horiz-adv-x="296" 
d="M88 394h-63v53q0 38 27.5 65.5t66.5 27.5h44q38 0 65.5 -27.5t27.5 -65.5v-70q0 -61 -52 -88q52 -16 52 -68v-128q0 -38 -27.5 -65.5t-65.5 -27.5h-44q-39 0 -66.5 27.5t-27.5 65.5v85h63v-85q0 -13 9 -22t22 -9h44q13 0 22 9t9 22v108q0 57 -59 57h-47v62h41q29 0 47 21
t18 50v55q0 13 -9 22t-22 9h-44q-13 0 -22 -9t-9 -22v-52zM169 700h60v-71h-60v71zM52 700h61v-71h-61v71z" />
    <glyph glyph-name="uni04E2" unicode="&#x4e2;" horiz-adv-x="362" 
d="M83 814h191v-51h-191v51zM275 567l-7 2l-138 -569h-90v700h66v-318l-19 -259l7 -2l139 579h89v-700h-66v318z" />
    <glyph glyph-name="uni04E3" unicode="&#x4e3;" horiz-adv-x="368" 
d="M328 0h-62v202l16 275l-156 -477h-86v540h62v-232l-16 -246l156 478h86v-540zM96 700h191v-51h-191v51z" />
    <glyph glyph-name="uni04E4" unicode="&#x4e4;" horiz-adv-x="362" 
d="M207 821h60v-71h-60v71zM90 821h61v-71h-61v71zM275 567l-7 2l-138 -569h-90v700h66v-318l-19 -259l7 -2l139 579h89v-700h-66v318z" />
    <glyph glyph-name="uni04E5" unicode="&#x4e5;" horiz-adv-x="368" 
d="M328 0h-62v202l16 275l-156 -477h-86v540h62v-232l-16 -246l156 478h86v-540zM220 700h60v-71h-60v71zM103 700h61v-71h-61v71z" />
    <glyph glyph-name="uni04E6" unicode="&#x4e6;" horiz-adv-x="334" 
d="M228 606q0 11 -8.5 19.5t-19.5 8.5h-66q-11 0 -19.5 -8.5t-8.5 -19.5v-512q0 -12 8.5 -20t19.5 -8h66q11 0 19.5 8t8.5 20v512zM294 606v-512q0 -39 -27.5 -66.5t-66.5 -27.5h-66q-38 0 -66 27.5t-28 66.5v512q0 39 28 66.5t66 27.5h66q39 0 66.5 -27.5t27.5 -66.5z
M196 821h60v-71h-60v71zM79 821h61v-71h-61v71z" />
    <glyph glyph-name="uni04E7" unicode="&#x4e7;" horiz-adv-x="340" 
d="M237 93v353q0 13 -9 22t-22 9h-72q-13 0 -22 -9t-9 -22v-353q0 -13 9 -22t22 -9h72q13 0 22 9t9 22zM300 446v-353q0 -38 -27.5 -65.5t-66.5 -27.5h-72q-39 0 -66.5 27.5t-27.5 65.5v353q0 38 27.5 66t66.5 28h72q38 0 66 -27.5t28 -66.5zM199 700h60v-71h-60v71zM82 700
h61v-71h-61v71z" />
    <glyph glyph-name="uni04E8" unicode="&#x4e8;" horiz-adv-x="334" 
d="M294 606v-512q0 -39 -27.5 -66.5t-66.5 -27.5h-66q-38 0 -66 27.5t-28 66.5v512q0 39 28 66.5t66 27.5h66q39 0 66.5 -27.5t27.5 -66.5zM200 66q11 0 19.5 8t8.5 20v253h-122v-253q0 -12 8.5 -20t19.5 -8h66zM228 606q0 11 -8.5 19.5t-19.5 8.5h-66q-11 0 -19.5 -8.5
t-8.5 -19.5v-198h122v198z" />
    <glyph glyph-name="uni04E9" unicode="&#x4e9;" horiz-adv-x="340" 
d="M300 446v-353q0 -38 -27.5 -65.5t-66.5 -27.5h-72q-39 0 -66.5 27.5t-27.5 65.5v353q0 38 27.5 66t66.5 28h72q38 0 66 -27.5t28 -66.5zM134 62h72q13 0 22 9t9 22v165h-134v-165q0 -13 9 -22t22 -9zM237 320v126q0 13 -9 22t-22 9h-72q-13 0 -22 -9t-9 -22v-126h134z
" />
    <glyph glyph-name="uni04EA" unicode="&#x4ea;" horiz-adv-x="334" 
d="M294 606v-512q0 -39 -27.5 -66.5t-66.5 -27.5h-66q-38 0 -66 27.5t-28 66.5v512q0 39 28 66.5t66 27.5h66q39 0 66.5 -27.5t27.5 -66.5zM200 66q11 0 19.5 8t8.5 20v253h-122v-253q0 -12 8.5 -20t19.5 -8h66zM228 606q0 11 -8.5 19.5t-19.5 8.5h-66q-11 0 -19.5 -8.5
t-8.5 -19.5v-198h122v198zM196 821h60v-71h-60v71zM79 821h61v-71h-61v71z" />
    <glyph glyph-name="uni04EB" unicode="&#x4eb;" horiz-adv-x="340" 
d="M300 446v-353q0 -38 -27.5 -65.5t-66.5 -27.5h-72q-39 0 -66.5 27.5t-27.5 65.5v353q0 38 27.5 66t66.5 28h72q38 0 66 -27.5t28 -66.5zM134 62h72q13 0 22 9t9 22v165h-134v-165q0 -13 9 -22t22 -9zM237 320v126q0 13 -9 22t-22 9h-72q-13 0 -22 -9t-9 -22v-126h134z
M199 700h60v-71h-60v71zM82 700h61v-71h-61v71z" />
    <glyph glyph-name="uni04EC" unicode="&#x4ec;" horiz-adv-x="277" 
d="M91 408h80v198q0 12 -8.5 20t-19.5 8h-29q-11 0 -19.5 -8t-8.5 -20v-78h-66v78q0 39 27.5 66.5t66.5 27.5h29q38 0 66 -27.5t28 -66.5v-512q0 -39 -28 -66.5t-66 -27.5h-29q-39 0 -66.5 27.5t-27.5 66.5v107h66v-107q0 -11 8.5 -19.5t19.5 -8.5h29q11 0 19.5 8.5
t8.5 19.5v253h-80v61zM157 821h60v-71h-60v71zM40 821h61v-71h-61v71z" />
    <glyph glyph-name="uni04ED" unicode="&#x4ed;" horiz-adv-x="281" 
d="M82 394h-62v53q0 38 27.5 65.5t65.5 27.5h34q39 0 66.5 -27.5t27.5 -65.5v-354q0 -38 -27.5 -65.5t-66.5 -27.5h-34q-38 0 -65.5 27.5t-27.5 65.5v85h62v-85q0 -13 9 -22t22 -9h34q13 0 22.5 9t9.5 22v165h-97v62h97v126q0 13 -9.5 22t-22.5 9h-34q-13 0 -22 -9t-9 -22
v-52zM159 700h60v-71h-60v71zM42 700h61v-71h-61v71z" />
    <glyph glyph-name="uni04EE" unicode="&#x4ee;" horiz-adv-x="292" 
d="M129 0l24 201h-61l-82 499h67l70 -433h13l50 433h67l-81 -700h-67zM48 814h191v-51h-191v51z" />
    <glyph glyph-name="uni04EF" unicode="&#x4ef;" horiz-adv-x="302" 
d="M177 0h-63l37 178h-40l-96 362h64l79 -299h6l60 299h63zM56 700h191v-51h-191v51z" />
    <glyph glyph-name="uni04F0" unicode="&#x4f0;" horiz-adv-x="292" 
d="M129 0l24 201h-61l-82 499h67l70 -433h13l50 433h67l-81 -700h-67zM172 821h60v-71h-60v71zM55 821h61v-71h-61v71z" />
    <glyph glyph-name="uni04F1" unicode="&#x4f1;" horiz-adv-x="302" 
d="M177 0h-63l37 178h-40l-96 362h64l79 -299h6l60 299h63zM180 700h60v-71h-60v71zM63 700h61v-71h-61v71z" />
    <glyph glyph-name="uni04F2" unicode="&#x4f2;" horiz-adv-x="297" 
d="M129 0l24 201h-61l-82 499h67l70 -433h13l50 433h67l-81 -700h-67zM134 854l30 -38l-89 -66l-30 38zM252 854l30 -38l-89 -66l-30 38z" />
    <glyph glyph-name="uni04F3" unicode="&#x4f3;" horiz-adv-x="309" 
d="M114 0h63l110 540h-63l-60 -299h-6l-79 299h-64l96 -362h40zM146 700l30 -38l-89 -66l-30 38zM264 700l30 -38l-89 -66l-30 38z" />
    <glyph glyph-name="uni04F4" unicode="&#x4f4;" horiz-adv-x="333" 
d="M227 0v285h-93q-39 0 -66.5 27.5t-27.5 66.5v321h66v-325q0 -11 8.5 -19.5t19.5 -8.5h93v353h66v-700h-66zM195 821h60v-71h-60v71zM78 821h61v-71h-61v71z" />
    <glyph glyph-name="uni04F5" unicode="&#x4f5;" horiz-adv-x="338" 
d="M298 0h-63v196h-96q-41 0 -70 29t-29 70v245h62v-256q0 -10 8 -18t18 -8h107v282h63v-540zM198 700h60v-71h-60v71zM81 700h61v-71h-61v71z" />
    <glyph glyph-name="uni04F8" unicode="&#x4f8;" horiz-adv-x="451" 
d="M345 0v700h66v-700h-66zM226 94v286q0 11 -8 19.5t-20 8.5h-92v-342h92q12 0 20 8.5t8 19.5zM40 0v700h66v-231h92q41 0 67.5 -27.5t26.5 -66.5v-281q0 -39 -27.5 -66.5t-66.5 -27.5h-158zM254 821h60v-71h-60v71zM137 821h61v-71h-61v71z" />
    <glyph glyph-name="uni04F9" unicode="&#x4f9;" horiz-adv-x="449" 
d="M187 0h-147v540h63v-158h84q41 0 70 -29t29 -70v-184q0 -41 -29 -70t-70 -29zM409 0h-63v540h63v-540zM223 88v206q0 10 -7.5 18t-18.5 8h-94v-258h94q11 0 18.5 8t7.5 18zM258 700h60v-71h-60v71zM141 700h61v-71h-61v71z" />
    <glyph glyph-name="Wgrave" unicode="&#x1e80;" horiz-adv-x="536" 
d="M516 700l-102 -700h-96l-48 411h-4l-49 -411h-96l-101 700h66l82 -611h4l35 308l28 165l-19 138h105l-20 -138l28 -165l35 -308h4l81 611h67zM209 816l30 38l89 -66l-30 -38z" />
    <glyph glyph-name="wgrave" unicode="&#x1e81;" horiz-adv-x="547" 
d="M463 540h64l-105 -540h-105l-44 258l-44 -258h-105l-104 540h63l91 -478h6l61 333l-28 145h119l-27 -145l61 -333h7zM214 662l30 38l89 -66l-30 -38z" />
    <glyph glyph-name="Wacute" unicode="&#x1e82;" horiz-adv-x="536" 
d="M516 700l-102 -700h-96l-48 411h-4l-49 -411h-96l-101 700h66l82 -611h4l35 308l28 165l-19 138h105l-20 -138l28 -165l35 -308h4l81 611h67zM298 854l30 -38l-89 -66l-30 38z" />
    <glyph glyph-name="wacute" unicode="&#x1e83;" horiz-adv-x="547" 
d="M527 540h-64l-90 -478h-7l-61 333l27 145h-119l28 -145l-61 -333h-6l-91 478h-63l104 -540h105l44 258l44 -258h105zM303 700l30 -38l-89 -66l-30 38z" />
    <glyph glyph-name="Wdieresis" unicode="&#x1e84;" horiz-adv-x="536" 
d="M516 700l-102 -700h-96l-48 411h-4l-49 -411h-96l-101 700h66l82 -611h4l35 308l28 165l-19 138h105l-20 -138l28 -165l35 -308h4l81 611h67zM297 821h60v-71h-60v71zM180 821h61v-71h-61v71z" />
    <glyph glyph-name="wdieresis" unicode="&#x1e85;" horiz-adv-x="547" 
d="M463 540h64l-105 -540h-105l-44 258l-44 -258h-105l-104 540h63l91 -478h6l61 333l-28 145h119l-27 -145l61 -333h7zM302 700h60v-71h-60v71zM185 700h61v-71h-61v71z" />
    <glyph glyph-name="germandblS" unicode="&#x1e9e;" horiz-adv-x="425" 
d="M291 385h-27q-32 0 -50 -37l-59 29l131 257h-152q-11 0 -19.5 -8.5t-8.5 -19.5v-606h-66v606q0 39 28 66.5t66 27.5h225v-69l-89 -180h21q38 0 66 -27.5t28 -66.5v-263q0 -39 -28 -66.5t-66 -27.5h-44q-39 0 -66.5 27.5t-27.5 66.5v107h66v-107q0 -12 8.5 -20t19.5 -8h44
q11 0 19.5 8t8.5 20v263q0 11 -8.5 19.5t-19.5 8.5z" />
    <glyph glyph-name="Ygrave" unicode="&#x1ef2;" horiz-adv-x="313" 
d="M65 66h57v253l-112 381h68l77 -279l80 279h68l-115 -380v-254h57v-66h-180v66zM97 816l30 38l89 -66l-30 -38z" />
    <glyph glyph-name="ygrave" unicode="&#x1ef3;" horiz-adv-x="321" 
d="M70 0v62h60v196h-11l-109 282h67l81 -220h7l79 220h67l-107 -282h-11v-196h61v-62h-184zM101 662l30 38l89 -66l-30 -38z" />
    <glyph glyph-name="endash" unicode="&#x2013;" horiz-adv-x="439" 
d="M30 350h379v-54h-379v54z" />
    <glyph glyph-name="emdash" unicode="&#x2014;" horiz-adv-x="519" 
d="M30 350h459v-54h-459v54z" />
    <glyph glyph-name="quoteleft" unicode="&#x2018;" horiz-adv-x="131" 
d="M101 521h-71v71l48 108h23l-26 -108h26v-71z" />
    <glyph glyph-name="quoteright" unicode="&#x2019;" horiz-adv-x="131" 
d="M30 700h71v-71l-48 -108h-23l26 108h-26v71z" />
    <glyph glyph-name="quotesinglbase" unicode="&#x201a;" horiz-adv-x="131" 
d="M30 71h71v-71l-48 -108h-23l26 108h-26v71z" />
    <glyph glyph-name="quotedblleft" unicode="&#x201c;" horiz-adv-x="250" 
d="M220 521h-71v71l48 108h23l-26 -108h26v-71zM101 521h-71v71l48 108h23l-26 -108h26v-71z" />
    <glyph glyph-name="quotedblright" unicode="&#x201d;" horiz-adv-x="250" 
d="M30 700h71v-71l-48 -108h-23l26 108h-26v71zM149 700h71v-71l-48 -108h-23l26 108h-26v71z" />
    <glyph glyph-name="quotedblbase" unicode="&#x201e;" horiz-adv-x="261" 
d="M160 71h71v-71l-48 -108h-23l26 108h-26v71zM30 71h71v-71l-48 -108h-23l26 108h-26v71z" />
    <glyph glyph-name="dagger" unicode="&#x2020;" horiz-adv-x="329" 
d="M139 700h51v-160h109v-51h-109v-489h-51v489h-109v51h109v160z" />
    <glyph glyph-name="bullet" unicode="&#x2022;" horiz-adv-x="236" 
d="M118 470q37 0 62.5 -25.5t25.5 -62.5q0 -36 -26 -61.5t-62 -25.5t-62 25.5t-26 61.5q0 37 25.5 62.5t62.5 25.5z" />
    <glyph glyph-name="ellipsis" unicode="&#x2026;" horiz-adv-x="458" 
d="M357 0v71h71v-71h-71zM30 0v71h71v-71h-71zM195 0v71h71v-71h-71z" />
    <glyph glyph-name="perthousand" unicode="&#x2030;" horiz-adv-x="636" 
d="M326 87v134q0 16 -12.5 25.5t-28.5 9.5q-15 0 -27.5 -8.5t-12.5 -26.5v-134q0 -15 13 -25.5t27 -10.5q16 0 28.5 10t12.5 26zM378 221v-134q0 -38 -26 -62.5t-65 -24.5h-4q-38 0 -64 25t-26 62v134q0 37 26 61.5t64 24.5h4q39 0 65 -24.5t26 -61.5zM195 480v134
q0 16 -12.5 26t-28.5 10t-28.5 -9t-12.5 -27v-134q0 -15 13.5 -25t27.5 -10q16 0 28.5 9.5t12.5 25.5zM247 614v-134q0 -37 -26 -61.5t-65 -24.5h-4q-38 0 -64.5 24.5t-26.5 61.5v134q0 37 26.5 61.5t64.5 24.5h4q39 0 65 -24.5t26 -61.5zM379 491l28 -38l-349 -247l-28 39z
M554 87v134q0 16 -12.5 25.5t-28.5 9.5q-15 0 -27.5 -8.5t-12.5 -26.5v-134q0 -15 13 -25.5t27 -10.5q16 0 28.5 10t12.5 26zM606 221v-134q0 -38 -26 -62.5t-65 -24.5h-4q-38 0 -64 25t-26 62v134q0 37 26 61.5t64 24.5h4q39 0 65 -24.5t26 -61.5z" />
    <glyph glyph-name="guilsinglleft" unicode="&#x2039;" horiz-adv-x="197" 
d="M122 472h45l-67 -202l67 -203h-45l-92 203z" />
    <glyph glyph-name="guilsinglright" unicode="&#x203a;" horiz-adv-x="197" 
d="M30 472h45l92 -202l-92 -203h-45l67 203z" />
    <glyph glyph-name="uni205E" unicode="&#x205e;" horiz-adv-x="120" 
d="M30 71h60v-71h-60v71zM30 700h60v-72h-60v72zM30 282h60v-72h-60v72zM30 491h60v-72h-60v72z" />
    <glyph glyph-name="Euro" unicode="&#x20ac;" horiz-adv-x="328" 
d="M30 394v55h59v160q0 37 26.5 64t64.5 27h27q37 0 64 -27t27 -64v-81h-60v81q0 13 -9 22t-22 9h-27q-13 0 -22 -9t-9 -22v-160h89v-55h-89v-65h89v-55h-89v-182q0 -13 9 -22t22 -9h27q13 0 22 9t9 22v109h60v-109q0 -38 -26.5 -65t-64.5 -27h-27q-38 0 -64.5 27t-26.5 65
v182h-59v55h59v65h-59z" />
    <glyph glyph-name="centigrade" unicode="&#x2103;" horiz-adv-x="555" 
d="M143 711q46 0 78.5 -33.5t32.5 -78.5q0 -47 -32.5 -79.5t-78.5 -32.5q-47 0 -80 32.5t-33 79.5q0 46 33 79t80 33zM143 666q-28 0 -48 -19.5t-20 -47.5q0 -29 19.5 -48t48.5 -19q28 0 47.5 19.5t19.5 47.5q0 27 -20 47t-47 20zM459 528v78q0 11 -8 19.5t-20 8.5h-43
q-11 0 -19.5 -8.5t-8.5 -19.5v-512q0 -12 8.5 -20t19.5 -8h43q11 0 19.5 8t8.5 20v107h66v-107q0 -39 -27.5 -66.5t-66.5 -27.5h-43q-38 0 -66 27.5t-28 66.5v512q0 39 28 66.5t66 27.5h43q39 0 66.5 -27.5t27.5 -66.5v-78h-66z" />
    <glyph glyph-name="fahrenheit" unicode="&#x2109;" horiz-adv-x="522" 
d="M143 711q46 0 78.5 -33.5t32.5 -78.5q0 -47 -32.5 -79.5t-78.5 -32.5q-47 0 -80 32.5t-33 79.5q0 46 33 79t80 33zM143 666q-28 0 -48 -19.5t-20 -47.5q0 -29 19.5 -48t48.5 -19q28 0 47.5 19.5t19.5 47.5q0 27 -20 47t-47 20zM492 634h-125v-226h110v-61h-110v-347h-66
v700h191v-66z" />
    <glyph glyph-name="afii61352" unicode="&#x2116;" horiz-adv-x="583" 
d="M553 282v177q0 37 -26.5 61.5t-64.5 24.5h-5q-38 0 -64.5 -24.5t-26.5 -61.5v-177q0 -37 26.5 -61.5t64.5 -24.5h5q38 0 64.5 24.5t26.5 61.5zM498 459v-177q0 -16 -11.5 -25.5t-26.5 -9.5q-14 0 -26.5 10t-12.5 25v177q0 35 39 35q15 0 26.5 -9.5t11.5 -25.5zM376 134
v-50h167v50h-167zM312 700v-700h-85l-152 609l21 -277v-332h-66v700h85l150 -602l-19 258v344h66z" />
    <glyph glyph-name="trademark" unicode="&#x2122;" horiz-adv-x="355" 
d="M133 671h-36v-276h-31v276h-36v29h103v-29zM282 700h43v-305h-31v80l10 184l-45 -264h-33l-44 264l10 -184v-80h-31v305h43l39 -259z" />
    <glyph glyph-name="arrowleft" unicode="&#x2190;" horiz-adv-x="461" 
d="M431 377v-51h-309l86 -72l-33 -38l-145 124v26l145 122l33 -39l-86 -72h309z" />
    <glyph glyph-name="arrowup" unicode="&#x2191;" horiz-adv-x="332" 
d="M191 151h-51v308l-72 -85l-38 33l124 145h26l122 -145l-39 -33l-72 85v-308z" />
    <glyph glyph-name="arrowright" unicode="&#x2192;" horiz-adv-x="461" 
d="M30 326v51h309l-86 72l33 39l145 -122v-26l-145 -124l-33 38l86 72h-309z" />
    <glyph glyph-name="arrowdown" unicode="&#x2193;" horiz-adv-x="332" 
d="M140 552h51v-308l72 85l39 -33l-122 -145h-26l-124 145l38 33l72 -85v308z" />
    <glyph glyph-name="arrowboth" unicode="&#x2194;" horiz-adv-x="760" 
d="M122 325l86 -72l-33 -38l-145 124v26l145 122l33 -39l-86 -72h516l-86 72l33 39l145 -122v-26l-145 -124l-33 38l86 72h-516z" />
    <glyph glyph-name="arrowupdn" unicode="&#x2195;" horiz-adv-x="332" 
d="M140 608l-72 -86l-38 33l124 145h26l122 -145l-39 -33l-72 86v-516l72 86l39 -33l-122 -145h-26l-124 145l38 33l72 -86v516z" />
    <glyph glyph-name="arrowupleft" unicode="&#x2196;" horiz-adv-x="350" 
d="M320 218l-39 -33l-201 234v-111h-50v190l20 17l187 -30l-9 -51l-110 18z" />
    <glyph glyph-name="uni2198" unicode="&#x2198;" horiz-adv-x="350" 
d="M30 482l39 33l201 -234v111h50v-190l-20 -17l-187 30l9 51l110 -18z" />
    <glyph glyph-name="uni21A4" unicode="&#x21a4;" horiz-adv-x="493" 
d="M30 366l146 121l32 -39l-87 -72h291v63h51v-177h-51v63h-291l88 -72l-33 -38l-146 124v27z" />
    <glyph glyph-name="uni21A5" unicode="&#x21a5;" horiz-adv-x="332" 
d="M30 422l121 146h27l124 -146l-38 -33l-72 88v-291h63v-51h-177v51h63v291l-72 -87z" />
    <glyph glyph-name="uni21A6" unicode="&#x21a6;" horiz-adv-x="493" 
d="M317 487l146 -121v-27l-146 -124l-33 38l88 72h-291v-63h-51v177h51v-63h291l-87 72z" />
    <glyph glyph-name="uni21A7" unicode="&#x21a7;" horiz-adv-x="332" 
d="M151 135l-121 146l39 32l72 -87v291h-63v51h177v-51h-63v-291l72 88l38 -33l-124 -146h-27z" />
    <glyph glyph-name="minus" unicode="&#x2212;" horiz-adv-x="389" 
d="M30 401h329v-54h-329v54z" />
    <glyph glyph-name="triagup" unicode="&#x25b2;" horiz-adv-x="438" 
d="M30 0l191 268l187 -268h-378z" />
    <glyph glyph-name="uni25B6" unicode="&#x25b6;" horiz-adv-x="328" 
d="M30 481l268 -191l-268 -187v378z" />
    <glyph glyph-name="triagdn" unicode="&#x25bc;" horiz-adv-x="438" 
d="M221 272l-191 268h378z" />
    <glyph glyph-name="uni25C0" unicode="&#x25c0;" horiz-adv-x="328" 
d="M30 290l268 191v-378z" />
    <glyph glyph-name="uni2607" unicode="&#x2607;" horiz-adv-x="227" 
d="M197 420l-155 -386l48 294h-60l70 293h91l-56 -201h62z" />
    <glyph glyph-name="sun" unicode="&#x263c;" horiz-adv-x="571" 
d="M199 454l-27 -27l-57 57l27 27zM285 456q49 0 82.5 -33.5t33.5 -81.5t-34 -82q-31 -33 -82 -33q-47 0 -81 33.5t-34 81.5q0 47 34 81t81 34zM285 418q-32 0 -54.5 -22.5t-22.5 -54.5t22.5 -54.5t54.5 -22.5q33 0 55 22q23 23 23 55t-23 54.5t-55 22.5zM305 483h-38v128
h38v-128zM305 71h-38v128h38v-128zM399 427l-27 27l58 57l27 -27zM428 322v38h113v-38h-113zM30 322v38h114v-38h-114zM372 228l27 27l58 -58l-27 -27zM172 255l27 -27l-57 -58l-27 27z" />
    <glyph glyph-name="heart" unicode="&#x2665;" horiz-adv-x="382" 
d="M191 147q-33 56 -80 117t-64 97t-17 90q0 39 24 64t58 25q28 0 50 -16t29 -42q7 26 29 42t50 16q34 0 58 -25t24 -64q0 -42 -13 -76.5t-31 -58.5l-53 -72t-64 -97z" />
    <glyph glyph-name="uni2693" unicode="&#x2693;" horiz-adv-x="318" 
d="M251 219l37 -15q-21 -51 -51 -84t-78 -49q-86 30 -129 133l38 15q23 -62 71 -95v239h-82v40h82v93q-19 6 -30.5 23t-11.5 37q0 26 18 44t44 18q25 0 44 -18.5t19 -43.5q0 -45 -43 -60v-93h83v-40h-83v-239q46 30 72 95zM159 581q-10 0 -17.5 -7.5t-7.5 -17.5
q0 -11 7.5 -18.5t17.5 -7.5q11 0 18 7.5t7 18.5q0 10 -7.5 17.5t-17.5 7.5z" />
    <glyph glyph-name="uni2764" unicode="&#x2764;" horiz-adv-x="468" 
d="M234 153q-31 47 -72.5 91t-67.5 68t-45 60t-19 79q0 46 29.5 78.5t74.5 32.5q32 0 62 -18.5t38 -46.5q8 28 38 46.5t62 18.5q45 0 74.5 -32.5t29.5 -78.5q0 -43 -19 -79t-45 -60t-67.5 -68t-72.5 -91z" />
    <glyph glyph-name="commaaccent" unicode="&#xf6c3;" horiz-adv-x="120" 
d="M30 -32h60v-61l-37 -62h-23l22 62h-22v61z" />
    <glyph glyph-name="CR" horiz-adv-x="180" 
 />
    <glyph glyph-name="G.alt" horiz-adv-x="311" 
d="M205 528v78q0 11 -8 19.5t-20 8.5h-43q-11 0 -19.5 -8.5t-8.5 -19.5v-512q0 -12 8.5 -20t19.5 -8h71v220h-43v61h109v-347h-137q-39 0 -66.5 27.5t-27.5 66.5v512q0 38 28 66t66 28h43q39 0 66.5 -27.5t27.5 -66.5v-78h-66z" />
    <glyph glyph-name="N.alt" horiz-adv-x="362" 
d="M322 700v-700h-66v219l-161 367l11 -204v-382h-66v700h80l152 -359l-16 241v118h66z" />
    <glyph glyph-name="O.alt.001" horiz-adv-x="328" 
d="M288 606v-377q0 -39 -27.5 -66.5t-66.5 -27.5h-60q-38 0 -66 28t-28 66v377q0 38 28 66t66 28h60q39 0 66.5 -28t27.5 -66zM222 606q0 11 -8 19.5t-20 8.5h-60q-11 0 -19.5 -8.5t-8.5 -19.5v-377q0 -11 8.5 -19.5t19.5 -8.5h60q12 0 20 8.5t8 19.5v377zM49 66h231v-66
h-231v66z" />
    <glyph glyph-name="Q.alt" horiz-adv-x="333" 
d="M293 606v-513q0 -38 -27 -65.5t-66 -27.5v-155h-66v155q-39 0 -66.5 27.5t-27.5 65.5v513q0 38 27.5 66t66.5 28h65q39 0 66.5 -28t27.5 -66zM227 606q0 11 -8 19.5t-20 8.5h-65q-11 0 -19.5 -8.5t-8.5 -19.5v-512q0 -11 8.5 -19.5t19.5 -8.5h65q12 0 20 8.5t8 19.5v512z
" />
    <glyph glyph-name="W.alt" horiz-adv-x="536" 
d="M449 700h67l-83 -700h-119l-44 334h-4l-42 -334h-121l-83 700h66l74 -622h11l66 413l-32 209h67l94 -622h12z" />
    <glyph glyph-name="Z.alt" horiz-adv-x="288" 
d="M42 700h226l-74 -292h59v-61h-74l-71 -281h139v-66h-227l87 347h-59v61h75l57 226h-138v66z" />
    <glyph glyph-name="g.alt" horiz-adv-x="316" 
d="M276 394h-62v52q0 13 -9 22t-22 9h-49q-13 0 -22 -9t-9 -22v-353q0 -13 9 -22t22 -9h80v134h-49v62h111v-258h-142q-39 0 -66.5 27.5t-27.5 65.5v353q0 39 27.5 66.5t66.5 27.5h49q38 0 65.5 -27.5t27.5 -66.5v-52z" />
    <glyph glyph-name="n.alt" horiz-adv-x="368" 
d="M265 540h63v-540h-63v122l-162 324v-446h-63v540h85l140 -280v280z" />
    <glyph glyph-name="o.alt" horiz-adv-x="340" 
d="M237 209v237q0 13 -9 22t-22 9h-72q-13 0 -22 -9t-9 -22v-237q0 -13 9 -22t22 -9h72q13 0 22 9t9 22zM300 447v-237q0 -38 -27.5 -65.5t-66.5 -27.5h-72q-39 0 -66.5 27.5t-27.5 65.5v237q0 38 27.5 65.5t66.5 27.5h72q38 0 66 -27.5t28 -65.5zM46 0v62h248v-62h-248z
" />
    <glyph glyph-name="q.alt" horiz-adv-x="339" 
d="M237 93v353q0 13 -9 22t-22 9h-73q-13 0 -22 -9t-9 -22v-353q0 -13 9 -22t22 -9h73q13 0 22 9t9 22zM299 447v-354q0 -38 -27.5 -65.5t-65.5 -27.5h-5v-99h-62v99h-6q-38 0 -65.5 27.5t-27.5 65.5v354q0 38 27.5 65.5t65.5 27.5h73q38 0 65.5 -27.5t27.5 -65.5z" />
    <glyph glyph-name="w.alt" horiz-adv-x="547" 
d="M20 540h63l93 -478h5l58 276l-46 202h64l108 -478h6l92 478h64l-105 -540h-107l-43 196l-40 -196h-108z" />
    <glyph glyph-name="z.alt" horiz-adv-x="275" 
d="M186 320h53v-62h-72l-60 -196h136v-62h-223l80 258h-54v62h73l49 157h-136v63h223z" />
    <glyph glyph-name="zero.alt" horiz-adv-x="302" 
d="M262 447v-354q0 -38 -27.5 -65.5t-65.5 -27.5h-36q-38 0 -65.5 27.5t-27.5 65.5v354q0 38 27.5 65.5t65.5 27.5h36q38 0 65.5 -27t27.5 -66zM102 446v-175l98 100v75q0 13 -9 22t-22 9h-36q-13 0 -22 -9t-9 -22zM200 93v204l-98 -101v-103q0 -13 9 -22t22 -9h36
q13 0 22 9t9 22z" />
    <glyph glyph-name="one.alt" horiz-adv-x="296" 
d="M45 62h74v415h-78v63h140v-478h75v-62h-211v62z" />
    <glyph glyph-name="two.alt" horiz-adv-x="306" 
d="M102 394h-62v53q0 39 27.5 66t66.5 27h41q38 0 64 -27t26 -66v-52q0 -48 -17 -87.5t-40.5 -66l-47.5 -51.5t-41 -57.5t-17 -70.5h164v-62h-226v58q0 48 17 88.5t40.5 69t47.5 54.5t41 58t17 67v51q0 13 -9 22t-22 9h-39q-13 0 -22 -9t-9 -22v-52z" />
    <glyph glyph-name="three.alt" horiz-adv-x="302" 
d="M255 540v-63l-98 -140q11 9 29 9q37 0 56.5 -23t19.5 -62v-170q0 -37 -27 -64t-64 -27h-40q-37 0 -64 27t-27 64v87h62v-86q0 -13 9 -21.5t21 -8.5h37q13 0 22 8.5t9 21.5v157q0 14 -10 26t-23 12q-18 0 -28.5 -4.5t-27.5 -21.5l-57 40l124 176h-138v63h215z" />
    <glyph glyph-name="four.alt" 
d="M246 540v-365h58v-56h-58v-119h-62v119h-150v55l134 366h78zM96 175h88v119l17 183z" />
    <glyph glyph-name="five.alt" horiz-adv-x="299" 
d="M259 295v-204q0 -37 -26.5 -64t-64.5 -27h-36q-38 0 -65 26.5t-27 64.5v87h62v-86q0 -12 9 -21t22 -9h34q12 0 21 8.5t9 21.5v191q0 15 -12 25.5t-27 10.5q-26 0 -41 -17.5t-15 -48.5h-62v287h209v-63h-147v-116q25 22 66 22q37 0 64 -25.5t27 -62.5z" />
    <glyph glyph-name="six.alt" horiz-adv-x="304" 
d="M202 92v168q0 14 -12 24t-25 10q-32 0 -47.5 -21.5t-15.5 -56.5v-124q0 -12 9 -21t21 -9h37q13 0 23 9t10 21zM264 265v-174q0 -37 -27 -64t-64 -27h-42q-37 0 -64 27t-27 64v358q0 37 27 64t64 27h42q37 0 64 -27t27 -64v-55h-62v53q0 12 -9.5 21t-22.5 9h-37
q-12 0 -21.5 -9t-9.5 -21v-116q28 25 66 25q41 0 68.5 -26.5t27.5 -64.5z" />
    <glyph glyph-name="seven.alt" horiz-adv-x="300" 
d="M30 477v63h240v-70q-66 -114 -84 -205t-21 -265h-62q2 157 22 262.5t78 210.5v4h-173z" />
    <glyph glyph-name="eight.alt" horiz-adv-x="294" 
d="M102 234v-142q0 -13 9.5 -21.5t22.5 -8.5h27q13 0 22 9t9 21v142q0 13 -9 22t-22 9h-27q-13 0 -22.5 -9t-9.5 -22zM40 91v135q0 55 49 74q-18 7 -31 23.5t-13 39.5v86q0 38 25.5 64.5t63.5 26.5h27q37 0 62.5 -26.5t25.5 -64.5v-86q0 -25 -13 -41.5t-30 -21.5
q48 -22 48 -74v-135q0 -38 -25.5 -64.5t-62.5 -26.5h-37q-38 0 -63.5 26.5t-25.5 64.5zM107 447v-85q0 -13 9 -21.5t21 -8.5h20q13 0 21.5 8.5t8.5 21.5v85q0 12 -8.5 21t-21.5 9h-19q-13 0 -22 -9t-9 -21z" />
    <glyph glyph-name="nine.alt" horiz-adv-x="307" 
d="M205 392v52q0 12 -9 21t-22 9h-41q-13 0 -22 -9t-9 -21v-115q0 -13 11 -23t27 -10q35 0 50 28.5t15 67.5zM267 449v-358q0 -37 -27 -64t-65 -27h-44q-38 0 -64.5 26.5t-26.5 64.5v87h62v-86q0 -12 9 -21t22 -9h41q13 0 22 9t9 21v165q-29 -27 -69 -27q-38 0 -67 26
t-29 62v131q0 37 27 64t64 27h44q38 0 65 -27t27 -64z" />
    <glyph glyph-name="ampersand.alt" horiz-adv-x="336" 
d="M220 540v-63h-97q-13 0 -21.5 -9.5t-8.5 -21.5v-69q0 -57 53 -57h160v-62h-61v-258h-124q-38 0 -64.5 27.5t-26.5 64.5v123q0 55 44 79q-44 30 -44 77v77q0 38 27.5 65t63.5 27h99zM182 258h-42q-47 0 -47 -49v-116q0 -13 9 -22t21 -9h59v196z" />
    <glyph glyph-name="onequarter.alt" horiz-adv-x="376" 
d="M227 0h-39v60h-73v32l64 204h48v-200h33v-36h-33v-60zM196 238l-40 -142h32v67zM138 443h30v218h-32v39h71v-257h30v-39h-99v39zM30 333v35h316v-35h-316z" />
    <glyph glyph-name="onehalf.alt" horiz-adv-x="376" 
d="M163 211h-39v43q0 18 13 30t31 12h23q19 0 31.5 -12t12.5 -30v-37q0 -25 -7 -39q-7 -15 -25 -40t-29 -46.5t-11 -44.5v-8h72v-39h-111v47q0 26 11 50t30.5 53t26.5 43q4 9 4 25v35q0 6 -5 6h-23q-5 0 -5 -6v-42zM138 443h30v218h-32v39h71v-257h30v-39h-99v39zM30 333v35
h316v-35h-316z" />
    <glyph glyph-name="threequarters.alt" horiz-adv-x="376" 
d="M134 661v39h108v-36l-46 -75q5 3 13 3q15 0 24 -9.5t9 -23.5v-111q0 -19 -13 -31.5t-31 -12.5h-19q-19 0 -32 12.5t-13 31.5v46h39v-46q0 -5 6 -5h19q5 0 5 5v99q0 11 -12 11q-11 0 -20 -17l-34 16l61 104h-64zM227 0h-39v60h-73v32l64 204h48v-200h33v-36h-33v-60z
M196 238l-40 -142h32v67zM30 333v35h316v-35h-316z" />
    <glyph glyph-name="ircle" horiz-adv-x="801" 
d="M40 350q0 150 105 255.5t255 105.5t255.5 -105.5t105.5 -255.5t-105.5 -255t-255.5 -105t-255 105t-105 255zM108 350q0 -122 85 -207t207 -85t207.5 85.5t85.5 206.5q0 122 -85.5 207.5t-207.5 85.5q-121 0 -206.5 -85.5t-85.5 -207.5z" />
    <glyph glyph-name="the.ord" horiz-adv-x="579" 
d="M132 448h54v39h-146v-39h53v-279h39v279zM379 487h-38v-128h-86v128h-39v-318h39v151h86v-151h38v318zM457 448v-89h73v-39h-73v-113h82v-38h-122v318h122v-39h-82zM30 540v40h519v-40h-519zM30 80v40h519v-40h-519z" />
    <glyph glyph-name="for.ord" horiz-adv-x="579" 
d="M30 540v40h519v-40h-519zM30 80v40h519v-40h-519zM79 359v89h83v39h-122v-318h39v151h73v39h-73zM471 359h-47v89h57q8 0 14 -6t6 -14v-39q0 -12 -9 -21t-21 -9zM424 320h49q12 0 20 -8t8 -20v-123h38v126q0 33 -30 45q30 17 30 47v41q0 25 -17 42t-41 17h-97v-318h40
v151zM313 428v-201q0 -7 -5.5 -13t-13.5 -6h-45q-8 0 -14 5.5t-6 13.5v201q0 8 6 14t14 6h45q8 0 13.5 -6t5.5 -14zM352 428q0 25 -17 42t-41 17h-45q-25 0 -42 -17.5t-17 -41.5v-201q0 -24 17 -41t42 -17h45q24 0 41 17t17 41v201z" />
    <glyph glyph-name="and.ord" horiz-adv-x="718" 
d="M30 540v40h658v-40h-658zM30 80v40h658v-40h-658zM480 487h-39v-239l-83 239h-58v-318h40v246l85 -246h55v318zM157 448l-36 -139h77l-37 139h-4zM235 169l-28 102h-96l-28 -102h-41l86 318h62l86 -318h-41zM561 448h62q9 0 14.5 -6t5.5 -14v-200q0 -8 -5.5 -14t-14.5 -6
h-62v240zM522 487v-318h101q25 0 42 17.5t17 41.5v200q0 24 -17 41.5t-42 17.5h-101z" />
    <glyph glyph-name="of.ord" horiz-adv-x="404" 
d="M30 540v40h344v-40h-344zM30 80v40h344v-40h-344zM281 359v89h83v39h-122v-318h39v151h73v39h-73zM164 428v-201q0 -7 -6 -13t-13 -6h-45q-8 0 -14 5.5t-6 13.5v201q0 8 6 14t14 6h45q8 0 13.5 -6t5.5 -14zM203 428q0 25 -17 42t-41 17h-45q-25 0 -42 -17.5t-17 -41.5
v-201q0 -24 17 -41t42 -17h45q24 0 41 17t17 41v201z" />
    <glyph glyph-name="by.ord" horiz-adv-x="433" 
d="M30 540v40h364v-40h-364zM30 80v40h364v-40h-364zM264 487h-42l64 -167h7v-151h39v151h7l64 167h-43l-45 -128h-4zM133 359h-53v89h64q8 0 13.5 -6t5.5 -14v-39q0 -12 -8.5 -21t-21.5 -9zM80 320h53q13 0 21.5 -8.5t8.5 -20.5v-63q0 -8 -5.5 -14t-13.5 -6h-64v112z
M169 340q33 13 33 45v43q0 24 -17 41.5t-41 17.5h-103v-318h103q24 0 41 17.5t17 41.5v66q0 15 -9 28.5t-24 17.5z" />
    <glyph glyph-name="st.ord" horiz-adv-x="391" 
d="M39 484h39v-43q0 -8 6 -14t14 -6h31q9 0 15 6t6 14v15q0 17 -13 30l-71 71q-27 24 -27 61v23q0 24 17.5 41.5t41.5 17.5h31q25 0 42.5 -17.5t17.5 -41.5v-22h-39v22q0 8 -6 14t-15 6h-31q-8 0 -14 -6t-6 -14v-21q0 -19 15 -34l74 -72q22 -22 22 -54v-19
q0 -24 -17.5 -41.5t-42.5 -17.5h-31q-24 0 -41.5 17.5t-17.5 41.5v43zM297 661h53v39h-145v-39h53v-279h39v279zM30 293v40h331v-40h-331z" />
    <glyph glyph-name="nd.ord" horiz-adv-x="458" 
d="M30 293v40h398v-40h-398zM181 700h39v-318h-55l-85 246v-246h-40v318h58l83 -239v239zM363 661h-62v-240h62q9 0 14.5 6t5.5 14v200q0 8 -5.5 14t-14.5 6zM262 382v318h101q25 0 42 -17.5t17 -41.5v-200q0 -24 -17 -41.5t-42 -17.5h-101z" />
    <glyph glyph-name="rd.ord" horiz-adv-x="430" 
d="M80 572h47q12 0 21 9t9 21v39q0 8 -6 14t-14 6h-57v-89zM129 533h-49v-151h-40v318h97q24 0 41 -17t17 -42v-41q0 -30 -30 -47q30 -12 30 -45v-126h-38v123q0 12 -8 20t-20 8zM331 661h-62v-240h62q9 0 14.5 6t5.5 14v200q0 8 -5.5 14t-14.5 6zM230 382v318h101
q25 0 42 -17.5t17 -41.5v-200q0 -24 -17 -41.5t-42 -17.5h-101zM30 293v40h370v-40h-370z" />
    <glyph glyph-name="er.ord" horiz-adv-x="398" 
d="M80 661v-89h73v-39h-73v-113h82v-38h-122v318h122v-39h-82zM290 572h-47v89h57q8 0 14 -6t6 -14v-39q0 -12 -9 -21t-21 -9zM243 533h49q12 0 20 -8t8 -20v-123h38v126q0 33 -30 45q30 17 30 47v41q0 25 -17 42t-41 17h-97v-318h40v151zM30 293v40h338v-40h-338z" />
    <glyph glyph-name="ere.ord" horiz-adv-x="556" 
d="M80 661v-89h73v-39h-73v-113h82v-38h-122v318h122v-39h-82zM290 572h-47v89h57q8 0 14 -6t6 -14v-39q0 -12 -9 -21t-21 -9zM243 533h49q12 0 20 -8t8 -20v-123h38v126q0 33 -30 45q30 17 30 47v41q0 25 -17 42t-41 17h-97v-318h40v151zM30 293v40h496v-40h-496zM434 661
v-89h73v-39h-73v-113h82v-38h-122v318h122v-39h-82z" />
    <glyph glyph-name="em.ord" horiz-adv-x="485" 
d="M80 661v-89h73v-39h-73v-113h82v-38h-122v318h122v-39h-82zM30 293v40h425v-40h-425zM406 382h39v318h-59l-62 -259l-61 259h-59v-318h40v136l-9 133l66 -269h48l65 269l-8 -130v-139z" />
    <glyph glyph-name="eme.ord" horiz-adv-x="644" 
d="M80 661v-89h73v-39h-73v-113h82v-38h-122v318h122v-39h-82zM406 382h39v318h-59l-62 -259l-61 259h-59v-318h40v136l-9 133l66 -269h48l65 269l-8 -130v-139zM30 293v40h584v-40h-584zM522 661v-89h73v-39h-73v-113h82v-38h-122v318h122v-39h-82z" />
    <glyph glyph-name="th.ord" horiz-adv-x="419" 
d="M186 661h-54v-279h-39v279h-53v39h146v-39zM341 700h38v-318h-38v151h-86v-151h-39v318h39v-128h86v128zM30 293v40h359v-40h-359z" />
    <glyph glyph-name="ya.ord" horiz-adv-x="238" 
d="M108 573h51v88h-61q-8 0 -13.5 -6t-5.5 -14v-40q0 -11 8.5 -19.5t20.5 -8.5zM37 382l52 154q-22 6 -35.5 24t-13.5 42v40q0 23 17 40.5t41 17.5h100v-318h-39v151h-30l-50 -151h-42zM30 293v40h178v-40h-178z" />
    <glyph glyph-name="a_ya.ord." horiz-adv-x="496" 
d="M154 661l-36 -139h77l-37 139h-4zM232 382l-28 102h-96l-28 -102h-41l86 318h62l86 -318h-41zM417 573h-51q-12 0 -20.5 8.5t-8.5 19.5v40q0 8 5.5 14t13.5 6h61v-88zM347 536l-52 -154h42l50 151h30v-151h39v318h-100q-24 0 -41 -17.5t-17 -40.5v-40q0 -24 13.5 -42
t35.5 -24zM30 293v40h436v-40h-436z" />
    <glyph glyph-name="e.ord" horiz-adv-x="202" 
d="M79 661v-89h73v-39h-73v-112h83v-39h-122v318h122v-39h-83zM30 293v40h142v-40h-142z" />
    <glyph glyph-name="o_e.ord" horiz-adv-x="407" 
d="M163 441v200q0 8 -5.5 14t-13.5 6h-45q-8 0 -14 -6t-6 -14v-200q0 -8 6 -14t14 -6h45q8 0 13.5 6t5.5 14zM202 641v-200q0 -24 -17 -41.5t-41 -17.5h-45q-24 0 -41.5 17.5t-17.5 41.5v200q0 24 17.5 41.5t41.5 17.5h45q24 0 41 -17.5t17 -41.5zM284 661v-89h73v-39h-73
v-112h83v-39h-122v318h122v-39h-83zM30 293v40h347v-40h-347z" />
    <glyph glyph-name="o_i.ord" horiz-adv-x="461" 
d="M163 441v200q0 8 -5.5 14t-13.5 6h-45q-8 0 -14 -6t-6 -14v-200q0 -8 6 -14t14 -6h45q8 0 13.5 6t5.5 14zM202 641v-200q0 -24 -17 -41.5t-41 -17.5h-45q-24 0 -41.5 17.5t-17.5 41.5v200q0 24 17.5 41.5t41.5 17.5h45q24 0 41 -17.5t17 -41.5zM271 780h31v-7
q0 -13 12 -13h39q5 0 8.5 4t3.5 9v7h31v-5q0 -19 -12 -31.5t-31 -12.5h-40q-19 0 -30.5 12.5t-11.5 31.5v5zM421 382h-38v166l9 113l-92 -279h-55v318h39v-179l-10 -100l92 279h55v-318zM30 293v40h401v-40h-401z" />
    <glyph glyph-name="i.ord" horiz-adv-x="256" 
d="M66 780h31v-7q0 -13 12 -13h39q5 0 8.5 4t3.5 9v7h31v-5q0 -19 -12 -31.5t-31 -12.5h-40q-19 0 -30.5 12.5t-11.5 31.5v5zM216 382h-38v166l9 113l-92 -279h-55v318h39v-179l-10 -100l92 279h55v-318zM30 293v40h196v-40h-196z" />
    <glyph glyph-name="i_i.ord.001" horiz-adv-x="543" 
d="M138 382h-98v318h39v-98h59q26 0 44.5 -19t18.5 -44v-95q0 -25 -18.5 -43.5t-44.5 -18.5zM277 382h-39v318h39v-318zM161 437v109q0 16 -16 16h-66v-141h66q16 0 16 16zM353 780h31v-7q0 -13 12 -13h39q5 0 8.5 4t3.5 9v7h31v-5q0 -19 -12 -31.5t-31 -12.5h-40
q-19 0 -30.5 12.5t-11.5 31.5v5zM503 382h-38v166l9 113l-92 -279h-55v318h39v-179l-10 -100l92 279h55v-318zM30 293v40h483v-40h-483z" />
    <glyph glyph-name="e_e.ord" horiz-adv-x="372" 
d="M249 661v-89h73v-39h-73v-112h83v-39h-122v318h122v-39h-83zM79 661v-89h73v-39h-73v-112h83v-39h-122v318h122v-39h-83zM30 293v40h312v-40h-312z" />
    <glyph glyph-name="ya_ya.ord" horiz-adv-x="442" 
d="M312 573h51v88h-61q-8 0 -13.5 -6t-5.5 -14v-40q0 -11 8.5 -19.5t20.5 -8.5zM241 382l52 154q-22 6 -35.5 24t-13.5 42v40q0 23 17 40.5t41 17.5h100v-318h-39v151h-30l-50 -151h-42zM108 573h51v88h-61q-8 0 -13.5 -6t-5.5 -14v-40q0 -11 8.5 -19.5t20.5 -8.5zM37 382
l52 154q-22 6 -35.5 24t-13.5 42v40q0 23 17 40.5t41 17.5h100v-318h-39v151h-30l-50 -151h-42zM30 293v40h382v-40h-382z" />
    <glyph glyph-name="i_i.ord" horiz-adv-x="473" 
d="M216 382h-38v166l9 113l-92 -279h-55v318h39v-179l-10 -100l92 279h55v-318zM283 780h31v-7q0 -13 12 -13h39q5 0 8.5 4t3.5 9v7h31v-5q0 -19 -12 -31.5t-31 -12.5h-40q-19 0 -30.5 12.5t-11.5 31.5v5zM433 382h-38v166l9 113l-92 -279h-55v318h39v-179l-10 -100l92 279
h55v-318zM30 293v40h413v-40h-413z" />
    <glyph glyph-name="H.long" horiz-adv-x="680" 
d="M640 700v-700h-66v347h-468v-347h-66v700h66v-292h468v292h66z" />
    <glyph glyph-name="Ruble" horiz-adv-x="355" 
d="M30 295v62h55v343h146q38 0 66 -27.5t28 -66.5v-218q0 -39 -24.5 -66t-63.5 -27h-86v-58h110v-62h-110v-175h-66v175h-55v62h55v58h-55zM151 634v-277h76q14 0 23 11t9 25v213q0 11 -8.5 19.5t-19.5 8.5h-80z" />
    <glyph glyph-name="E.long" horiz-adv-x="605" 
d="M575 634h-469v-226h453v-61h-453v-281h468v-66h-534v700h535v-66z" />
    <glyph glyph-name="T_T" horiz-adv-x="546" 
d="M521 634h-81v-634h-66v634h-202v-634h-66v634h-81v66h496v-66z" />
    <glyph glyph-name="T_V" horiz-adv-x="613" 
d="M530 700h68l-109 -700h-99l-97 634h-121v-634h-66v634h-81v66h326l89 -612z" />
    <glyph glyph-name="T_W" horiz-adv-x="804" 
d="M784 700l-102 -700h-96l-48 411h-4l-49 -411h-96l-92 634h-125v-634h-66v634h-81v66h329l82 -611h4l35 308l28 165l-19 138h105l-20 -138l28 -165l35 -308h4l81 611h67z" />
    <glyph glyph-name="T_W.alt" horiz-adv-x="804" 
d="M717 700h67l-83 -700h-119l-44 334h-4l-42 -334h-121l-75 634h-124v-634h-66v634h-81v66h329l74 -622h11l66 413l-32 209h67l94 -622h12z" />
    <glyph glyph-name="T_Y" horiz-adv-x="581" 
d="M333 66h57v253l-93 315h-125v-634h-66v634h-81v66h321l77 -279l80 279h68l-115 -380v-254h57v-66h-180v66z" />
    <glyph glyph-name="E_A" horiz-adv-x="600" 
d="M338 0h-298v700h191v-66h-125v-226h109v-61h-109v-281h174l86 634h119l95 -700h-66l-30 206h-117zM428 635h-5l-49 -368h103z" />
    <glyph glyph-name="E_T" horiz-adv-x="529" 
d="M504 634h-81v-634h-66v634h-251v-226h109v-61h-109v-281h124v-66h-190v700h464v-66z" />
    <glyph glyph-name="afii10036_afii10037" horiz-adv-x="565" 
d="M402 0l24 201h-61l-71 433h-122v-634h-66v634h-81v66h325l70 -433h13l50 433h67l-81 -700h-67z" />
    <glyph glyph-name="afii10042.long" horiz-adv-x="863" 
d="M106 700v-634h294v634h66v-634h291v634h66v-700h-783v700h66z" />
    <glyph glyph-name="afii10043.long" horiz-adv-x="889" 
d="M106 700v-634h294v634h66v-634h292v634h66v-634h55v-221h-66v155h-773v700h66z" />
    <glyph glyph-name="z_a" horiz-adv-x="603" 
d="M32 477v63h223l-148 -478h179l90 478h106l101 -540h-64l-32 179h-115l-34 -179h-318l148 477h-136zM427 478l-44 -237h92l-44 237h-4z" />
    <glyph glyph-name="f_y" horiz-adv-x="556" 
d="M103 477v-157h116v-62h-116v-258h-63v540h272l81 -220h7l79 220h67l-107 -282h-11v-196h61v-62h-184v62h60v196h-11l-85 219h-166z" />
    <glyph glyph-name="dollar.alt" horiz-adv-x="262" 
d="M103 -60v70q-36 4 -60.5 30.5t-24.5 62.5v75h63v-75q0 -13 9 -22t22 -9h31q13 0 22.5 9t9.5 22v22q0 25 -16 46l-106 140q-21 29 -28 45t-7 46v24q0 36 24.5 63t60.5 30v69h51v-69q35 -4 59 -30.5t24 -62.5v-32h-62v32q0 13 -9.5 22t-22.5 9h-31q-13 0 -22 -9t-9 -22v-19
q0 -27 17 -49l109 -142q18 -24 24 -41t6 -45v-27q0 -36 -24 -62t-59 -31v-70h-51z" />
    <glyph glyph-name="afii10020_afii10037" horiz-adv-x="528" 
d="M106 0h-66v700h273l70 -433h13l50 433h67l-81 -700h-67l24 201h-61l-71 433h-151v-634z" />
    <glyph glyph-name="afii10068_afii10085" horiz-adv-x="538" 
d="M413 0h-63l37 178h-40l-80 300h-165v-478h-62v540h275l79 -299h6l60 299h63z" />
    </font>
</defs>
</svg>
